<svg width="32" height="32" viewBox="0 0 32 32" fill="none" xmlns="http://www.w3.org/2000/svg">
<path d="M20.6666 19.3334C20.6666 19.687 20.5262 20.0261 20.2761 20.2762C20.0261 20.5262 19.6869 20.6667 19.3333 20.6667C18.9797 20.6667 18.6406 20.5262 18.3905 20.2762C18.1405 20.0261 18 19.687 18 19.3334C18 18.9798 18.1405 18.6406 18.3905 18.3906C18.6406 18.1405 18.9797 18 19.3333 18C19.6869 18 20.0261 18.1405 20.2761 18.3906C20.5262 18.6406 20.6666 18.9798 20.6666 19.3334ZM14 12.6667C14 13.0203 13.8595 13.3595 13.6095 13.6095C13.3594 13.8596 13.0203 14 12.6666 14C12.313 14 11.9739 13.8596 11.7238 13.6095C11.4738 13.3595 11.3333 13.0203 11.3333 12.6667C11.3333 12.3131 11.4738 11.9739 11.7238 11.7239C11.9739 11.4739 12.313 11.3334 12.6666 11.3334C13.0203 11.3334 13.3594 11.4739 13.6095 11.7239C13.8595 11.9739 14 12.3131 14 12.6667Z" fill="#833D90"/>
<path fill-rule="evenodd" clip-rule="evenodd" d="M20.7067 11.2933C20.894 11.4808 20.9991 11.735 20.9991 12C20.9991 12.265 20.894 12.5191 20.7067 12.7066L12.7067 20.7066C12.5171 20.8833 12.2664 20.9794 12.0073 20.9749C11.7483 20.9703 11.5011 20.8654 11.3179 20.6821C11.1346 20.4989 11.0297 20.2517 11.0251 19.9927C11.0205 19.7336 11.1167 19.4829 11.2934 19.2933L19.2934 11.2933C19.4809 11.106 19.735 11.0009 20 11.0009C20.265 11.0009 20.5192 11.106 20.7067 11.2933Z" fill="#833D90"/>
<path fill-rule="evenodd" clip-rule="evenodd" d="M15.924 1.66663H16.076C19.1547 1.66663 21.5667 1.66663 23.4494 1.91996C25.3747 2.17863 26.8947 2.71996 28.088 3.91196C29.2814 5.10529 29.8214 6.62529 30.08 8.55196C30.3334 10.4333 30.3334 12.8453 30.3334 15.924V16.076C30.3334 19.1546 30.3334 21.5666 30.08 23.4493C29.8214 25.3746 29.28 26.8946 28.088 28.088C26.8947 29.2813 25.3747 29.8213 23.448 30.08C21.5667 30.3333 19.1547 30.3333 16.076 30.3333H15.924C12.8454 30.3333 10.4334 30.3333 8.55069 30.08C6.62535 29.8213 5.10535 29.28 3.91202 28.088C2.71869 26.8946 2.17869 25.3746 1.92002 23.448C1.66669 21.5666 1.66669 19.1546 1.66669 16.076V15.924C1.66669 12.8453 1.66669 10.4333 1.92002 8.55063C2.17869 6.62529 2.72002 5.10529 3.91202 3.91196C5.10535 2.71863 6.62535 2.17863 8.55202 1.91996C10.4334 1.66663 12.8454 1.66663 15.924 1.66663ZM8.81735 3.90129C7.11335 4.13063 6.08535 4.56796 5.32669 5.32663C4.56669 6.08663 4.13069 7.11329 3.90135 8.81863C3.66935 10.552 3.66669 12.8293 3.66669 16C3.66669 19.1706 3.66935 21.448 3.90135 23.1813C4.13069 24.8866 4.56802 25.9146 5.32669 26.6746C6.08669 27.4333 7.11335 27.8693 8.81869 28.0986C10.552 28.3306 12.8294 28.3333 16 28.3333C19.1707 28.3333 21.448 28.3306 23.1814 28.0986C24.8867 27.8693 25.9147 27.432 26.6747 26.6733C27.4334 25.9133 27.8694 24.8866 28.0987 23.1813C28.3307 21.448 28.3334 19.1706 28.3334 16C28.3334 12.8293 28.3307 10.552 28.0987 8.81863C27.8694 7.11329 27.432 6.08529 26.6734 5.32529C25.9134 4.56663 24.8867 4.13063 23.1814 3.90129C21.448 3.66929 19.1707 3.66663 16 3.66663C12.8294 3.66663 10.5507 3.66929 8.81735 3.90129Z" fill="#833D90"/>
</svg>
