<svg width="40" height="40" viewBox="0 0 40 40" fill="none" xmlns="http://www.w3.org/2000/svg">
<path fill-rule="evenodd" clip-rule="evenodd" d="M20.0005 23.0005C22.1222 23.0005 24.1571 22.1576 25.6573 20.6573C27.1576 19.1571 28.0005 17.1222 28.0005 15.0005C28.0005 12.8788 27.1576 10.8439 25.6573 9.34363C24.1571 7.84334 22.1222 7.00049 20.0005 7.00049C17.8788 7.00049 15.8439 7.84334 14.3436 9.34363C12.8433 10.8439 12.0005 12.8788 12.0005 15.0005C12.0005 17.1222 12.8433 19.1571 14.3436 20.6573C15.8439 22.1576 17.8788 23.0005 20.0005 23.0005ZM20.0005 21.0005C20.7884 21.0005 21.5686 20.8453 22.2966 20.5438C23.0245 20.2422 23.686 19.8003 24.2431 19.2431C24.8003 18.686 25.2422 18.0245 25.5438 17.2966C25.8453 16.5686 26.0005 15.7884 26.0005 15.0005C26.0005 14.2126 25.8453 13.4323 25.5438 12.7044C25.2422 11.9764 24.8003 11.315 24.2431 10.7578C23.686 10.2007 23.0245 9.75874 22.2966 9.45721C21.5686 9.15568 20.7884 9.00049 20.0005 9.00049C18.4092 9.00049 16.8831 9.63263 15.7578 10.7578C14.6326 11.8831 14.0005 13.4092 14.0005 15.0005C14.0005 16.5918 14.6326 18.1179 15.7578 19.2431C16.8831 20.3683 18.4092 21.0005 20.0005 21.0005Z" fill="#833D90"/>
<path fill-rule="evenodd" clip-rule="evenodd" d="M40 20C40 31.046 31.046 40 20 40C8.954 40 0 31.046 0 20C0 8.954 8.954 0 20 0C31.046 0 40 8.954 40 20ZM29.63 35.21C26.7513 37.0383 23.4102 38.0063 20 38C16.5083 38.0063 13.0911 36.9913 10.169 35.08C9.929 34.78 9.68567 34.47 9.439 34.15C9.1529 33.7752 8.99858 33.3165 9 32.845C9 31.768 9.774 30.865 10.809 30.714C17.654 29.714 22.367 29.8 29.221 30.749C29.7171 30.8215 30.1703 31.0708 30.4972 31.451C30.8241 31.8312 31.0026 32.3166 31 32.818C31 33.298 30.835 33.764 30.537 34.128C30.2297 34.502 29.9273 34.8627 29.63 35.21ZM32.985 32.466C32.825 30.594 31.404 29.032 29.495 28.768C22.479 27.797 17.575 27.704 10.52 28.735C8.6 29.015 7.185 30.591 7.017 32.468C3.79233 29.1191 1.99364 24.6491 2 20C2 10.059 10.059 2 20 2C29.941 2 38 10.059 38 20C38.0064 24.6481 36.2085 29.1172 32.985 32.466Z" fill="#833D90"/>
</svg>
