<svg width="32" height="33" viewBox="0 0 32 33" fill="none" xmlns="http://www.w3.org/2000/svg">
<path d="M12.596 21.1722C12.4909 21.0878 12.3704 21.026 12.2418 20.9903C12.1132 20.9546 11.9789 20.9457 11.8469 20.9643C11.7149 20.9828 11.5878 21.0284 11.4731 21.0983C11.3584 21.1682 11.2584 21.261 11.179 21.3713C11.0996 21.4816 11.0423 21.6072 11.0106 21.7406C10.9789 21.874 10.9734 22.0127 10.9943 22.1483C11.0153 22.284 11.0623 22.414 11.1327 22.5307C11.203 22.6473 11.2953 22.7483 11.404 22.8277C12.731 23.8509 14.3431 24.4045 16 24.4062C17.6569 24.4045 19.269 23.8509 20.596 22.8277C20.7047 22.7483 20.797 22.6473 20.8673 22.5307C20.9377 22.414 20.9847 22.284 21.0057 22.1483C21.0266 22.0127 21.0211 21.874 20.9894 21.7406C20.9577 21.6072 20.9004 21.4816 20.821 21.3713C20.7416 21.261 20.6416 21.1682 20.5269 21.0983C20.4122 21.0284 20.2851 20.9828 20.1531 20.9643C20.0211 20.9457 19.8869 20.9546 19.7582 20.9903C19.6296 21.026 19.5091 21.0878 19.404 21.1722C18.4216 21.9312 17.2275 22.3421 16 22.3437C14.7725 22.3421 13.5784 21.9312 12.596 21.1722Z" fill="#833D90"/>
<path fill-rule="evenodd" clip-rule="evenodd" d="M16 1.71875C15.056 1.71875 14.1987 1.99788 13.2667 2.464C12.368 2.915 11.328 3.5805 10.0307 4.411L7.27469 6.17513C6.04802 6.96163 5.06269 7.59137 4.30535 8.1895C3.52002 8.80825 2.91735 9.44075 2.48135 10.2616C2.04669 11.0797 1.85202 11.9515 1.75735 12.9814C1.66669 13.9782 1.66669 15.1992 1.66669 16.7296V18.9475C1.66669 21.5655 1.66669 23.6321 1.87069 25.2477C2.07869 26.9046 2.51869 28.2425 3.51069 29.2999C4.50669 30.3628 5.77335 30.8385 7.34402 31.0626C8.86402 31.2812 10.808 31.2812 13.256 31.2812H18.744C21.192 31.2812 23.136 31.2812 24.656 31.0626C26.2254 30.8385 27.4934 30.3628 28.4907 29.2999C29.4814 28.2425 29.9214 26.9046 30.1307 25.2477C30.3334 23.6321 30.3334 21.5655 30.3334 18.9475V16.7296C30.3334 15.1992 30.3334 13.9796 30.2427 12.9814C30.1494 11.9501 29.9534 11.0797 29.5187 10.2616C29.0827 9.44075 28.4787 8.80962 27.6947 8.1895C26.9374 7.59 25.9534 6.96163 24.7254 6.17513L21.9694 4.411C20.672 3.5805 19.632 2.915 18.732 2.464C17.8027 1.9965 16.9454 1.71875 16 1.71875ZM11.04 6.193C12.3934 5.32675 13.3467 4.719 14.1427 4.31888C14.9174 3.92975 15.4667 3.78125 16 3.78125C16.5334 3.78125 17.0827 3.92975 17.8574 4.31888C18.6547 4.71763 19.6067 5.32675 20.96 6.193L23.6267 7.89937C24.908 8.72025 25.808 9.29637 26.48 9.82712C27.132 10.3427 27.5067 10.7676 27.764 11.2516C28.0214 11.737 28.172 12.3049 28.2507 13.1739C28.332 14.0649 28.3334 15.1883 28.3334 16.7805V18.8719C28.3334 21.5806 28.3307 23.5139 28.1467 24.981C27.9654 26.422 27.6227 27.258 27.0534 27.8671C26.4867 28.4707 25.716 28.8296 24.3814 29.0208C23.0134 29.216 21.2094 29.2188 18.6667 29.2188H13.3334C10.7894 29.2188 8.98669 29.216 7.61869 29.0208C6.28402 28.8283 5.51335 28.4708 4.94802 27.8658C4.37735 27.258 4.03469 26.422 3.85469 24.981C3.66802 23.5139 3.66669 21.582 3.66669 18.8719V16.7805C3.66669 15.1883 3.66669 14.0649 3.74935 13.1739C3.82802 12.3049 3.97869 11.737 4.23602 11.2516C4.49335 10.7676 4.86802 10.3427 5.52135 9.82712C6.19202 9.29637 7.09202 8.72025 8.37335 7.89937L11.04 6.193Z" fill="#833D90"/>
</svg>
