<svg width="29" height="30" viewBox="0 0 29 30" fill="none" xmlns="http://www.w3.org/2000/svg">
<path d="M9.93958 9.68478C10.385 8.69074 11.139 7.8772 12.083 7.37214C13.0271 6.86708 14.1076 6.69915 15.1546 6.89478C15.8714 7.00993 16.5522 7.29534 17.143 7.72834C17.7339 8.16135 18.2184 8.73004 18.5583 9.38928C18.8025 9.91752 18.935 10.493 18.9472 11.0777C18.9595 11.6625 18.8511 12.2432 18.6292 12.7818C18.4074 13.3203 18.0772 13.8044 17.6602 14.2021C17.2433 14.5999 16.7492 14.9022 16.2104 15.0893C15.6624 15.3053 15.1884 15.6825 14.8476 16.1739C14.5068 16.6653 14.3143 17.249 14.2942 17.8523V18.9923" stroke="#833D90" stroke-width="1.5" stroke-miterlimit="10" stroke-linecap="round"/>
<path d="M14.4311 22.6183H14.4442" stroke="#833D90" stroke-width="2" stroke-linecap="round" stroke-linejoin="round"/>
<path d="M19.2292 1H9.75C4.91751 1 1 5.02944 1 10V19.75C1 24.7206 4.91751 28.75 9.75 28.75H19.2292C24.0617 28.75 27.9792 24.7206 27.9792 19.75V10C27.9792 5.02944 24.0617 1 19.2292 1Z" stroke="#833D90" stroke-width="1.5"/>
</svg>
