<svg width="19" height="30" viewBox="0 0 19 30" fill="none" xmlns="http://www.w3.org/2000/svg">
<path fill-rule="evenodd" clip-rule="evenodd" d="M18.3333 2.69167V0H16.6667V2.5H1.66667V0H2.09485e-10V2.69167C-1.19658e-05 4.88637 0.512605 7.05074 1.497 9.0123C2.4814 10.9739 3.91035 12.6784 5.67 13.99C6.19365 13.6593 6.73625 13.3596 7.295 13.0925C5.74984 12.0831 4.44912 10.742 3.4875 9.16667H14.8458C13.5081 11.3579 11.524 13.0805 9.16667 14.0975L9.15333 14.1033C9.055 14.145 8.95639 14.1861 8.8575 14.2267C8.29417 14.4522 7.75222 14.71 7.23167 15C5.25787 16.0998 3.5775 17.6582 2.33224 19.5436C1.08699 21.429 0.313387 23.5862 0.0766667 25.8333H2.09485e-10V30H1.66667V27.5H16.6667V30H18.3333V25.8333H18.2558C18.0518 23.8988 17.4497 22.0274 16.4874 20.3368C15.5251 18.6463 14.2234 17.1731 12.6642 16.01C12.1405 16.3407 11.5979 16.6404 11.0392 16.9075C12.5837 17.9171 13.8839 19.2582 14.845 20.8333H3.48667C4.82466 18.642 6.80907 16.9193 9.16667 15.9025L9.18 15.8967C9.27833 15.855 9.37694 15.8139 9.47583 15.7733C12.0903 14.7274 14.3314 12.9222 15.9102 10.5905C17.489 8.25879 18.333 5.50757 18.3333 2.69167ZM15.6992 22.5H2.635C2.18883 23.5651 1.8924 24.6869 1.75417 25.8333H16.5792C16.4409 24.6869 16.1453 23.5651 15.6992 22.5ZM2.635 7.5H15.6992C16.1408 6.44667 16.4408 5.32667 16.5792 4.16667H1.75417C1.89213 5.31309 2.18912 6.43487 2.635 7.5Z" fill="#833D90"/>
</svg>
