<svg width="173" height="182" viewBox="0 0 173 182" fill="none" xmlns="http://www.w3.org/2000/svg">
<path d="M6.27092 8.952H13.8589V10.982H6.27092V8.952ZM14.0969 4.5V6.544H6.29892L7.50292 5.326V15H5.12292V4.5H14.0969ZM15.4953 6.95L16.6573 7.174L17.8333 6.95V15H15.4953V6.95ZM16.6573 6.124C16.2373 6.124 15.8919 6.01667 15.6213 5.802C15.3599 5.578 15.2293 5.284 15.2293 4.92C15.2293 4.54667 15.3599 4.25267 15.6213 4.038C15.8919 3.814 16.2373 3.702 16.6573 3.702C17.0866 3.702 17.4319 3.814 17.6933 4.038C17.9546 4.25267 18.0853 4.54667 18.0853 4.92C18.0853 5.284 17.9546 5.578 17.6933 5.802C17.4319 6.01667 17.0866 6.124 16.6573 6.124ZM19.2188 7.034H21.5568L22.0608 10.072V15H19.7228V9.722L19.2188 7.034ZM25.0988 6.824C25.8548 6.824 26.4988 6.978 27.0308 7.286C27.5628 7.58467 27.9688 8.014 28.2488 8.574C28.5288 9.134 28.6688 9.80133 28.6688 10.576V15H26.3308V10.926C26.3308 10.2073 26.1582 9.666 25.8128 9.302C25.4675 8.92867 24.9635 8.742 24.3008 8.742C23.8528 8.742 23.4562 8.84467 23.1108 9.05C22.7748 9.246 22.5135 9.52133 22.3268 9.876C22.1495 10.2307 22.0608 10.6553 22.0608 11.15L21.2908 10.744C21.3842 9.904 21.6082 9.19467 21.9628 8.616C22.3175 8.03733 22.7655 7.594 23.3068 7.286C23.8482 6.978 24.4455 6.824 25.0988 6.824ZM37.6096 15L37.2736 12.088L37.6516 11.024L37.2736 9.974L37.6096 7.034H40.0316L39.5696 11.024L40.0316 15H37.6096ZM38.2256 11.024C38.0763 11.864 37.8009 12.6013 37.3996 13.236C37.0076 13.8613 36.5083 14.3467 35.9016 14.692C35.3043 15.0373 34.6323 15.21 33.8856 15.21C33.1109 15.21 32.4249 15.0373 31.8276 14.692C31.2303 14.3373 30.7636 13.8473 30.4276 13.222C30.1009 12.5873 29.9376 11.8547 29.9376 11.024C29.9376 10.184 30.1009 9.45133 30.4276 8.826C30.7636 8.19133 31.2303 7.70133 31.8276 7.356C32.4249 7.00133 33.1109 6.824 33.8856 6.824C34.6323 6.824 35.3043 6.99667 35.9016 7.342C36.5083 7.68733 37.0123 8.17733 37.4136 8.812C37.8149 9.43733 38.0856 10.1747 38.2256 11.024ZM32.3036 11.024C32.3036 11.4907 32.3969 11.9013 32.5836 12.256C32.7796 12.6107 33.0456 12.8907 33.3816 13.096C33.7176 13.292 34.1049 13.39 34.5436 13.39C34.9823 13.39 35.3929 13.292 35.7756 13.096C36.1676 12.8907 36.5129 12.6107 36.8116 12.256C37.1103 11.9013 37.3436 11.4907 37.5116 11.024C37.3436 10.5573 37.1103 10.1467 36.8116 9.792C36.5129 9.428 36.1676 9.148 35.7756 8.952C35.3929 8.74667 34.9823 8.644 34.5436 8.644C34.1049 8.644 33.7176 8.74667 33.3816 8.952C33.0456 9.148 32.7796 9.428 32.5836 9.792C32.3969 10.1467 32.3036 10.5573 32.3036 11.024ZM41.5949 4.22H43.9329V15H41.5949V4.22ZM45.6965 6.95L46.8585 7.174L48.0345 6.95V15H45.6965V6.95ZM46.8585 6.124C46.4385 6.124 46.0931 6.01667 45.8225 5.802C45.5611 5.578 45.4305 5.284 45.4305 4.92C45.4305 4.54667 45.5611 4.25267 45.8225 4.038C46.0931 3.814 46.4385 3.702 46.8585 3.702C47.2878 3.702 47.6331 3.814 47.8945 4.038C48.1558 4.25267 48.2865 4.54667 48.2865 4.92C48.2865 5.284 48.1558 5.578 47.8945 5.802C47.6331 6.01667 47.2878 6.124 46.8585 6.124ZM49.448 15V13.348L55.3 8.35L56.868 8.77H49.49V7.034H57.764V8.686L51.912 13.684L50.568 13.278H57.792V15H49.448ZM63.5069 15.21C62.5642 15.21 61.7195 15.0373 60.9729 14.692C60.2355 14.3373 59.6522 13.8427 59.2229 13.208C58.8029 12.5733 58.5929 11.836 58.5929 10.996C58.5929 10.1653 58.7935 9.43733 59.1949 8.812C59.6055 8.18667 60.1655 7.70133 60.8749 7.356C61.5842 7.00133 62.3915 6.824 63.2969 6.824C64.2209 6.824 65.0142 7.02933 65.6769 7.44C66.3395 7.84133 66.8482 8.41067 67.2029 9.148C67.5669 9.88533 67.7489 10.7533 67.7489 11.752H60.4689V10.198H66.4889L65.5789 10.758C65.5415 10.2913 65.4249 9.89467 65.2289 9.568C65.0422 9.24133 64.7855 8.98933 64.4589 8.812C64.1322 8.63467 63.7495 8.546 63.3109 8.546C62.8349 8.546 62.4195 8.644 62.0649 8.84C61.7195 9.02667 61.4489 9.29267 61.2529 9.638C61.0662 9.974 60.9729 10.3707 60.9729 10.828C60.9729 11.3787 61.0942 11.85 61.3369 12.242C61.5795 12.634 61.9342 12.9327 62.4009 13.138C62.8675 13.3433 63.4322 13.446 64.0949 13.446C64.6922 13.446 65.2942 13.362 65.9009 13.194C66.5075 13.0167 67.0535 12.7693 67.5389 12.452V14.02C67.0162 14.3933 66.4049 14.6873 65.7049 14.902C65.0142 15.1073 64.2815 15.21 63.5069 15.21ZM77.2624 15.21C76.2731 15.21 75.4051 15.0373 74.6584 14.692C73.9117 14.3373 73.3284 13.8473 72.9084 13.222C72.4884 12.5873 72.2784 11.8547 72.2784 11.024C72.2784 10.184 72.4884 9.45133 72.9084 8.826C73.3284 8.19133 73.9117 7.70133 74.6584 7.356C75.4051 7.00133 76.2731 6.824 77.2624 6.824C78.2517 6.824 79.1197 7.00133 79.8664 7.356C80.6131 7.70133 81.1917 8.19133 81.6024 8.826C82.0224 9.45133 82.2324 10.184 82.2324 11.024C82.2324 11.8547 82.0224 12.5873 81.6024 13.222C81.1917 13.8473 80.6131 14.3373 79.8664 14.692C79.1197 15.0373 78.2517 15.21 77.2624 15.21ZM77.2624 13.432C77.8037 13.432 78.2657 13.334 78.6484 13.138C79.0404 12.942 79.3391 12.6667 79.5444 12.312C79.7591 11.948 79.8664 11.5187 79.8664 11.024C79.8664 10.52 79.7591 10.0907 79.5444 9.736C79.3391 9.372 79.0404 9.092 78.6484 8.896C78.2657 8.7 77.8037 8.602 77.2624 8.602C76.7304 8.602 76.2684 8.7 75.8764 8.896C75.4844 9.092 75.1811 9.372 74.9664 9.736C74.7611 10.0907 74.6584 10.52 74.6584 11.024C74.6584 11.5187 74.7611 11.948 74.9664 12.312C75.1811 12.6667 75.4844 12.942 75.8764 13.138C76.2684 13.334 76.7304 13.432 77.2624 13.432ZM96.6129 11.626C96.5383 12.3447 96.2769 12.9747 95.8289 13.516C95.3809 14.0573 94.7976 14.4773 94.0789 14.776C93.3696 15.0747 92.5716 15.224 91.6849 15.224C90.7049 15.224 89.8416 15.0467 89.0949 14.692C88.3483 14.3373 87.7649 13.8427 87.3449 13.208C86.9249 12.5733 86.7149 11.8407 86.7149 11.01C86.7149 10.17 86.9249 9.43267 87.3449 8.798C87.7649 8.16333 88.3483 7.66867 89.0949 7.314C89.8416 6.95 90.7049 6.768 91.6849 6.768C92.5716 6.768 93.3696 6.922 94.0789 7.23C94.7976 7.52867 95.3809 7.94867 95.8289 8.49C96.2769 9.022 96.5383 9.652 96.6129 10.38H93.7709C93.6683 9.904 93.4303 9.54 93.0569 9.288C92.6836 9.02667 92.2263 8.896 91.6849 8.896C91.2649 8.896 90.8963 8.98 90.5789 9.148C90.2709 9.30667 90.0283 9.54467 89.8509 9.862C89.6829 10.17 89.5989 10.5527 89.5989 11.01C89.5989 11.458 89.6829 11.8407 89.8509 12.158C90.0283 12.466 90.2709 12.704 90.5789 12.872C90.8963 13.0307 91.2649 13.11 91.6849 13.11C92.2263 13.11 92.6836 12.9747 93.0569 12.704C93.4396 12.4333 93.6776 12.074 93.7709 11.626H96.6129ZM104.967 15L104.603 12.116L104.981 11.01L104.603 9.904L104.967 7.006H107.935L107.431 10.996L107.935 15H104.967ZM105.639 11.01C105.508 11.85 105.247 12.5873 104.855 13.222C104.472 13.8567 103.982 14.3513 103.385 14.706C102.797 15.0513 102.125 15.224 101.369 15.224C100.585 15.224 99.8943 15.0513 99.297 14.706C98.709 14.3513 98.247 13.8567 97.911 13.222C97.575 12.578 97.407 11.8407 97.407 11.01C97.407 10.1607 97.575 9.41867 97.911 8.784C98.247 8.14933 98.709 7.65467 99.297 7.3C99.8943 6.94533 100.585 6.768 101.369 6.768C102.125 6.768 102.797 6.94533 103.385 7.3C103.982 7.64533 104.477 8.13533 104.869 8.77C105.261 9.39533 105.518 10.142 105.639 11.01ZM100.305 11.01C100.305 11.402 100.384 11.752 100.543 12.06C100.711 12.368 100.94 12.6107 101.229 12.788C101.518 12.956 101.85 13.04 102.223 13.04C102.615 13.04 102.984 12.956 103.329 12.788C103.674 12.6107 103.978 12.368 104.239 12.06C104.5 11.752 104.696 11.402 104.827 11.01C104.696 10.6087 104.5 10.254 104.239 9.946C103.978 9.638 103.674 9.39533 103.329 9.218C102.984 9.04067 102.615 8.952 102.223 8.952C101.85 8.952 101.518 9.04067 101.229 9.218C100.94 9.39533 100.711 9.638 100.543 9.946C100.384 10.254 100.305 10.6087 100.305 11.01ZM116.535 15L116.157 12.004L116.647 11.024L116.171 9.792L116.843 4.22H119.811L118.985 10.786L119.489 15H116.535ZM117.151 11.01C117.02 11.85 116.759 12.5873 116.367 13.222C115.984 13.8567 115.494 14.3513 114.897 14.706C114.309 15.0513 113.637 15.224 112.881 15.224C112.097 15.224 111.406 15.0513 110.809 14.706C110.221 14.3513 109.759 13.8567 109.423 13.222C109.087 12.578 108.919 11.8407 108.919 11.01C108.919 10.1607 109.087 9.41867 109.423 8.784C109.759 8.14933 110.221 7.65467 110.809 7.3C111.406 6.94533 112.097 6.768 112.881 6.768C113.637 6.768 114.309 6.94533 114.897 7.3C115.494 7.64533 115.989 8.13533 116.381 8.77C116.773 9.39533 117.029 10.142 117.151 11.01ZM111.817 11.01C111.817 11.402 111.896 11.752 112.055 12.06C112.223 12.368 112.451 12.6107 112.741 12.788C113.03 12.956 113.361 13.04 113.735 13.04C114.127 13.04 114.495 12.956 114.841 12.788C115.186 12.6107 115.489 12.368 115.751 12.06C116.012 11.752 116.208 11.402 116.339 11.01C116.208 10.6087 116.012 10.254 115.751 9.946C115.489 9.638 115.186 9.39533 114.841 9.218C114.495 9.04067 114.127 8.952 113.735 8.952C113.361 8.952 113.03 9.04067 112.741 9.218C112.451 9.39533 112.223 9.638 112.055 9.946C111.896 10.254 111.817 10.6087 111.817 11.01ZM128.031 15L127.667 12.116L128.045 11.01L127.667 9.904L128.031 7.006H130.999L130.495 10.996L130.999 15H128.031ZM128.703 11.01C128.573 11.85 128.311 12.5873 127.919 13.222C127.537 13.8567 127.047 14.3513 126.449 14.706C125.861 15.0513 125.189 15.224 124.433 15.224C123.649 15.224 122.959 15.0513 122.361 14.706C121.773 14.3513 121.311 13.8567 120.975 13.222C120.639 12.578 120.471 11.8407 120.471 11.01C120.471 10.1607 120.639 9.41867 120.975 8.784C121.311 8.14933 121.773 7.65467 122.361 7.3C122.959 6.94533 123.649 6.768 124.433 6.768C125.189 6.768 125.861 6.94533 126.449 7.3C127.047 7.64533 127.541 8.13533 127.933 8.77C128.325 9.39533 128.582 10.142 128.703 11.01ZM123.369 11.01C123.369 11.402 123.449 11.752 123.607 12.06C123.775 12.368 124.004 12.6107 124.293 12.788C124.583 12.956 124.914 13.04 125.287 13.04C125.679 13.04 126.048 12.956 126.393 12.788C126.739 12.6107 127.042 12.368 127.303 12.06C127.565 11.752 127.761 11.402 127.891 11.01C127.761 10.6087 127.565 10.254 127.303 9.946C127.042 9.638 126.739 9.39533 126.393 9.218C126.048 9.04067 125.679 8.952 125.287 8.952C124.914 8.952 124.583 9.04067 124.293 9.218C124.004 9.39533 123.775 9.638 123.607 9.946C123.449 10.254 123.369 10.6087 123.369 11.01ZM141.615 12.396C141.615 13.012 141.428 13.53 141.055 13.95C140.681 14.37 140.149 14.6873 139.459 14.902C138.768 15.1167 137.937 15.224 136.967 15.224C135.968 15.224 135.091 15.1027 134.335 14.86C133.588 14.6173 133.005 14.2767 132.585 13.838C132.165 13.3993 131.941 12.8907 131.913 12.312H134.811C134.876 12.5267 135.002 12.7133 135.189 12.872C135.385 13.0213 135.641 13.138 135.959 13.222C136.276 13.2967 136.654 13.334 137.093 13.334C137.662 13.334 138.091 13.278 138.381 13.166C138.679 13.054 138.829 12.886 138.829 12.662C138.829 12.4847 138.717 12.354 138.493 12.27C138.269 12.1767 137.886 12.1067 137.345 12.06L135.931 11.948C134.988 11.8827 134.237 11.7427 133.677 11.528C133.126 11.304 132.729 11.0193 132.486 10.674C132.244 10.3193 132.123 9.918 132.123 9.47C132.123 8.86333 132.309 8.364 132.683 7.972C133.065 7.57067 133.593 7.272 134.265 7.076C134.946 6.87067 135.739 6.768 136.645 6.768C137.541 6.768 138.339 6.88467 139.039 7.118C139.739 7.35133 140.299 7.678 140.719 8.098C141.139 8.50867 141.381 8.994 141.447 9.554H138.549C138.502 9.37667 138.399 9.218 138.241 9.078C138.082 8.92867 137.863 8.80733 137.583 8.714C137.303 8.62067 136.943 8.574 136.505 8.574C135.991 8.574 135.599 8.63 135.329 8.742C135.067 8.854 134.937 9.01267 134.937 9.218C134.937 9.37667 135.016 9.50267 135.175 9.596C135.343 9.68933 135.651 9.75467 136.099 9.792L137.961 9.932C138.885 9.988 139.613 10.1233 140.145 10.338C140.677 10.5433 141.055 10.8187 141.279 11.164C141.503 11.5093 141.615 11.92 141.615 12.396ZM141.996 9.12V7.874L143.62 7.216L144.852 4.85H146.476V7.006H149.836V9.12H146.476V11.472C146.476 12.0507 146.593 12.4567 146.826 12.69C147.059 12.9233 147.484 13.04 148.1 13.04C148.492 13.04 148.837 13.0073 149.136 12.942C149.444 12.8673 149.724 12.774 149.976 12.662V14.818C149.696 14.9207 149.327 15.014 148.87 15.098C148.413 15.182 147.941 15.224 147.456 15.224C146.569 15.224 145.841 15.0887 145.272 14.818C144.712 14.5473 144.297 14.16 144.026 13.656C143.755 13.1427 143.62 12.5453 143.62 11.864V9.12H141.996ZM150.754 7.006H153.666L154.142 9.862V15H151.286V9.694L150.754 7.006ZM157.894 6.88V9.316C157.614 9.26 157.348 9.22267 157.096 9.204C156.853 9.176 156.629 9.162 156.424 9.162C156.013 9.162 155.635 9.246 155.29 9.414C154.944 9.57267 154.664 9.83867 154.45 10.212C154.244 10.5853 154.142 11.0847 154.142 11.71L153.596 11.038C153.67 10.4593 153.782 9.918 153.932 9.414C154.081 8.90067 154.282 8.448 154.534 8.056C154.795 7.65467 155.117 7.342 155.5 7.118C155.882 6.88467 156.349 6.768 156.9 6.768C157.058 6.768 157.222 6.77733 157.39 6.796C157.558 6.81467 157.726 6.84267 157.894 6.88ZM163.411 15.224C162.385 15.224 161.489 15.0513 160.723 14.706C159.958 14.3513 159.361 13.8567 158.931 13.222C158.502 12.578 158.287 11.8407 158.287 11.01C158.287 10.1607 158.502 9.41867 158.931 8.784C159.361 8.14933 159.958 7.65467 160.723 7.3C161.489 6.94533 162.385 6.768 163.411 6.768C164.429 6.768 165.32 6.94533 166.085 7.3C166.86 7.65467 167.462 8.14933 167.891 8.784C168.321 9.41867 168.535 10.1607 168.535 11.01C168.535 11.8407 168.321 12.578 167.891 13.222C167.462 13.8567 166.86 14.3513 166.085 14.706C165.32 15.0513 164.429 15.224 163.411 15.224ZM163.411 13.11C163.878 13.11 164.275 13.026 164.601 12.858C164.937 12.69 165.194 12.4473 165.371 12.13C165.549 11.8127 165.637 11.4393 165.637 11.01C165.637 10.562 165.549 10.184 165.371 9.876C165.194 9.55867 164.937 9.316 164.601 9.148C164.275 8.98 163.878 8.896 163.411 8.896C162.945 8.896 162.543 8.98 162.207 9.148C161.871 9.316 161.615 9.55867 161.437 9.876C161.26 10.184 161.171 10.5573 161.171 10.996C161.171 11.4347 161.26 11.8127 161.437 12.13C161.615 12.4473 161.871 12.69 162.207 12.858C162.543 13.026 162.945 13.11 163.411 13.11ZM23.8225 34L23.4865 30.99L23.9345 30.038L23.5005 28.876L24.1305 23.22H26.5525L25.7825 29.856L26.2445 34H23.8225ZM24.3965 30.024C24.2472 30.864 23.9718 31.6013 23.5705 32.236C23.1785 32.8613 22.6792 33.3467 22.0725 33.692C21.4752 34.0373 20.8032 34.21 20.0565 34.21C19.2818 34.21 18.5958 34.0373 17.9985 33.692C17.4012 33.3373 16.9345 32.8473 16.5985 32.222C16.2718 31.5873 16.1085 30.8547 16.1085 30.024C16.1085 29.184 16.2718 28.4513 16.5985 27.826C16.9345 27.1913 17.4012 26.7013 17.9985 26.356C18.5958 26.0013 19.2818 25.824 20.0565 25.824C20.8032 25.824 21.4752 25.9967 22.0725 26.342C22.6792 26.6873 23.1832 27.1773 23.5845 27.812C23.9858 28.4373 24.2565 29.1747 24.3965 30.024ZM18.4745 30.024C18.4745 30.4907 18.5678 30.9013 18.7545 31.256C18.9505 31.6107 19.2165 31.8907 19.5525 32.096C19.8885 32.292 20.2758 32.39 20.7145 32.39C21.1532 32.39 21.5638 32.292 21.9465 32.096C22.3385 31.8907 22.6838 31.6107 22.9825 31.256C23.2812 30.9013 23.5145 30.4907 23.6825 30.024C23.5145 29.5573 23.2812 29.1467 22.9825 28.792C22.6838 28.428 22.3385 28.148 21.9465 27.952C21.5638 27.7467 21.1532 27.644 20.7145 27.644C20.2758 27.644 19.8885 27.7467 19.5525 27.952C19.2165 28.148 18.9505 28.428 18.7545 28.792C18.5678 29.1467 18.4745 29.5573 18.4745 30.024ZM32.3298 34.21C31.3405 34.21 30.4725 34.0373 29.7258 33.692C28.9791 33.3373 28.3958 32.8473 27.9758 32.222C27.5558 31.5873 27.3458 30.8547 27.3458 30.024C27.3458 29.184 27.5558 28.4513 27.9758 27.826C28.3958 27.1913 28.9791 26.7013 29.7258 26.356C30.4725 26.0013 31.3405 25.824 32.3298 25.824C33.3191 25.824 34.1871 26.0013 34.9338 26.356C35.6805 26.7013 36.2591 27.1913 36.6698 27.826C37.0898 28.4513 37.2998 29.184 37.2998 30.024C37.2998 30.8547 37.0898 31.5873 36.6698 32.222C36.2591 32.8473 35.6805 33.3373 34.9338 33.692C34.1871 34.0373 33.3191 34.21 32.3298 34.21ZM32.3298 32.432C32.8711 32.432 33.3331 32.334 33.7158 32.138C34.1078 31.942 34.4065 31.6667 34.6118 31.312C34.8265 30.948 34.9338 30.5187 34.9338 30.024C34.9338 29.52 34.8265 29.0907 34.6118 28.736C34.4065 28.372 34.1078 28.092 33.7158 27.896C33.3331 27.7 32.8711 27.602 32.3298 27.602C31.7978 27.602 31.3358 27.7 30.9438 27.896C30.5518 28.092 30.2485 28.372 30.0338 28.736C29.8285 29.0907 29.7258 29.52 29.7258 30.024C29.7258 30.5187 29.8285 30.948 30.0338 31.312C30.2485 31.6667 30.5518 31.942 30.9438 32.138C31.3358 32.334 31.7978 32.432 32.3298 32.432ZM50.9663 31.494C50.9663 32.0633 50.7983 32.5533 50.4623 32.964C50.1356 33.3747 49.6456 33.6873 48.9923 33.902C48.339 34.1073 47.541 34.21 46.5983 34.21C45.6276 34.21 44.783 34.0933 44.0643 33.86C43.3456 33.6173 42.7856 33.2767 42.3843 32.838C41.983 32.3993 41.7683 31.8907 41.7403 31.312H44.1203C44.1763 31.5733 44.3163 31.802 44.5403 31.998C44.7643 32.1847 45.0536 32.3293 45.4083 32.432C45.7723 32.5347 46.1923 32.586 46.6683 32.586C47.331 32.586 47.8303 32.5113 48.1663 32.362C48.5116 32.2127 48.6843 31.9887 48.6843 31.69C48.6843 31.4753 48.563 31.312 48.3203 31.2C48.087 31.088 47.653 31.004 47.0183 30.948L45.5343 30.836C44.6476 30.7613 43.943 30.612 43.4203 30.388C42.8976 30.164 42.5243 29.884 42.3003 29.548C42.0856 29.2027 41.9783 28.8247 41.9783 28.414C41.9783 27.8447 42.1556 27.3687 42.5103 26.986C42.865 26.6033 43.3596 26.314 43.9943 26.118C44.6383 25.922 45.3803 25.824 46.2203 25.824C47.079 25.824 47.8443 25.9407 48.5163 26.174C49.1883 26.4073 49.725 26.7293 50.1263 27.14C50.537 27.5507 50.7703 28.0267 50.8263 28.568H48.4463C48.409 28.372 48.3016 28.19 48.1243 28.022C47.9563 27.8447 47.709 27.7 47.3823 27.588C47.0556 27.476 46.631 27.42 46.1083 27.42C45.5203 27.42 45.0676 27.49 44.7503 27.63C44.433 27.7607 44.2743 27.9613 44.2743 28.232C44.2743 28.4187 44.3723 28.5727 44.5683 28.694C44.7643 28.806 45.1283 28.8853 45.6603 28.932L47.5923 29.086C48.451 29.1607 49.1276 29.3053 49.6223 29.52C50.117 29.7253 50.4623 29.996 50.6583 30.332C50.8636 30.668 50.9663 31.0553 50.9663 31.494ZM56.8008 34.21C55.8581 34.21 55.0135 34.0373 54.2668 33.692C53.5295 33.3373 52.9461 32.8427 52.5168 32.208C52.0968 31.5733 51.8868 30.836 51.8868 29.996C51.8868 29.1653 52.0875 28.4373 52.4888 27.812C52.8995 27.1867 53.4595 26.7013 54.1688 26.356C54.8781 26.0013 55.6855 25.824 56.5908 25.824C57.5148 25.824 58.3081 26.0293 58.9708 26.44C59.6335 26.8413 60.1421 27.4107 60.4968 28.148C60.8608 28.8853 61.0428 29.7533 61.0428 30.752H53.7628V29.198H59.7828L58.8728 29.758C58.8355 29.2913 58.7188 28.8947 58.5228 28.568C58.3361 28.2413 58.0795 27.9893 57.7528 27.812C57.4261 27.6347 57.0435 27.546 56.6048 27.546C56.1288 27.546 55.7135 27.644 55.3588 27.84C55.0135 28.0267 54.7428 28.2927 54.5468 28.638C54.3601 28.974 54.2668 29.3707 54.2668 29.828C54.2668 30.3787 54.3881 30.85 54.6308 31.242C54.8735 31.634 55.2281 31.9327 55.6948 32.138C56.1615 32.3433 56.7261 32.446 57.3888 32.446C57.9861 32.446 58.5881 32.362 59.1948 32.194C59.8015 32.0167 60.3475 31.7693 60.8328 31.452V33.02C60.3101 33.3933 59.6988 33.6873 58.9988 33.902C58.3081 34.1073 57.5755 34.21 56.8008 34.21ZM65.7843 34.21C65.047 34.21 64.417 34.0607 63.8943 33.762C63.381 33.454 62.9843 33.02 62.7043 32.46C62.4337 31.9 62.2983 31.2373 62.2983 30.472V26.034H64.6363V30.122C64.6363 30.8313 64.8043 31.3727 65.1403 31.746C65.4763 32.11 65.9523 32.292 66.5683 32.292C67.0257 32.292 67.413 32.1987 67.7303 32.012C68.057 31.816 68.309 31.536 68.4863 31.172C68.6637 30.808 68.7523 30.3833 68.7523 29.898L69.5083 30.304C69.415 31.1253 69.1957 31.83 68.8503 32.418C68.505 32.9967 68.0663 33.44 67.5343 33.748C67.0117 34.056 66.4283 34.21 65.7843 34.21ZM69.2423 34L68.7523 30.976V26.034H71.0903V31.326L71.5803 34H69.2423ZM83.841 34L83.505 31.088L83.883 30.024L83.505 28.974L83.841 26.034H86.263L85.801 30.024L86.263 34H83.841ZM84.457 30.024C84.3077 30.864 84.0324 31.6013 83.631 32.236C83.239 32.8613 82.7397 33.3467 82.133 33.692C81.5357 34.0373 80.8637 34.21 80.117 34.21C79.3424 34.21 78.6564 34.0373 78.059 33.692C77.4617 33.3373 76.995 32.8473 76.659 32.222C76.3324 31.5873 76.169 30.8547 76.169 30.024C76.169 29.184 76.3324 28.4513 76.659 27.826C76.995 27.1913 77.4617 26.7013 78.059 26.356C78.6564 26.0013 79.3424 25.824 80.117 25.824C80.8637 25.824 81.5357 25.9967 82.133 26.342C82.7397 26.6873 83.2437 27.1773 83.645 27.812C84.0464 28.4373 84.317 29.1747 84.457 30.024ZM78.535 30.024C78.535 30.4907 78.6284 30.9013 78.815 31.256C79.011 31.6107 79.277 31.8907 79.613 32.096C79.949 32.292 80.3364 32.39 80.775 32.39C81.2137 32.39 81.6244 32.292 82.007 32.096C82.399 31.8907 82.7444 31.6107 83.043 31.256C83.3417 30.9013 83.575 30.4907 83.743 30.024C83.575 29.5573 83.3417 29.1467 83.043 28.792C82.7444 28.428 82.399 28.148 82.007 27.952C81.6244 27.7467 81.2137 27.644 80.775 27.644C80.3364 27.644 79.949 27.7467 79.613 27.952C79.277 28.148 79.011 28.428 78.815 28.792C78.6284 29.1467 78.535 29.5573 78.535 30.024ZM87.4483 26.034H89.7863L90.2903 29.072V34H87.9523V28.722L87.4483 26.034ZM93.1323 25.824C93.8417 25.824 94.4483 25.978 94.9523 26.286C95.4563 26.5847 95.839 27.014 96.1003 27.574C96.371 28.134 96.5063 28.8013 96.5063 29.576V34H94.1683V29.926C94.1683 29.2073 94.0097 28.666 93.6923 28.302C93.3843 27.9287 92.9317 27.742 92.3343 27.742C91.9143 27.742 91.5503 27.8447 91.2423 28.05C90.9343 28.246 90.6963 28.5213 90.5283 28.876C90.3697 29.2307 90.2903 29.6553 90.2903 30.15L89.5203 29.744C89.6137 28.904 89.8283 28.1947 90.1643 27.616C90.5003 27.0373 90.9203 26.594 91.4243 26.286C91.9377 25.978 92.507 25.824 93.1323 25.824ZM99.3343 25.824C100.044 25.824 100.65 25.978 101.154 26.286C101.668 26.5847 102.055 27.014 102.316 27.574C102.587 28.134 102.722 28.8013 102.722 29.576V34H100.384V29.926C100.384 29.2073 100.226 28.666 99.9083 28.302C99.6003 27.9287 99.1477 27.742 98.5503 27.742C98.1303 27.742 97.7663 27.8447 97.4583 28.05C97.1503 28.246 96.9123 28.5213 96.7443 28.876C96.5857 29.2307 96.5063 29.6553 96.5063 30.15L95.7363 29.744C95.8297 28.904 96.0443 28.1947 96.3803 27.616C96.7163 27.0373 97.1363 26.594 97.6403 26.286C98.1537 25.978 98.7183 25.824 99.3343 25.824ZM104.369 23.22H106.707V28.568L106.385 29.198V30.934L106.707 31.578V34H104.369V23.22ZM105.881 30.024C106.031 29.1747 106.306 28.4373 106.707 27.812C107.109 27.1773 107.608 26.6873 108.205 26.342C108.803 25.9967 109.475 25.824 110.221 25.824C110.996 25.824 111.682 26.0013 112.279 26.356C112.877 26.7013 113.343 27.1913 113.679 27.826C114.015 28.4513 114.183 29.184 114.183 30.024C114.183 30.8547 114.015 31.5873 113.679 32.222C113.343 32.8473 112.877 33.3373 112.279 33.692C111.682 34.0373 110.996 34.21 110.221 34.21C109.475 34.21 108.803 34.0373 108.205 33.692C107.608 33.3467 107.109 32.8613 106.707 32.236C106.315 31.6013 106.04 30.864 105.881 30.024ZM111.803 30.024C111.803 29.5573 111.705 29.1467 111.509 28.792C111.323 28.428 111.061 28.148 110.725 27.952C110.389 27.7467 110.007 27.644 109.577 27.644C109.139 27.644 108.723 27.7467 108.331 27.952C107.939 28.148 107.594 28.428 107.295 28.792C107.006 29.1467 106.777 29.5573 106.609 30.024C106.777 30.4907 107.006 30.9013 107.295 31.256C107.594 31.6107 107.939 31.8907 108.331 32.096C108.723 32.292 109.139 32.39 109.577 32.39C110.007 32.39 110.389 32.292 110.725 32.096C111.061 31.8907 111.323 31.6107 111.509 31.256C111.705 30.9013 111.803 30.4907 111.803 30.024ZM115.553 25.95L116.715 26.174L117.891 25.95V34H115.553V25.95ZM116.715 25.124C116.295 25.124 115.95 25.0167 115.679 24.802C115.418 24.578 115.287 24.284 115.287 23.92C115.287 23.5467 115.418 23.2527 115.679 23.038C115.95 22.814 116.295 22.702 116.715 22.702C117.144 22.702 117.49 22.814 117.751 23.038C118.012 23.2527 118.143 23.5467 118.143 23.92C118.143 24.284 118.012 24.578 117.751 24.802C117.49 25.0167 117.144 25.124 116.715 25.124ZM124.148 34.21C123.206 34.21 122.361 34.0373 121.614 33.692C120.877 33.3373 120.294 32.8427 119.864 32.208C119.444 31.5733 119.234 30.836 119.234 29.996C119.234 29.1653 119.435 28.4373 119.836 27.812C120.247 27.1867 120.807 26.7013 121.516 26.356C122.226 26.0013 123.033 25.824 123.938 25.824C124.862 25.824 125.656 26.0293 126.318 26.44C126.981 26.8413 127.49 27.4107 127.844 28.148C128.208 28.8853 128.39 29.7533 128.39 30.752H121.11V29.198H127.13L126.22 29.758C126.183 29.2913 126.066 28.8947 125.87 28.568C125.684 28.2413 125.427 27.9893 125.1 27.812C124.774 27.6347 124.391 27.546 123.952 27.546C123.476 27.546 123.061 27.644 122.706 27.84C122.361 28.0267 122.09 28.2927 121.894 28.638C121.708 28.974 121.614 29.3707 121.614 29.828C121.614 30.3787 121.736 30.85 121.978 31.242C122.221 31.634 122.576 31.9327 123.042 32.138C123.509 32.3433 124.074 32.446 124.736 32.446C125.334 32.446 125.936 32.362 126.542 32.194C127.149 32.0167 127.695 31.7693 128.18 31.452V33.02C127.658 33.3933 127.046 33.6873 126.346 33.902C125.656 34.1073 124.923 34.21 124.148 34.21ZM129.353 26.034H131.691L132.195 29.072V34H129.857V28.722L129.353 26.034ZM135.233 25.824C135.989 25.824 136.633 25.978 137.165 26.286C137.697 26.5847 138.103 27.014 138.383 27.574C138.663 28.134 138.803 28.8013 138.803 29.576V34H136.465V29.926C136.465 29.2073 136.292 28.666 135.947 28.302C135.601 27.9287 135.097 27.742 134.435 27.742C133.987 27.742 133.59 27.8447 133.245 28.05C132.909 28.246 132.647 28.5213 132.461 28.876C132.283 29.2307 132.195 29.6553 132.195 30.15L131.425 29.744C131.518 28.904 131.742 28.1947 132.097 27.616C132.451 27.0373 132.899 26.594 133.441 26.286C133.982 25.978 134.579 25.824 135.233 25.824ZM139.514 27.798V26.762L141.18 26.216L142.174 23.934H143.518V26.034H147.046V27.798H143.518V30.696C143.518 31.312 143.644 31.746 143.896 31.998C144.158 32.2407 144.606 32.362 145.24 32.362C145.642 32.362 145.996 32.3247 146.304 32.25C146.612 32.1753 146.906 32.068 147.186 31.928V33.748C146.916 33.86 146.556 33.9627 146.108 34.056C145.66 34.1587 145.198 34.21 144.722 34.21C143.892 34.21 143.215 34.0793 142.692 33.818C142.179 33.5473 141.796 33.174 141.544 32.698C141.302 32.222 141.18 31.6667 141.18 31.032V27.798H139.514ZM152.668 34.21C151.725 34.21 150.881 34.0373 150.134 33.692C149.397 33.3373 148.813 32.8427 148.384 32.208C147.964 31.5733 147.754 30.836 147.754 29.996C147.754 29.1653 147.955 28.4373 148.356 27.812C148.767 27.1867 149.327 26.7013 150.036 26.356C150.745 26.0013 151.553 25.824 152.458 25.824C153.382 25.824 154.175 26.0293 154.838 26.44C155.501 26.8413 156.009 27.4107 156.364 28.148C156.728 28.8853 156.91 29.7533 156.91 30.752H149.63V29.198H155.65L154.74 29.758C154.703 29.2913 154.586 28.8947 154.39 28.568C154.203 28.2413 153.947 27.9893 153.62 27.812C153.293 27.6347 152.911 27.546 152.472 27.546C151.996 27.546 151.581 27.644 151.226 27.84C150.881 28.0267 150.61 28.2927 150.414 28.638C150.227 28.974 150.134 29.3707 150.134 29.828C150.134 30.3787 150.255 30.85 150.498 31.242C150.741 31.634 151.095 31.9327 151.562 32.138C152.029 32.3433 152.593 32.446 153.256 32.446C153.853 32.446 154.455 32.362 155.062 32.194C155.669 32.0167 156.215 31.7693 156.7 31.452V33.02C156.177 33.3933 155.566 33.6873 154.866 33.902C154.175 34.1073 153.443 34.21 152.668 34.21Z" fill="#7F0BA4"/>
<path d="M149.451 168.128L124.041 153.415C123.931 153.358 123.809 153.328 123.685 153.328C123.562 153.328 123.44 153.358 123.33 153.415L100.11 166.79C100.067 166.805 100.03 166.832 100.004 166.869C99.9773 166.906 99.9631 166.95 99.9631 166.995C99.9631 167.041 99.9773 167.085 100.004 167.121C100.03 167.158 100.067 167.186 100.11 167.2L125.523 181.914C125.633 181.97 125.754 182 125.878 182C126.001 182 126.122 181.97 126.232 181.914L149.455 168.538C149.648 168.427 149.648 168.243 149.451 168.128Z" fill="#E0E0E0"/>
<path d="M128.603 136.258L103.189 121.545C103.079 121.49 102.958 121.461 102.835 121.461C102.712 121.461 102.591 121.49 102.481 121.545L33.5631 161.258C33.3663 161.37 33.3663 161.554 33.5631 161.668L58.9732 176.369C59.0829 176.425 59.2043 176.454 59.3274 176.454C59.4505 176.454 59.5718 176.425 59.6815 176.369L128.603 136.668C128.646 136.654 128.683 136.626 128.709 136.589C128.735 136.552 128.75 136.508 128.75 136.463C128.75 136.418 128.735 136.374 128.709 136.337C128.683 136.3 128.646 136.273 128.603 136.258Z" fill="#E0E0E0"/>
<path d="M39.918 143.403C48.7178 143.403 55.8514 139.285 55.8514 134.205C55.8514 129.125 48.7178 125.007 39.918 125.007C31.1182 125.007 23.9846 129.125 23.9846 134.205C23.9846 139.285 31.1182 143.403 39.918 143.403Z" fill="#E0E0E0"/>
<path d="M38.0097 162.642C36.27 163.492 34.3371 163.869 32.4056 163.734C29.0641 163.547 27.9722 161.695 27.9722 161.695C27.9722 161.695 29.897 158.937 31.9072 158.484C31.9072 158.484 28.6575 158.448 25.8014 159.573C25.8014 159.573 23.8339 159.179 23.683 155.995C23.683 155.995 25.2439 154.435 29.3789 154.303C29.3789 154.303 27.1229 153.188 23.4929 153.32C23.2141 153.366 22.9518 149.234 23.0075 147.365C23.0633 145.496 23.7814 145.673 25.2636 145.601C26.7458 145.528 31.5661 146.322 32.2777 147.283C32.9893 148.243 32.8647 150.972 32.8647 150.972C33.605 150.002 34.1254 148.883 34.3895 147.693C34.3895 147.693 35.3306 147.558 37.2653 148.676C40.8297 150.732 41.1019 153.133 41.138 154.956C41.1872 156.979 40.5674 160.75 38.0097 162.642Z" fill="#858585"/>
<path d="M37.9702 162.826C37.9366 162.818 37.9057 162.801 37.8809 162.776C37.8561 162.752 37.8382 162.722 37.8292 162.688C36.3897 156.704 28.0508 148.316 24.7126 146.893C24.69 146.883 24.6696 146.869 24.6524 146.851C24.6352 146.834 24.6217 146.813 24.6125 146.79C24.6034 146.767 24.5988 146.743 24.5991 146.718C24.5994 146.694 24.6046 146.669 24.6143 146.647C24.624 146.624 24.638 146.604 24.6556 146.586C24.6732 146.569 24.694 146.556 24.7169 146.546C24.7397 146.537 24.7641 146.533 24.7887 146.533C24.8133 146.533 24.8376 146.539 24.8602 146.548C28.2607 147.998 36.7307 156.523 38.1899 162.596C38.1963 162.62 38.1978 162.644 38.1944 162.668C38.1911 162.693 38.1828 162.716 38.1703 162.737C38.1577 162.757 38.1411 162.775 38.1214 162.79C38.1016 162.804 38.0792 162.814 38.0555 162.819C38.0283 162.83 37.9987 162.832 37.9702 162.826Z" fill="white"/>
<path d="M124.012 132.969C123.812 132.454 123.665 131.92 123.573 131.376C123.337 130.157 123.44 128.897 123.871 127.732C124.091 127.153 124.428 126.626 124.861 126.182C125.293 125.739 125.813 125.389 126.386 125.155C126.787 125.055 127.159 124.864 127.475 124.598C127.772 124.242 127.995 123.831 128.131 123.388C128.335 122.663 128.603 121.957 128.931 121.279C129.41 120.514 130.147 119.945 131.008 119.674C131.869 119.403 132.799 119.448 133.63 119.8C134.004 119.974 134.345 120.207 134.728 120.348C135.951 120.797 137.296 119.626 138.411 119.239C139.739 118.78 141.29 118.551 142.582 119.239C144.198 120.105 144.33 121.912 143.08 123.22C142.493 123.834 141.769 124.394 141.559 125.217C141.264 126.408 142.215 127.608 142.047 128.824C141.883 130.116 141.142 130.592 139.949 130.959L138.608 131.376C138.059 131.49 137.555 131.757 137.152 132.146C136.591 132.802 136.604 133.845 136.384 134.638C136.254 135.054 136.037 135.438 135.749 135.765C135.461 136.092 135.108 136.355 134.712 136.537C133.23 137.28 131.559 137.562 129.914 137.347C128.906 137.262 127.921 136.99 127.012 136.543C125.701 135.848 124.638 134.451 124.061 133.11L124.012 132.969Z" fill="#858585"/>
<path d="M125.507 134.396C125.894 134.615 126.55 133.189 126.74 132.923C127.222 132.238 127.724 131.576 128.265 130.93C129.228 129.766 130.27 128.67 131.384 127.65C133.058 126.097 134.896 124.73 136.866 123.574C137.672 123.084 138.516 122.661 139.391 122.309C139.44 122.29 139.479 122.253 139.501 122.206C139.522 122.159 139.524 122.105 139.506 122.056C139.498 122.032 139.484 122.01 139.467 121.991C139.45 121.972 139.429 121.956 139.406 121.946C139.383 121.935 139.357 121.929 139.332 121.928C139.306 121.928 139.281 121.932 139.257 121.941C136.417 123.014 133.774 124.978 131.528 126.972C130.346 128.021 129.24 129.153 128.219 130.359C127.819 130.828 125.088 134.032 125.481 134.36L125.507 134.396Z" fill="white"/>
<path d="M130.783 128.08H130.829C133.59 127.782 137.86 128.628 137.902 128.634C137.953 128.644 138.006 128.633 138.049 128.604C138.092 128.575 138.121 128.531 138.132 128.48C138.137 128.455 138.137 128.429 138.132 128.404C138.127 128.378 138.117 128.354 138.103 128.333C138.089 128.312 138.07 128.293 138.049 128.279C138.027 128.265 138.003 128.255 137.978 128.251C137.801 128.214 133.61 127.388 130.786 127.69C130.735 127.69 130.686 127.71 130.65 127.746C130.613 127.783 130.593 127.832 130.593 127.883C130.593 127.935 130.613 127.984 130.65 128.02C130.686 128.056 130.735 128.077 130.786 128.077L130.783 128.08Z" fill="white"/>
<path d="M132.21 126.795C132.235 126.796 132.261 126.793 132.285 126.785C132.31 126.776 132.332 126.763 132.352 126.746C132.371 126.729 132.386 126.708 132.397 126.685C132.409 126.662 132.415 126.637 132.416 126.611C132.49 125.2 132.362 123.785 132.036 122.41C132.021 122.362 131.988 122.322 131.943 122.298C131.899 122.274 131.848 122.267 131.799 122.28C131.75 122.292 131.708 122.323 131.682 122.366C131.655 122.408 131.646 122.459 131.655 122.509C131.968 123.845 132.093 125.218 132.026 126.588C132.023 126.64 132.041 126.69 132.075 126.729C132.11 126.768 132.158 126.791 132.21 126.795Z" fill="white"/>
<path d="M126.425 136.501L104.796 148.988V135.845L126.425 123.355V136.501Z" fill="#7F0BA4"/>
<path d="M83.1667 136.501L104.796 148.988V135.845L83.1667 123.355V136.501Z" fill="#9648AF"/>
<path d="M126.425 123.355L104.796 110.868L83.1667 123.355L104.796 135.845L126.425 123.355Z" fill="black"/>
<path d="M108.6 125.801C109.652 126.408 110.177 127.205 110.177 128.001V130.133C110.177 130.93 109.652 131.726 108.6 132.333C107.427 132.956 106.114 133.27 104.786 133.245V124.886C106.115 124.86 107.428 125.175 108.6 125.801Z" fill="#7F0BA4"/>
<path d="M100.982 125.801C99.9297 126.408 99.405 127.205 99.405 128.001V130.133C99.405 130.93 99.9297 131.726 100.982 132.333C102.155 132.956 103.468 133.27 104.796 133.245V124.886C103.467 124.86 102.154 125.175 100.982 125.801Z" fill="#9648AF"/>
<path d="M100.982 125.801C98.8773 127.014 98.8773 128.985 100.982 130.202C103.088 131.418 106.501 131.418 108.61 130.202C110.718 128.985 110.715 127.014 108.61 125.801C106.505 124.588 103.088 124.585 100.982 125.801Z" fill="#9648AF"/>
<path opacity="0.07" d="M100.982 125.801C98.8773 127.014 98.8773 128.985 100.982 130.202C103.088 131.418 106.501 131.418 108.61 130.202C110.718 128.985 110.715 127.014 108.61 125.801C106.505 124.588 103.088 124.585 100.982 125.801Z" fill="white"/>
<path d="M108.6 113.619C109.652 114.226 110.177 115.023 110.177 115.819V117.948C110.177 118.744 109.652 119.541 108.6 120.148C107.427 120.773 106.114 121.087 104.786 121.059V112.707C106.114 112.682 107.427 112.996 108.6 113.619Z" fill="#7F0BA4"/>
<path d="M100.982 113.619C99.9297 114.226 99.405 115.023 99.405 115.819V117.948C99.405 118.744 99.9297 119.541 100.982 120.148C102.155 120.773 103.468 121.087 104.796 121.059V112.707C103.468 112.682 102.155 112.996 100.982 113.619Z" fill="#9648AF"/>
<path d="M100.982 113.619C98.8773 114.836 98.8773 116.806 100.982 118.023C103.088 119.239 106.501 119.236 108.61 118.023C110.718 116.81 110.715 114.836 108.61 113.619C106.505 112.402 103.088 112.402 100.982 113.619Z" fill="#9648AF"/>
<path opacity="0.07" d="M100.982 113.619C98.8773 114.836 98.8773 116.806 100.982 118.023C103.088 119.239 106.501 119.236 108.61 118.023C110.718 116.81 110.715 114.836 108.61 113.619C106.505 112.402 103.088 112.402 100.982 113.619Z" fill="white"/>
<path d="M119.152 119.712C120.205 120.318 120.733 121.115 120.733 121.912V124.04C120.733 124.837 120.205 125.634 119.152 126.24C117.98 126.864 116.669 127.178 115.342 127.152V118.8C116.669 118.773 117.981 119.087 119.152 119.712Z" fill="#7F0BA4"/>
<path d="M111.528 119.712C110.476 120.318 109.951 121.115 109.951 121.912V124.04C109.951 124.837 110.476 125.634 111.528 126.24C112.701 126.864 114.014 127.178 115.342 127.152V118.8C114.014 118.773 112.701 119.087 111.528 119.712Z" fill="#9648AF"/>
<path d="M111.528 119.712C109.423 120.925 109.423 122.896 111.528 124.112C113.633 125.329 117.047 125.329 119.152 124.112C121.257 122.896 121.261 120.925 119.152 119.712C117.044 118.498 113.633 118.495 111.528 119.712Z" fill="#9648AF"/>
<path opacity="0.07" d="M111.528 119.712C109.423 120.925 109.423 122.896 111.528 124.112C113.633 125.329 117.047 125.329 119.152 124.112C121.257 122.896 121.261 120.925 119.152 119.712C117.044 118.498 113.633 118.495 111.528 119.712Z" fill="white"/>
<path d="M98.0641 119.705C99.1167 120.315 99.6414 121.112 99.6414 121.909V124.037C99.6414 124.83 99.1167 125.627 98.0641 126.237C96.8912 126.861 95.5786 127.174 94.2505 127.149V118.794C95.5786 118.768 96.8912 119.082 98.0641 119.705Z" fill="#7F0BA4"/>
<path d="M90.4369 119.705C89.3843 120.315 88.8596 121.112 88.8596 121.909V124.037C88.8596 124.83 89.3843 125.627 90.4369 126.237C91.6099 126.861 92.9225 127.174 94.2505 127.149V118.794C92.9225 118.768 91.6099 119.082 90.4369 119.705Z" fill="#9648AF"/>
<path d="M90.4366 119.705C88.3314 120.922 88.3314 122.892 90.4366 124.109C92.5418 125.326 95.9587 125.326 98.0639 124.109C100.169 122.892 100.169 120.922 98.0639 119.705C95.9587 118.489 92.532 118.492 90.4366 119.705Z" fill="#9648AF"/>
<path opacity="0.07" d="M90.4366 119.705C88.3314 120.922 88.3314 122.892 90.4366 124.109C92.5418 125.326 95.9587 125.326 98.0639 124.109C100.169 122.892 100.169 120.922 98.0639 119.705C95.9587 118.489 92.532 118.492 90.4366 119.705Z" fill="white"/>
<path d="M147.507 168.518L125.878 181.005V167.859L147.507 155.372V168.518Z" fill="#FFC100"/>
<path opacity="0.1" d="M147.507 168.518L125.878 181.005V167.859L147.507 155.372V168.518Z" fill="black"/>
<path d="M104.252 168.518L125.878 181.005V167.859L104.249 155.372L104.252 168.518Z" fill="#FFC100"/>
<path opacity="0.2" d="M104.252 168.518L125.878 181.005V167.859L104.249 155.372L104.252 168.518Z" fill="black"/>
<path d="M147.507 155.372L125.878 142.885L104.249 155.372L125.878 167.859L147.507 155.372Z" fill="#FFC100"/>
<path d="M131.269 147.84C131.269 147.043 130.744 146.246 129.691 145.64C127.586 144.423 124.173 144.423 122.067 145.64C121.015 146.246 120.487 147.043 120.487 147.84V149.968C120.487 150.765 121.015 151.559 122.067 152.169C124.173 153.385 127.586 153.385 129.691 152.169C130.744 151.559 131.272 150.765 131.269 149.968V147.84Z" fill="#FFC100"/>
<path opacity="0.1" d="M129.692 145.637C130.744 146.243 131.272 147.04 131.269 147.837V149.965C131.269 150.762 130.744 151.555 129.692 152.165C128.52 152.792 127.207 153.109 125.878 153.087V144.725C127.206 144.698 128.519 145.012 129.692 145.637Z" fill="black"/>
<path opacity="0.2" d="M122.067 145.636C121.015 146.243 120.487 147.04 120.487 147.837V149.965C120.487 150.762 121.015 151.555 122.067 152.165C123.238 152.792 124.55 153.109 125.878 153.087V144.725C124.551 144.698 123.239 145.012 122.067 145.636Z" fill="black"/>
<path d="M122.067 145.637C119.962 146.85 119.962 148.821 122.067 150.037C124.173 151.254 127.586 151.254 129.691 150.037C131.797 148.821 131.797 146.85 129.691 145.637C127.586 144.423 124.173 144.42 122.067 145.637Z" fill="#FFC100"/>
<path opacity="0.3" d="M122.067 145.637C119.962 146.85 119.962 148.821 122.067 150.037C124.173 151.254 127.586 151.254 129.691 150.037C131.797 148.821 131.797 146.85 129.691 145.637C127.586 144.423 124.173 144.42 122.067 145.637Z" fill="white"/>
<path d="M131.269 160.016C131.269 159.222 130.744 158.425 129.691 157.815C127.586 156.599 124.173 156.599 122.067 157.815C121.015 158.425 120.487 159.219 120.487 160.016V162.144C120.487 162.941 121.015 163.737 122.067 164.344C124.173 165.561 127.586 165.561 129.691 164.344C130.744 163.737 131.272 162.941 131.269 162.144V160.016Z" fill="#FFC100"/>
<path opacity="0.1" d="M129.692 157.815C130.744 158.425 131.272 159.219 131.269 160.016V162.144C131.269 162.941 130.744 163.737 129.692 164.344C128.52 164.97 127.206 165.284 125.878 165.256V156.904C127.206 156.878 128.519 157.192 129.692 157.815Z" fill="black"/>
<path opacity="0.2" d="M122.067 157.815C121.015 158.425 120.487 159.219 120.487 160.016V162.144C120.487 162.941 121.015 163.737 122.067 164.344C123.238 164.97 124.55 165.284 125.878 165.256V156.904C124.551 156.879 123.239 157.192 122.067 157.815Z" fill="black"/>
<path d="M122.067 157.815C119.962 159.032 119.962 161.003 122.067 162.219C124.173 163.436 127.586 163.432 129.691 162.219C131.797 161.006 131.797 159.032 129.691 157.815C127.586 156.599 124.173 156.599 122.067 157.815Z" fill="#FFC100"/>
<path opacity="0.3" d="M122.067 157.815C119.962 159.032 119.962 161.003 122.067 162.219C124.173 163.436 127.586 163.432 129.691 162.219C131.797 161.006 131.797 159.032 129.691 157.815C127.586 156.599 124.173 156.599 122.067 157.815Z" fill="white"/>
<path d="M120.733 153.923C120.733 153.126 120.205 152.329 119.152 151.723C117.047 150.506 113.634 150.506 111.528 151.723C110.476 152.329 109.948 153.126 109.948 153.923V156.038C109.948 156.835 110.476 157.632 111.528 158.238C113.634 159.455 117.047 159.455 119.152 158.238C120.205 157.632 120.733 156.835 120.733 156.038C120.733 155.461 120.733 154.513 120.733 153.923Z" fill="#FFC100"/>
<path opacity="0.1" d="M119.146 151.723C120.198 152.329 120.726 153.126 120.726 153.923C120.726 154.513 120.726 155.461 120.726 156.051C120.726 156.848 120.198 157.645 119.146 158.252C117.973 158.876 116.66 159.19 115.332 159.163V150.811C116.66 150.786 117.973 151.099 119.146 151.723Z" fill="black"/>
<path opacity="0.2" d="M111.522 151.723C110.469 152.329 109.941 153.126 109.941 153.923V156.038C109.941 156.835 110.469 157.632 111.522 158.238C112.693 158.863 114.005 159.177 115.332 159.15V150.811C114.005 150.786 112.694 151.1 111.522 151.723Z" fill="black"/>
<path d="M111.522 151.723C109.416 152.939 109.416 154.91 111.522 156.123C113.627 157.337 117.04 157.34 119.146 156.123C121.251 154.907 121.251 152.939 119.146 151.723C117.04 150.506 113.627 150.506 111.522 151.723Z" fill="#FFC100"/>
<path opacity="0.3" d="M111.522 151.723C109.416 152.939 109.416 154.91 111.522 156.123C113.627 157.337 117.04 157.34 119.146 156.123C121.251 154.907 121.251 152.939 119.146 151.723C117.04 150.506 113.627 150.506 111.522 151.723Z" fill="white"/>
<path d="M141.814 153.926C141.814 153.129 141.29 152.333 140.237 151.726C138.132 150.509 134.718 150.509 132.613 151.726C131.557 152.333 131.032 153.129 131.032 153.926V156.054C131.032 156.851 131.557 157.648 132.61 158.255C134.718 159.471 138.132 159.471 140.237 158.255C141.29 157.648 141.814 156.851 141.814 156.054V153.926Z" fill="#FFC100"/>
<path opacity="0.1" d="M140.237 151.726C141.29 152.333 141.815 153.129 141.815 153.926V156.054C141.815 156.851 141.29 157.648 140.237 158.255C139.065 158.88 137.752 159.193 136.424 159.166V150.814C137.752 150.789 139.064 151.103 140.237 151.726Z" fill="black"/>
<path opacity="0.2" d="M132.613 151.726C131.557 152.333 131.032 153.129 131.032 153.926V156.054C131.032 156.851 131.557 157.648 132.61 158.255C133.782 158.879 135.095 159.193 136.423 159.166V150.814C135.096 150.789 133.785 151.103 132.613 151.726Z" fill="black"/>
<path d="M132.613 151.726C130.505 152.943 130.505 154.913 132.613 156.13C134.722 157.346 138.135 157.343 140.24 156.13C142.346 154.917 142.346 152.943 140.24 151.726C138.135 150.509 134.718 150.509 132.613 151.726Z" fill="#FFC100"/>
<path opacity="0.3" d="M132.613 151.726C130.505 152.943 130.505 154.913 132.613 156.13C134.722 157.346 138.135 157.343 140.24 156.13C142.346 154.917 142.346 152.943 140.24 151.726C138.135 150.509 134.718 150.509 132.613 151.726Z" fill="white"/>
<path d="M126.425 122.404L104.796 134.891V121.745L126.425 109.258V122.404Z" fill="#FFC100"/>
<path opacity="0.3" d="M126.425 122.404L104.796 134.891V121.745L126.425 109.258V122.404Z" fill="black"/>
<path d="M83.1667 122.404L104.796 134.891V121.745L83.1667 109.258V122.404Z" fill="#FFC100"/>
<path opacity="0.4" d="M83.1667 122.404L104.796 134.891V121.745L83.1667 109.258V122.404Z" fill="black"/>
<path d="M126.425 109.258L104.796 96.7706L83.1667 109.258L104.796 121.745L126.425 109.258Z" fill="#FFC100"/>
<path opacity="0.55" d="M126.425 109.258L104.796 96.7706L83.1667 109.258L104.796 121.745L126.425 109.258Z" fill="black"/>
<path d="M110.187 101.722C110.187 100.925 109.662 100.129 108.61 99.5219C106.504 98.3054 103.088 98.3054 100.982 99.5219C99.9297 100.129 99.405 100.925 99.405 101.722V103.85C99.405 104.647 99.9297 105.444 100.982 106.051C103.088 107.267 106.501 107.267 108.61 106.051C109.662 105.444 110.187 104.647 110.187 103.85V101.722Z" fill="#FFC100"/>
<path opacity="0.3" d="M108.6 99.5219C109.652 100.129 110.177 100.925 110.177 101.722V103.85C110.177 104.647 109.652 105.444 108.6 106.051C107.427 106.674 106.114 106.988 104.786 106.962V98.6103C106.114 98.5832 107.427 98.897 108.6 99.5219Z" fill="black"/>
<path opacity="0.4" d="M100.982 99.5219C99.9297 100.129 99.405 100.925 99.405 101.722V103.85C99.405 104.647 99.9297 105.444 100.982 106.051C102.155 106.674 103.468 106.988 104.796 106.962V98.6103C103.468 98.5832 102.155 98.897 100.982 99.5219Z" fill="black"/>
<path d="M100.982 99.5219C98.8773 100.735 98.8773 102.706 100.982 103.923C103.088 105.139 106.501 105.139 108.61 103.923C110.718 102.706 110.715 100.735 108.61 99.5219C106.505 98.3086 103.088 98.3053 100.982 99.5219Z" fill="#FFC100"/>
<path opacity="0.3" d="M100.982 99.5219C98.8773 100.735 98.8773 102.706 100.982 103.923C103.088 105.139 106.501 105.139 108.61 103.923C110.718 102.706 110.715 100.735 108.61 99.5219C106.505 98.3086 103.088 98.3053 100.982 99.5219Z" fill="white"/>
<path d="M110.187 113.904C110.187 113.107 109.662 112.311 108.61 111.701C106.504 110.487 103.088 110.487 100.982 111.701C99.9297 112.311 99.405 113.107 99.405 113.901V116.032C99.405 116.829 99.9297 117.626 100.982 118.236C103.088 119.449 106.501 119.449 108.61 118.236C109.662 117.626 110.187 116.829 110.187 116.032V113.904Z" fill="#FFC100"/>
<path opacity="0.3" d="M108.6 111.701C109.652 112.311 110.177 113.107 110.177 113.901V116.032C110.177 116.829 109.652 117.626 108.6 118.236C107.427 118.859 106.114 119.173 104.786 119.148V110.786C106.114 110.761 107.427 111.076 108.6 111.701Z" fill="black"/>
<path opacity="0.4" d="M100.982 111.701C99.9297 112.311 99.405 113.107 99.405 113.901V116.032C99.405 116.829 99.9297 117.626 100.982 118.236C102.155 118.859 103.468 119.173 104.796 119.148V110.786C103.468 110.761 102.155 111.076 100.982 111.701Z" fill="black"/>
<path d="M100.982 111.701C98.8773 112.917 98.8773 114.888 100.982 116.105C103.088 117.321 106.501 117.321 108.61 116.105C110.718 114.888 110.715 112.917 108.61 111.701C106.505 110.484 103.088 110.487 100.982 111.701Z" fill="#FFC100"/>
<path opacity="0.3" d="M100.982 111.701C98.8773 112.917 98.8773 114.888 100.982 116.105C103.088 117.321 106.501 117.321 108.61 116.105C110.718 114.888 110.715 112.917 108.61 111.701C106.505 110.484 103.088 110.487 100.982 111.701Z" fill="white"/>
<path d="M99.6415 107.808C99.6415 107.011 99.1168 106.215 98.0642 105.608C95.959 104.391 92.5454 104.391 90.4369 105.608C89.3843 106.215 88.8596 107.011 88.8596 107.808V109.936C88.8596 110.733 89.3843 111.53 90.4369 112.137C92.5421 113.353 95.959 113.353 98.0642 112.137C99.1168 111.53 99.6415 110.733 99.6415 109.936V107.808Z" fill="#FFC100"/>
<path opacity="0.3" d="M98.0641 105.608C99.1167 106.215 99.6414 107.011 99.6414 107.808V109.936C99.6414 110.733 99.1167 111.53 98.0641 112.137C96.8917 112.762 95.5787 113.075 94.2505 113.048V104.696C95.5786 104.671 96.8912 104.985 98.0641 105.608Z" fill="black"/>
<path opacity="0.4" d="M90.4369 105.608C89.3843 106.215 88.8596 107.011 88.8596 107.808V109.936C88.8596 110.733 89.3843 111.53 90.4369 112.137C91.6093 112.762 92.9223 113.075 94.2505 113.048V104.696C92.9225 104.671 91.6099 104.985 90.4369 105.608Z" fill="black"/>
<path d="M90.4366 105.608C88.3314 106.824 88.3314 108.795 90.4366 110.012C92.5418 111.228 95.9587 111.225 98.0639 110.012C100.169 108.799 100.169 106.824 98.0639 105.608C95.9587 104.391 92.532 104.391 90.4366 105.608Z" fill="#FFC100"/>
<path opacity="0.3" d="M90.4366 105.608C88.3314 106.824 88.3314 108.795 90.4366 110.012C92.5418 111.228 95.9587 111.225 98.0639 110.012C100.169 108.799 100.169 106.824 98.0639 105.608C95.9587 104.391 92.532 104.391 90.4366 105.608Z" fill="white"/>
<path d="M120.733 107.812C120.733 107.018 120.208 106.221 119.152 105.611C117.047 104.395 113.633 104.395 111.528 105.611C110.476 106.221 109.951 107.015 109.951 107.812V109.94C109.951 110.737 110.476 111.533 111.528 112.14C113.633 113.357 117.047 113.357 119.152 112.14C120.208 111.533 120.733 110.737 120.733 109.94V107.812Z" fill="#FFC100"/>
<path opacity="0.3" d="M119.152 105.611C120.205 106.221 120.733 107.015 120.733 107.812V109.94C120.733 110.737 120.205 111.533 119.152 112.14C117.981 112.765 116.669 113.079 115.342 113.052V104.7C116.669 104.674 117.98 104.988 119.152 105.611Z" fill="black"/>
<path opacity="0.4" d="M111.528 105.611C110.476 106.221 109.951 107.015 109.951 107.812V109.94C109.951 110.737 110.476 111.533 111.528 112.14C112.701 112.765 114.014 113.079 115.342 113.052V104.7C114.014 104.674 112.701 104.988 111.528 105.611Z" fill="black"/>
<path d="M111.528 105.611C109.423 106.828 109.423 108.799 111.528 110.015C113.633 111.232 117.047 111.228 119.152 110.015C121.257 108.802 121.261 106.828 119.152 105.611C117.044 104.395 113.633 104.395 111.528 105.611Z" fill="#FFC100"/>
<path opacity="0.3" d="M111.528 105.611C109.423 106.828 109.423 108.799 111.528 110.015C113.633 111.232 117.047 111.228 119.152 110.015C121.257 108.802 121.261 106.828 119.152 105.611C117.044 104.395 113.633 104.395 111.528 105.611Z" fill="white"/>
<path d="M103.658 149.644L82.0291 162.134V148.988L103.658 136.501V149.644Z" fill="#FFC100"/>
<path opacity="0.3" d="M103.658 149.644L82.0291 162.134V148.988L103.658 136.501V149.644Z" fill="black"/>
<path d="M60.3999 149.644L82.0292 162.134V148.988L60.3999 136.501V149.644Z" fill="#FFC100"/>
<path opacity="0.4" d="M60.3999 149.644L82.0292 162.134V148.988L60.3999 136.501V149.644Z" fill="black"/>
<path d="M103.658 136.501L82.0292 124.014L60.3999 136.501L82.0292 148.988L103.658 136.501Z" fill="#FFC100"/>
<path opacity="0.55" d="M103.658 136.501L82.0292 124.014L60.3999 136.501L82.0292 148.988L103.658 136.501Z" fill="black"/>
<path d="M87.42 128.965C87.42 128.168 86.8954 127.372 85.8428 126.765C83.7375 125.548 80.3239 125.548 78.2155 126.765C77.1628 127.372 76.6382 128.168 76.6382 128.965V131.093C76.6382 131.89 77.1628 132.687 78.2155 133.294C80.3207 134.51 83.7375 134.51 85.8428 133.294C86.8954 132.687 87.42 131.89 87.42 131.093V128.965Z" fill="#FFC100"/>
<path opacity="0.3" d="M85.8426 126.765C86.8952 127.372 87.4199 128.168 87.4199 128.965V131.093C87.4199 131.89 86.8952 132.687 85.8426 133.294C84.6726 133.915 83.3636 134.229 82.0388 134.205V125.87C83.3623 125.839 84.6716 126.147 85.8426 126.765Z" fill="black"/>
<path opacity="0.4" d="M78.2155 126.765C77.1628 127.372 76.6382 128.169 76.6382 128.965V131.094C76.6382 131.89 77.1628 132.687 78.2155 133.294C79.3914 133.919 80.7076 134.233 82.0389 134.205V125.87C80.7088 125.836 79.3923 126.144 78.2155 126.765Z" fill="black"/>
<path d="M78.2154 126.765C76.1102 127.978 76.1102 129.949 78.2154 131.166C80.3206 132.382 83.7375 132.382 85.8427 131.166C87.9479 129.949 87.9479 127.978 85.8427 126.765C83.7375 125.552 80.3239 125.542 78.2154 126.765Z" fill="#FFC100"/>
<path opacity="0.3" d="M78.2154 126.765C76.1102 127.978 76.1102 129.949 78.2154 131.166C80.3206 132.382 83.7375 132.382 85.8427 131.166C87.9479 129.949 87.9479 127.978 85.8427 126.765C83.7375 125.552 80.3239 125.542 78.2154 126.765Z" fill="white"/>
<path d="M87.42 141.144C87.42 140.35 86.8954 139.554 85.8428 138.944C83.7375 137.727 80.3239 137.727 78.2155 138.944C77.1628 139.554 76.6382 140.347 76.6382 141.144V143.272C76.6382 144.069 77.1628 144.866 78.2155 145.473C80.3207 146.689 83.7375 146.689 85.8428 145.473C86.8954 144.866 87.42 144.069 87.42 143.272V141.144Z" fill="#FFC100"/>
<path opacity="0.3" d="M85.8426 138.944C86.8952 139.554 87.4199 140.347 87.4199 141.144V143.272C87.4199 144.069 86.8952 144.866 85.8426 145.473C84.6734 146.097 83.364 146.412 82.0388 146.387V138.032C83.3636 138.008 84.6726 138.322 85.8426 138.944Z" fill="black"/>
<path opacity="0.4" d="M78.2155 138.944C77.1628 139.554 76.6382 140.347 76.6382 141.144V143.272C76.6382 144.069 77.1628 144.866 78.2155 145.473C79.3905 146.1 80.7071 146.415 82.0389 146.387V138.032C80.7076 138.005 79.3914 138.319 78.2155 138.944Z" fill="black"/>
<path d="M78.2154 138.944C76.1102 140.16 76.1102 142.131 78.2154 143.348C80.3206 144.564 83.7375 144.561 85.8427 143.348C87.9479 142.134 87.9479 140.16 85.8427 138.944C83.7375 137.727 80.3239 137.727 78.2154 138.944Z" fill="#FFC100"/>
<path opacity="0.3" d="M78.2154 138.944C76.1102 140.16 76.1102 142.131 78.2154 143.348C80.3206 144.564 83.7375 144.561 85.8427 143.348C87.9479 142.134 87.9479 140.16 85.8427 138.944C83.7375 137.727 80.3239 137.727 78.2154 138.944Z" fill="white"/>
<path d="M76.8744 135.051C76.8744 134.255 76.3497 133.458 75.2971 132.851C73.1919 131.635 69.7783 131.635 67.6698 132.851C66.6172 133.458 66.0925 134.255 66.0925 135.051V137.18C66.0925 137.976 66.6172 138.773 67.6698 139.38C69.775 140.596 73.1919 140.596 75.2971 139.38C76.3497 138.773 76.8744 137.976 76.8744 137.18V135.051Z" fill="#FFC100"/>
<path opacity="0.3" d="M75.2968 132.851C76.3494 133.458 76.8741 134.255 76.8741 135.051V137.18C76.8741 137.976 76.3494 138.773 75.2968 139.38C74.125 140.007 72.812 140.323 71.4832 140.298V131.939C72.8112 131.914 74.1238 132.228 75.2968 132.851Z" fill="black"/>
<path opacity="0.4" d="M67.6698 132.851C66.6172 133.458 66.0925 134.255 66.0925 135.051V137.18C66.0925 137.976 66.6172 138.773 67.6698 139.38C68.8416 140.007 70.1546 140.323 71.4835 140.298V131.94C70.1554 131.914 68.8429 132.228 67.6698 132.851Z" fill="black"/>
<path d="M67.6697 132.851C65.5645 134.068 65.5645 136.038 67.6697 137.252C69.7749 138.465 73.1918 138.468 75.297 137.252C77.4023 136.035 77.4023 134.068 75.297 132.851C73.1918 131.635 69.7782 131.635 67.6697 132.851Z" fill="#FFC100"/>
<path opacity="0.3" d="M67.6697 132.851C65.5645 134.068 65.5645 136.038 67.6697 137.252C69.7749 138.465 73.1918 138.468 75.297 137.252C77.4023 136.035 77.4023 134.068 75.297 132.851C73.1918 131.635 69.7782 131.635 67.6697 132.851Z" fill="white"/>
<path d="M97.9657 135.051C97.9657 134.255 97.441 133.461 96.3851 132.851C94.2799 131.635 90.8663 131.635 88.7611 132.851C87.7085 133.458 87.1838 134.255 87.1838 135.051V137.18C87.1838 137.976 87.7085 138.773 88.7611 139.38C90.8663 140.596 94.2799 140.596 96.3851 139.38C97.441 138.773 97.9657 137.976 97.9657 137.18V135.051Z" fill="#FFC100"/>
<path opacity="0.3" d="M96.3851 132.854C97.4377 133.461 97.9656 134.258 97.9656 135.055V137.183C97.9656 137.98 97.441 138.777 96.3884 139.383C95.2161 140.009 93.9032 140.324 92.5747 140.298V131.943C93.9017 131.917 95.2133 132.231 96.3851 132.854Z" fill="black"/>
<path opacity="0.4" d="M88.7611 132.854C87.7085 133.461 87.1838 134.258 87.1838 135.055V137.183C87.1838 137.98 87.7085 138.777 88.7611 139.383C89.9332 140.009 91.2462 140.324 92.5748 140.298V131.943C91.2467 131.917 89.9341 132.231 88.7611 132.854Z" fill="black"/>
<path d="M88.7613 132.854C86.6561 134.071 86.6561 136.042 88.7613 137.258C90.8665 138.475 94.2801 138.472 96.3853 137.258C98.4905 136.045 98.4938 134.071 96.3853 132.854C94.2768 131.638 90.8665 131.638 88.7613 132.854Z" fill="#FFC100"/>
<path opacity="0.3" d="M88.7613 132.854C86.6561 134.071 86.6561 136.042 88.7613 137.258C90.8665 138.475 94.2801 138.472 96.3853 137.258C98.4905 136.045 98.4938 134.071 96.3853 132.854C94.2768 131.638 90.8665 131.638 88.7613 132.854Z" fill="white"/>
<path d="M103.658 135.547L82.0291 148.034V134.891L103.658 122.404V135.547Z" fill="#FFC100"/>
<path opacity="0.1" d="M103.658 135.547L82.0291 148.034V134.891L103.658 122.404V135.547Z" fill="black"/>
<path d="M60.3999 135.547L82.0292 148.034V134.891L60.3999 122.404V135.547Z" fill="#FFC100"/>
<path opacity="0.2" d="M60.3999 135.547L82.0292 148.034V134.891L60.3999 122.404V135.547Z" fill="black"/>
<path d="M103.658 122.404L82.0292 109.913L60.3999 122.404L82.0292 134.891L103.658 122.404Z" fill="#FFC100"/>
<path d="M87.42 114.865C87.42 114.068 86.8954 113.275 85.8428 112.665C83.7375 111.448 80.3239 111.448 78.2155 112.665C77.1628 113.275 76.6382 114.068 76.6382 114.865V116.993C76.6382 117.79 77.1628 118.587 78.2155 119.193C80.3207 120.41 83.7375 120.41 85.8428 119.193C86.8954 118.587 87.42 117.79 87.42 116.993V114.865Z" fill="#FFC100"/>
<path opacity="0.1" d="M85.8426 112.665C86.8952 113.275 87.4199 114.068 87.4199 114.865V116.993C87.4199 117.79 86.8952 118.587 85.8426 119.193C84.6732 119.817 83.3637 120.13 82.0388 120.105V111.769C83.3621 111.741 84.6711 112.049 85.8426 112.665Z" fill="black"/>
<path opacity="0.2" d="M78.2155 112.665C77.1628 113.275 76.6382 114.068 76.6382 114.865V116.993C76.6382 117.79 77.1628 118.587 78.2155 119.193C79.3908 119.82 80.7074 120.134 82.0389 120.105V111.77C80.709 111.737 79.3929 112.045 78.2155 112.665Z" fill="black"/>
<path d="M78.2154 112.665C76.1102 113.881 76.1102 115.852 78.2154 117.069C80.3206 118.285 83.7375 118.282 85.8427 117.069C87.9479 115.855 87.9479 113.881 85.8427 112.665C83.7375 111.448 80.3239 111.442 78.2154 112.665Z" fill="#FFC100"/>
<path opacity="0.3" d="M78.2154 112.665C76.1102 113.881 76.1102 115.852 78.2154 117.069C80.3206 118.285 83.7375 118.282 85.8427 117.069C87.9479 115.855 87.9479 113.881 85.8427 112.665C83.7375 111.448 80.3239 111.442 78.2154 112.665Z" fill="white"/>
<path d="M87.42 127.047C87.42 126.25 86.8954 125.453 85.8428 124.847C83.7375 123.63 80.3239 123.63 78.2155 124.847C77.1628 125.453 76.6382 126.25 76.6382 127.047V129.175C76.6382 129.972 77.1628 130.769 78.2155 131.376C80.3207 132.592 83.7375 132.592 85.8428 131.376C86.8954 130.769 87.42 129.972 87.42 129.175V127.047Z" fill="#FFC100"/>
<path opacity="0.1" d="M85.8426 124.847C86.8952 125.453 87.4199 126.25 87.4199 127.047V129.175C87.4199 129.972 86.8952 130.769 85.8426 131.376C84.6726 131.997 83.3636 132.311 82.0388 132.287V123.935C83.3637 123.91 84.6732 124.224 85.8426 124.847Z" fill="black"/>
<path opacity="0.2" d="M78.2155 124.847C77.1628 125.453 76.6382 126.25 76.6382 127.047V129.175C76.6382 129.972 77.1628 130.769 78.2155 131.375C79.3914 132 80.7076 132.314 82.0389 132.287V123.935C80.7074 123.906 79.3908 124.22 78.2155 124.847Z" fill="black"/>
<path d="M78.2154 124.847C76.1102 126.063 76.1102 128.034 78.2154 129.247C80.3206 130.461 83.7375 130.464 85.8427 129.247C87.9479 128.031 87.9479 126.063 85.8427 124.847C83.7375 123.63 80.3239 123.63 78.2154 124.847Z" fill="#FFC100"/>
<path opacity="0.3" d="M78.2154 124.847C76.1102 126.063 76.1102 128.034 78.2154 129.247C80.3206 130.461 83.7375 130.464 85.8427 129.247C87.9479 128.031 87.9479 126.063 85.8427 124.847C83.7375 123.63 80.3239 123.63 78.2154 124.847Z" fill="white"/>
<path d="M76.8744 120.951C76.8744 120.154 76.3497 119.357 75.2971 118.751C73.1919 117.534 69.7783 117.534 67.6698 118.751C66.6172 119.357 66.0925 120.154 66.0925 120.951V123.079C66.0925 123.876 66.6172 124.67 67.6698 125.28C69.775 126.493 73.1919 126.496 75.2971 125.28C76.3497 124.67 76.8744 123.873 76.8744 123.079V120.951Z" fill="#FFC100"/>
<path opacity="0.1" d="M75.2968 118.754C76.3494 119.361 76.8741 120.157 76.8741 120.954V123.082C76.8741 123.879 76.3494 124.673 75.2968 125.283C74.1241 125.907 72.8115 126.222 71.4832 126.198V117.839C72.8117 117.813 74.1247 118.128 75.2968 118.754Z" fill="black"/>
<path opacity="0.2" d="M67.6698 118.754C66.6172 119.361 66.0925 120.158 66.0925 120.954V123.083C66.0925 123.879 66.6172 124.673 67.6698 125.283C68.8425 125.907 70.1551 126.222 71.4835 126.198V117.839C70.155 117.814 68.8421 118.129 67.6698 118.754Z" fill="black"/>
<path d="M67.6697 118.754C65.5645 119.967 65.5645 121.938 67.6697 123.155C69.7749 124.371 73.1918 124.371 75.297 123.155C77.4023 121.938 77.4023 119.967 75.297 118.754C73.1918 117.541 69.7782 117.538 67.6697 118.754Z" fill="#FFC100"/>
<path opacity="0.3" d="M67.6697 118.754C65.5645 119.967 65.5645 121.938 67.6697 123.155C69.7749 124.371 73.1918 124.371 75.297 123.155C77.4023 121.938 77.4023 119.967 75.297 118.754C73.1918 117.541 69.7782 117.538 67.6697 118.754Z" fill="white"/>
<path d="M97.9657 120.951C97.9657 120.154 97.441 119.357 96.3851 118.751C94.2799 117.534 90.8663 117.534 88.7611 118.751C87.7085 119.357 87.1838 120.154 87.1838 120.951V123.079C87.1838 123.876 87.7085 124.673 88.7611 125.28C90.8663 126.496 94.2799 126.496 96.3851 125.28C97.441 124.673 97.9657 123.876 97.9657 123.079V120.951Z" fill="#FFC100"/>
<path opacity="0.1" d="M96.3851 118.757C97.4377 119.364 97.9656 120.161 97.9656 120.958V123.086C97.9656 123.883 97.441 124.679 96.3884 125.286C95.2152 125.909 93.9027 126.223 92.5747 126.198V117.846C93.9019 117.819 95.2139 118.132 96.3851 118.757Z" fill="black"/>
<path opacity="0.2" d="M88.7611 118.757C87.7085 119.364 87.1838 120.161 87.1838 120.958V123.086C87.1838 123.883 87.7085 124.679 88.7611 125.286C89.9341 125.909 91.2467 126.223 92.5748 126.198V117.846C91.2465 117.819 89.9335 118.133 88.7611 118.757Z" fill="black"/>
<path d="M88.7613 118.757C86.6561 119.971 86.6561 121.941 88.7613 123.158C90.8665 124.375 94.2801 124.375 96.3853 123.158C98.4905 121.941 98.4938 119.971 96.3853 118.757C94.2768 117.544 90.8665 117.541 88.7613 118.757Z" fill="#FFC100"/>
<path opacity="0.3" d="M88.7613 118.757C86.6561 119.971 86.6561 121.941 88.7613 123.158C90.8665 124.375 94.2801 124.375 96.3853 123.158C98.4905 121.941 98.4938 119.971 96.3853 118.757C94.2768 117.544 90.8665 117.541 88.7613 118.757Z" fill="white"/>
<path d="M80.891 162.79L59.2617 175.277V162.134L80.891 149.644V162.79Z" fill="#7F0BA4"/>
<path d="M37.6326 162.79L59.2618 175.277V162.134L37.6326 149.644V162.79Z" fill="#9648AF"/>
<path d="M80.8911 149.644L59.2618 137.157L37.6326 149.644L59.2618 162.134L80.8911 149.644Z" fill="#9648AF"/>
<path d="M63.0754 152.103C64.128 152.71 64.6526 153.507 64.6526 154.303V156.432C64.6526 157.228 64.128 158.025 63.0754 158.632C61.9024 159.255 60.5898 159.569 59.2617 159.543V151.178C60.5911 151.155 61.9042 151.474 63.0754 152.103Z" fill="#7F0BA4"/>
<path d="M55.4481 152.103C54.3955 152.71 53.8708 153.507 53.8708 154.303V156.432C53.8708 157.228 54.3955 158.025 55.4481 158.632C56.6211 159.255 57.9337 159.569 59.2618 159.543V151.178C57.9324 151.155 56.6193 151.474 55.4481 152.103Z" fill="#9648AF"/>
<path d="M55.4483 152.103C53.3431 153.316 53.3431 155.29 55.4483 156.504C57.5535 157.717 60.9704 157.72 63.0756 156.504C65.1808 155.287 65.1808 153.32 63.0756 152.103C60.9704 150.887 57.5568 150.873 55.4483 152.103Z" fill="#9648AF"/>
<path opacity="0.07" d="M55.4483 152.103C53.3431 153.316 53.3431 155.29 55.4483 156.504C57.5535 157.717 60.9704 157.72 63.0756 156.504C65.1808 155.287 65.1808 153.32 63.0756 152.103C60.9704 150.887 57.5568 150.873 55.4483 152.103Z" fill="white"/>
<path d="M63.0754 139.908C64.128 140.515 64.6526 141.311 64.6526 142.108V144.233C64.6526 145.03 64.128 145.827 63.0754 146.433C61.903 147.058 60.59 147.372 59.2617 147.345V138.986C60.5906 138.964 61.9033 139.281 63.0754 139.908Z" fill="#7F0BA4"/>
<path d="M55.4481 139.908C54.3955 140.515 53.8708 141.311 53.8708 142.108V144.233C53.8708 145.03 54.3955 145.827 55.4481 146.433C56.6205 147.058 57.9335 147.372 59.2618 147.345V138.986C57.9328 138.964 56.6202 139.281 55.4481 139.908Z" fill="#9648AF"/>
<path d="M55.4483 139.908C53.3431 141.124 53.3431 143.095 55.4483 144.312C57.5535 145.528 60.9704 145.525 63.0756 144.312C65.1808 143.098 65.1808 141.124 63.0756 139.908C60.9704 138.691 57.5568 138.691 55.4483 139.908Z" fill="#9648AF"/>
<path opacity="0.07" d="M55.4483 139.908C53.3431 141.124 53.3431 143.095 55.4483 144.312C57.5535 145.528 60.9704 145.525 63.0756 144.312C65.1808 143.098 65.1808 141.124 63.0756 139.908C60.9704 138.691 57.5568 138.691 55.4483 139.908Z" fill="white"/>
<path d="M73.618 146.001C74.6706 146.607 75.1985 147.404 75.1985 148.201V150.329C75.1985 151.126 74.6739 151.923 73.6213 152.529C72.4481 153.152 71.1356 153.466 69.8076 153.441V145.089C71.1348 145.062 72.4468 145.376 73.618 146.001Z" fill="#7F0BA4"/>
<path d="M65.994 146.001C64.9414 146.607 64.4167 147.404 64.4167 148.201V150.329C64.4167 151.126 64.9414 151.923 65.994 152.529C67.167 153.153 68.4796 153.467 69.8077 153.441V145.089C68.4794 145.062 67.1664 145.376 65.994 146.001Z" fill="#9648AF"/>
<path d="M65.994 146.001C63.8887 147.214 63.8887 149.185 65.994 150.401C68.0992 151.618 71.5128 151.618 73.618 150.401C75.7232 149.185 75.7265 147.214 73.618 146.001C71.5095 144.787 68.0992 144.784 65.994 146.001Z" fill="#9648AF"/>
<path opacity="0.07" d="M65.994 146.001C63.8887 147.214 63.8887 149.185 65.994 150.401C68.0992 151.618 71.5128 151.618 73.618 150.401C75.7232 149.185 75.7265 147.214 73.618 146.001C71.5095 144.787 68.0992 144.784 65.994 146.001Z" fill="white"/>
<path d="M52.5263 145.994C53.5789 146.604 54.1036 147.401 54.1036 148.198V150.326C54.1036 151.119 53.5789 151.916 52.5263 152.526C51.3533 153.149 50.0407 153.463 48.7126 153.438V145.082C50.0407 145.057 51.3533 145.371 52.5263 145.994Z" fill="#7F0BA4"/>
<path d="M44.9025 145.994C43.8499 146.604 43.3252 147.401 43.3252 148.198V150.326C43.3252 151.119 43.8499 151.916 44.9025 152.526C46.0754 153.149 47.3881 153.463 48.7161 153.438V145.082C47.3881 145.057 46.0756 145.371 44.9025 145.994Z" fill="#9648AF"/>
<path d="M44.9024 145.994C42.7972 147.211 42.7972 149.181 44.9024 150.398C47.0076 151.615 50.4245 151.615 52.5297 150.398C54.6349 149.181 54.6349 147.211 52.5297 145.997C50.4245 144.784 47.0109 144.781 44.9024 145.994Z" fill="#9648AF"/>
<path opacity="0.07" d="M44.9024 145.994C42.7972 147.211 42.7972 149.181 44.9024 150.398C47.0076 151.615 50.4245 151.615 52.5297 150.398C54.6349 149.181 54.6349 147.211 52.5297 145.997C50.4245 144.784 47.0109 144.781 44.9024 145.994Z" fill="white"/>
<path d="M126.571 108.235L104.942 120.726V107.579L126.571 95.0924V108.235Z" fill="#7F0BA4"/>
<path d="M83.1667 108.307L104.796 120.797V107.651L83.1667 95.1639V108.307Z" fill="#9648AF"/>
<path d="M126.425 95.1639L104.796 82.6769L83.1667 95.1639L104.796 107.651L126.425 95.1639Z" fill="#9648AF"/>
<path d="M108.6 97.6068C109.652 98.2167 110.177 99.0136 110.177 99.8071V101.932C110.177 102.729 109.652 103.526 108.6 104.136C107.427 104.759 106.114 105.073 104.786 105.047V96.6854C106.115 96.6629 107.428 96.9801 108.6 97.6068Z" fill="#7F0BA4"/>
<path d="M100.982 97.6068C99.9297 98.2167 99.405 99.0136 99.405 99.8071V101.932C99.405 102.729 99.9297 103.526 100.982 104.136C102.155 104.759 103.468 105.073 104.796 105.047V96.6854C103.467 96.6629 102.154 96.9801 100.982 97.6068Z" fill="#9648AF"/>
<path d="M100.982 97.6068C98.8773 98.8234 98.8773 100.794 100.982 102.011C103.088 103.227 106.501 103.224 108.61 102.011C110.718 100.797 110.715 98.8234 108.61 97.6068C106.505 96.3902 103.088 96.3935 100.982 97.6068Z" fill="#9648AF"/>
<path opacity="0.07" d="M100.982 97.6068C98.8773 98.8234 98.8773 100.794 100.982 102.011C103.088 103.227 106.501 103.224 108.61 102.011C110.718 100.797 110.715 98.8234 108.61 97.6068C106.505 96.3902 103.088 96.3935 100.982 97.6068Z" fill="white"/>
<path d="M108.6 85.4281C109.652 86.0347 110.177 86.8315 110.177 87.6284V89.7565C110.177 90.5534 109.652 91.3502 108.6 91.9568C107.427 92.5802 106.114 92.8939 104.786 92.8684V84.5164C106.114 84.4894 107.427 84.8032 108.6 85.4281Z" fill="#7F0BA4"/>
<path d="M100.982 85.4281C99.9297 86.0347 99.405 86.8315 99.405 87.6284V89.7565C99.405 90.5534 99.9297 91.3502 100.982 91.9568C102.155 92.5802 103.468 92.8939 104.796 92.8684V84.5164C103.468 84.4894 102.155 84.8032 100.982 85.4281Z" fill="#9648AF"/>
<path d="M100.982 85.4281C98.8773 86.6414 98.8773 88.6121 100.982 89.8287C103.088 91.0453 106.501 91.0453 108.61 89.8287C110.718 88.6121 110.715 86.6414 108.61 85.4281C106.505 84.2148 103.088 84.2246 100.982 85.4281Z" fill="#9648AF"/>
<path opacity="0.07" d="M100.982 85.4281C98.8773 86.6414 98.8773 88.6121 100.982 89.8287C103.088 91.0453 106.501 91.0453 108.61 89.8287C110.718 88.6121 110.715 86.6414 108.61 85.4281C106.505 84.2148 103.088 84.2246 100.982 85.4281Z" fill="white"/>
<path d="M119.152 91.5175C120.205 92.1274 120.733 92.9209 120.733 93.7178V95.846C120.733 96.6428 120.205 97.4396 119.152 98.0463C117.981 98.6711 116.669 98.985 115.342 98.9579V90.6059C116.669 90.5804 117.98 90.8941 119.152 91.5175Z" fill="#7F0BA4"/>
<path d="M111.528 91.5175C110.476 92.1274 109.951 92.9209 109.951 93.7178V95.8459C109.951 96.6428 110.476 97.4396 111.528 98.0463C112.701 98.6711 114.014 98.9849 115.342 98.9579V90.6059C114.014 90.5804 112.701 90.8941 111.528 91.5175Z" fill="#9648AF"/>
<path d="M111.528 91.5175C109.423 92.734 109.423 94.7048 111.528 95.9214C113.633 97.1379 117.047 97.1346 119.152 95.9214C121.257 94.7081 121.261 92.734 119.152 91.5175C117.044 90.3009 113.633 90.3009 111.528 91.5175Z" fill="#9648AF"/>
<path opacity="0.07" d="M111.528 91.5175C109.423 92.734 109.423 94.7048 111.528 95.9214C113.633 97.1379 117.047 97.1346 119.152 95.9214C121.257 94.7081 121.261 92.734 119.152 91.5175C117.044 90.3009 113.633 90.3009 111.528 91.5175Z" fill="white"/>
<path d="M98.0641 91.5141C99.1167 92.1208 99.6414 92.9176 99.6414 93.7144V95.8426C99.6414 96.6394 99.1167 97.4363 98.0641 98.0429C96.8917 98.6677 95.5787 98.9816 94.2505 98.9545V90.6025C95.5786 90.577 96.8912 90.8908 98.0641 91.5141Z" fill="#7F0BA4"/>
<path d="M90.4369 91.5141C89.3843 92.1208 88.8596 92.9176 88.8596 93.7144V95.8426C88.8596 96.6394 89.3843 97.4363 90.4369 98.0429C91.6093 98.6677 92.9223 98.9816 94.2505 98.9545V90.6025C92.9225 90.577 91.6099 90.8908 90.4369 91.5141Z" fill="#9648AF"/>
<path d="M90.4366 91.5142C88.3314 92.7308 88.3314 94.7016 90.4366 95.9148C92.5418 97.1281 95.9587 97.1314 98.0639 95.9148C100.169 94.6983 100.169 92.7275 98.0639 91.5109C95.9587 90.2944 92.532 90.2977 90.4366 91.5142Z" fill="#9648AF"/>
<path opacity="0.07" d="M90.4366 91.5142C88.3314 92.7308 88.3314 94.7016 90.4366 95.9148C92.5418 97.1281 95.9587 97.1314 98.0639 95.9148C100.169 94.6983 100.169 92.7275 98.0639 91.5109C95.9587 90.2944 92.532 90.2977 90.4366 91.5142Z" fill="white"/>
<path d="M40.0655 62.274H38.7342C37.8799 62.2753 37.0337 62.1081 36.244 61.7821C35.4544 61.4561 34.7367 60.9775 34.1322 60.3739C33.5276 59.7702 33.048 59.0533 32.7208 58.2642C32.3935 57.475 32.2251 56.6291 32.2251 55.7747C32.2247 54.8852 32.3995 54.0043 32.7396 53.1824C33.0797 52.3605 33.5784 51.6136 34.2072 50.9845C34.8361 50.3553 35.5827 49.8563 36.4045 49.5158C37.2262 49.1753 38.107 49 38.9965 49H39.7868C41.583 49.0009 43.3054 49.715 44.5752 50.9854C45.845 52.2558 46.5583 53.9785 46.5583 55.7747C46.5583 57.4973 45.8744 59.1494 44.657 60.3681C43.4396 61.5868 41.7881 62.2723 40.0655 62.274Z" fill="#263238"/>
<path d="M31.3302 59.4703C32.4582 58.3882 33.7732 59.008 34.9373 60.2147C36.1014 61.4214 36.6621 62.7626 35.5341 63.8447C34.406 64.9268 32.5533 64.8285 31.3925 63.6185C30.2317 62.4085 30.2022 60.5525 31.3302 59.4703Z" fill="#263238"/>
<path d="M47.0535 69.0356C48.6242 71.695 50.5196 74.9151 51.582 76.0235C53.5987 76.9613 58.2092 78.7157 60.0619 78.9747C60.3886 79.0145 60.7188 78.9366 60.9932 78.755C61.7211 78.2762 62.2852 78.2008 63.0558 77.9352C63.6558 77.7253 63.9116 77.4401 64.0395 77.5483C64.1551 77.6845 64.213 77.8605 64.2007 78.0387C64.1884 78.217 64.1071 78.3834 63.9739 78.5025C63.6861 78.7764 63.3669 79.0153 63.023 79.2141C63.8453 79.417 64.7028 79.4316 65.5315 79.2567C67.1383 78.837 67.8958 79.6076 66.8104 81.3488C66.4202 81.9751 64.8921 82.972 61.79 82.7031C60.6846 82.6399 59.5841 82.5096 58.4945 82.3129C55.5203 81.68 52.3428 80.752 50.2966 80.1421C49.5437 79.8448 48.8702 79.3767 48.3291 78.7747C44.9089 74.8758 43.23 71.4228 41.7314 68.8979L41.8593 64.7727C44.2761 64.6809 45.7386 66.8091 47.0535 69.0356Z" fill="#FFA8A7"/>
<path d="M30.9398 130.854C30.7801 131.747 30.6945 132.652 30.6841 133.559C30.6513 135.199 30.3561 135.783 30.3102 137.13C30.2643 138.668 30.5299 139.245 31.1563 140.111C31.7826 140.977 33.4189 141.751 34.1075 140.298C34.7961 138.845 34.7109 137.878 34.4911 136.363C34.2714 134.848 34.2321 133.94 34.1009 132.756C33.9829 131.707 33.8419 130.91 33.8419 130.91L30.9398 130.854Z" fill="#263238"/>
<path d="M35.5995 117.947L30.1921 117.849C30.2741 121.456 30.848 127.467 30.9398 130.854C30.9398 131.494 30.9398 135.809 31.166 137.121C31.5268 139.088 33.8648 138.826 33.9894 137.645C34.114 136.465 33.8353 131.444 33.8353 130.907C33.8156 128.736 34.819 123.066 35.3666 119.167C35.4027 118.984 35.5732 118.134 35.5995 117.947Z" fill="#FFA8A7"/>
<path d="M43.545 128.047C43.545 128.047 43.2663 128.064 43.2171 128.29C43.1679 128.516 43.1515 128.988 43.04 129.434C42.8555 130.132 42.7901 130.856 42.8466 131.576C42.9384 132.077 44.0893 132.828 44.8763 132.963C45.6633 133.097 46.775 133.871 47.3915 134.451C48.3808 135.27 49.6053 135.751 50.887 135.825C52.1987 135.825 53.1168 135.389 53.5497 134.684C53.9825 133.979 53.1529 133.897 51.6543 132.923L50.487 132.166C48.1096 130.611 47.2373 129.779 46.552 128.231L43.545 128.047Z" fill="#263238"/>
<path d="M46.5913 127.083C46.5519 125.968 47.3192 114.485 47.3192 114.485L42.1841 116.826C43.2826 123.384 43.663 127.057 43.5351 128.011C43.5134 128.101 43.5035 128.194 43.5056 128.287C43.5056 129.562 44.9517 130.254 46.0732 131.1C46.5158 131.428 47.657 132.471 48.9916 132.923C49.8573 133.218 51.4542 133.33 51.6575 132.805C50.2934 131.762 48.4341 130.398 47.3455 129.198C46.8274 128.641 46.6241 128.201 46.5913 127.083Z" fill="#FFA8A7"/>
<path d="M32.4088 82.7326C30.4413 87.0611 30.4413 90.4091 30.7692 95.9312C31.0676 100.997 31.5431 105.46 31.5431 105.46C31.4676 106.359 30.2314 108.113 30.0576 112.088C29.9952 114.901 30.0806 117.717 30.3134 120.522C30.3134 120.522 33.117 122.076 35.1928 120.522C35.1928 120.522 37.193 110.966 37.78 106.316C38.2915 102.257 39.7245 93.826 39.7245 93.826L42.0659 106.287C41.6589 107.594 41.3638 108.933 41.1838 110.291C40.9181 113.025 42.4462 118.397 42.4462 118.397C42.4462 118.397 45.345 119.262 47.1157 117.692C47.1157 117.692 47.7716 108.959 48.0241 105.667C48.352 101.253 47.6043 89.186 46.5944 82.9949L32.4088 82.7326Z" fill="#37474F"/>
<path d="M39.718 93.8129L40.3181 89.6844C40.3181 89.6844 43.8071 89.2188 45.3877 87.7169C44.9351 88.4256 44.3321 89.0259 43.6214 89.4753C42.9107 89.9247 42.1099 90.2122 41.2756 90.3173L40.6591 94.0621L41.7281 104.883L39.718 93.8129Z" fill="#263238"/>
<path d="M36.6293 64.9039C35.5865 64.976 34.2355 65.1892 34.2355 65.1892C33.1403 65.8024 32.5959 66.9173 32.5959 68.2191C32.5959 69.6423 31.8024 70.4391 32.2352 72.7837L33.9437 77.0466C33.8617 78.1123 32.5828 80.6176 31.8516 84.0902C36.0292 86.4217 41.3611 85.8773 44.3123 84.6149C45.1993 84.2739 45.9879 83.7184 46.6077 82.9982C46.1224 80.4405 45.9519 80.4733 45.683 78.1353C45.551 77.1915 45.4984 76.2383 45.5256 75.2857C46.8635 73.5641 47.5784 71.8786 46.9029 70.3309C45.5256 67.1895 42.9515 64.6612 41.6267 64.7563L36.6293 64.9039Z" fill="#FFC100"/>
<path opacity="0.7" d="M36.6293 64.9039C35.5865 64.976 34.2355 65.1892 34.2355 65.1892C33.1403 65.8024 32.5959 66.9173 32.5959 68.2191C32.5959 69.6423 31.8024 70.4391 32.2352 72.7837L33.9437 77.0466C33.8617 78.1123 32.5828 80.6176 31.8516 84.0902C36.0292 86.4217 41.3611 85.8773 44.3123 84.6149C45.1993 84.2739 45.9879 83.7184 46.6077 82.9982C46.1224 80.4405 45.9519 80.4733 45.683 78.1353C45.551 77.1915 45.4984 76.2383 45.5256 75.2857C46.8635 73.5641 47.5784 71.8786 46.9029 70.3309C45.5256 67.1895 42.9515 64.6612 41.6267 64.7563L36.6293 64.9039Z" fill="white"/>
<path opacity="0.1" d="M42.5873 75.1152C42.5873 75.1152 40.6788 76.5974 38.5015 75.8235C37.8902 75.6298 37.3391 75.2818 36.9014 74.8131C36.4637 74.3444 36.1542 73.7708 36.0028 73.1477C36.0028 73.1477 35.7732 75.6366 38.5211 76.4859C39.2563 76.7229 40.0482 76.7177 40.7802 76.4709C41.5122 76.2242 42.1456 75.7489 42.5873 75.1152Z" fill="black"/>
<path d="M43.8992 52.0463C44.6566 52.4956 45.5945 54.3975 45.5027 58.3882C45.424 61.7723 44.3254 62.6085 43.7745 62.8478C43.2236 63.0872 42.1645 62.9429 41.1316 62.7724V64.8022C41.1316 64.8022 42.3219 66.0483 42.2301 66.9796C42.1382 67.9109 40.3642 68.0158 39.0263 67.1042C38.216 66.5503 37.4932 65.8783 36.8818 65.1105V60.077C36.8818 60.077 36.3178 60.677 35.3176 59.9884C35.1017 59.8515 34.9167 59.671 34.7745 59.4586C34.6322 59.2462 34.5358 59.0064 34.4914 58.7547C34.4469 58.5029 34.4555 58.2446 34.5164 57.9964C34.5774 57.7481 34.6894 57.5152 34.8454 57.3126C35.2783 56.8011 36.3833 56.765 36.9146 57.5586C36.9146 57.5586 38.3016 57.4372 40.4954 56.2469C41.311 55.8049 42.0315 55.2063 42.6155 54.4855C43.1996 53.7647 43.6358 52.9359 43.8992 52.0463Z" fill="#FFA8A7"/>
<path d="M44.3288 52.043C44.3288 52.043 45.201 54.1122 42.8269 55.8173C42.8269 55.8173 44.0697 54.3319 43.6205 52.466C43.2499 50.9117 44.2501 51.3183 44.3288 52.043Z" fill="#263238"/>
<path d="M41.3444 57.539C41.3507 57.6524 41.3118 57.7637 41.2362 57.8485C41.1606 57.9333 41.0545 57.9847 40.9411 57.9915C40.8265 57.9941 40.7155 57.9516 40.632 57.8731C40.5486 57.7945 40.4994 57.6863 40.4951 57.5717C40.488 57.5136 40.4929 57.4546 40.5096 57.3985C40.5262 57.3424 40.5543 57.2902 40.592 57.2454C40.6297 57.2006 40.6762 57.164 40.7287 57.138C40.7811 57.1119 40.8384 57.097 40.8969 57.094C40.9554 57.0911 41.0138 57.1003 41.0686 57.1209C41.1234 57.1416 41.1734 57.1733 41.2154 57.2141C41.2574 57.255 41.2905 57.304 41.3127 57.3582C41.3349 57.4124 41.3457 57.4706 41.3444 57.5291V57.539Z" fill="#263238"/>
<path d="M41.8364 60.4081L42.8202 60.7361C42.8027 60.8038 42.7714 60.8672 42.7283 60.9223C42.6851 60.9774 42.6311 61.023 42.5695 61.0562C42.508 61.0895 42.4402 61.1097 42.3705 61.1155C42.3008 61.1214 42.2306 61.1127 42.1643 61.0902C42.0314 61.0419 41.9226 60.9435 41.8613 60.816C41.8 60.6886 41.7911 60.5421 41.8364 60.4081Z" fill="#F28F8F"/>
<path d="M45.1155 56.2338L44.2563 55.637C44.2922 55.5788 44.3396 55.5286 44.3956 55.4894C44.4516 55.4502 44.515 55.4229 44.5819 55.409C44.6489 55.3952 44.7179 55.3952 44.7849 55.4091C44.8518 55.4229 44.9152 55.4502 44.9712 55.4895C45.0853 55.572 45.1638 55.6948 45.1906 55.8331C45.2174 55.9714 45.1905 56.1146 45.1155 56.2338Z" fill="#263238"/>
<path d="M44.919 57.2339C44.9195 57.3174 44.8955 57.3991 44.85 57.4691C44.8045 57.539 44.7395 57.5941 44.663 57.6274C44.5865 57.6607 44.5018 57.6709 44.4196 57.6566C44.3374 57.6423 44.2612 57.6041 44.2005 57.5469C44.1397 57.4897 44.0971 57.416 44.0779 57.3347C44.0586 57.2535 44.0637 57.1685 44.0924 57.0901C44.121 57.0117 44.1721 56.9435 44.2392 56.8939C44.3062 56.8443 44.3864 56.8154 44.4697 56.8109C44.5852 56.8082 44.697 56.8511 44.7811 56.9303C44.8652 57.0095 44.9147 57.1185 44.919 57.2339Z" fill="#263238"/>
<path d="M42.5579 56.988L42.6234 59.5491L43.9712 59.1326L42.5579 56.988Z" fill="#F28F8F"/>
<path d="M41.1315 62.7725C40.0428 62.6282 37.8032 61.9855 37.4556 61.1001C37.5949 61.5485 37.8685 61.9433 38.2393 62.2314C38.8951 62.802 41.1315 63.448 41.1315 63.448V62.7725Z" fill="#F28F8F"/>
<path d="M78.035 98.1741L56.4058 110.664V97.5183L78.035 85.0313V98.1741Z" fill="#FFC100"/>
<path opacity="0.3" d="M78.035 98.1741L56.4058 110.664V97.5183L78.035 85.0313V98.1741Z" fill="black"/>
<path d="M34.7764 98.1741L56.4056 110.664V97.5183L34.7764 85.0313V98.1741Z" fill="#FFC100"/>
<path opacity="0.4" d="M34.7764 98.1741L56.4056 110.664V97.5183L34.7764 85.0313V98.1741Z" fill="black"/>
<path opacity="0.1" d="M38.6982 93.0029L37.5374 91.8421C37.3735 91.6814 37.1931 91.5371 37.0357 91.3633C36.9767 91.301 36.675 90.9502 36.7701 90.8551C36.7812 90.8467 36.794 90.841 36.8076 90.8381C36.8212 90.8353 36.8353 90.8355 36.8488 90.8387C37.3636 90.8911 38.0162 90.8682 38.3769 90.4353C38.4395 90.3633 38.4824 90.2763 38.5015 90.1828C38.5123 90.1142 38.4971 90.0441 38.4589 89.9861C38.3834 89.8746 38.1867 89.8746 38.0654 89.8385C37.9113 89.7915 37.7628 89.7278 37.6227 89.6483C37.3814 89.5195 37.1303 89.4098 36.8717 89.3204L35.8421 89.1007C35.6932 88.9827 35.5222 88.8958 35.3391 88.8451C35.1561 88.7944 34.9647 88.781 34.7764 88.8056V94.6786C35.202 94.9164 35.6741 95.0596 36.1602 95.0983C36.8026 95.1726 37.4531 95.067 38.0391 94.7933C38.5146 94.5572 39.2688 93.9473 38.9671 93.3275C38.8956 93.2055 38.8048 93.0959 38.6982 93.0029Z" fill="black"/>
<path d="M78.0349 85.0313L56.4056 72.5443L34.7764 85.0313L56.4056 97.5183L78.0349 85.0313Z" fill="#FFC100"/>
<path opacity="0.15" d="M78.0349 85.0313L56.4056 72.5443L34.7764 85.0313L56.4056 97.5183L78.0349 85.0313Z" fill="black"/>
<path d="M61.7967 77.4958C61.7967 76.699 61.2721 75.9021 60.2162 75.2955C58.111 74.0789 54.6974 74.0789 52.5922 75.2955C51.5396 75.9021 51.0149 76.699 51.0149 77.4958V79.6338C51.0149 80.4306 51.5396 81.2242 52.5922 81.8341C54.6974 83.0474 58.111 83.0507 60.2162 81.8341C61.2721 81.2242 61.7967 80.4274 61.7967 79.6338V77.4958Z" fill="#FFC100"/>
<path opacity="0.3" d="M60.2161 75.2955C61.2687 75.9022 61.7967 76.699 61.7967 77.4959V79.6339C61.7967 80.4307 61.272 81.2243 60.2161 81.8342C59.0443 82.4575 57.7328 82.7713 56.4058 82.7458V74.3872C57.7327 74.3592 59.0446 74.672 60.2161 75.2955Z" fill="black"/>
<path opacity="0.4" d="M52.5922 75.2955C51.5396 75.9022 51.0149 76.699 51.0149 77.4959V79.6339C51.0149 80.4307 51.5396 81.2243 52.5922 81.8342C53.7651 82.4575 55.0778 82.7713 56.4058 82.7458V74.3872C55.0779 74.3593 53.7649 74.672 52.5922 75.2955Z" fill="black"/>
<path d="M52.5921 75.2955C50.4869 76.5088 50.4869 78.4796 52.5921 79.6962C54.6973 80.9127 58.1109 80.9127 60.2161 79.6962C62.3213 78.4796 62.3246 76.5088 60.2161 75.2955C58.1076 74.0822 54.6973 74.079 52.5921 75.2955Z" fill="#FFC100"/>
<path d="M61.7967 89.6746C61.7967 88.8778 61.2721 88.0842 60.2162 87.4743C58.111 86.2577 54.6974 86.2577 52.5922 87.4743C51.5396 88.081 51.0149 88.8778 51.0149 89.6746V91.8028C51.0149 92.5996 51.5396 93.3965 52.5922 94.0031C54.6974 95.2197 58.111 95.2197 60.2162 94.0031C61.2721 93.3965 61.7967 92.5996 61.7967 91.8028V89.6746Z" fill="#FFC100"/>
<path opacity="0.3" d="M60.2161 87.4743C61.2687 88.0809 61.7967 88.8777 61.7967 89.6746V91.8027C61.7967 92.5996 61.272 93.3964 60.2161 94.0031C59.0449 94.6279 57.733 94.9418 56.4058 94.9147V86.5627C57.7328 86.5372 59.0443 86.8509 60.2161 87.4743Z" fill="black"/>
<path opacity="0.4" d="M52.5922 87.4743C51.5396 88.0809 51.0149 88.8777 51.0149 89.6746V91.8027C51.0149 92.5996 51.5396 93.3964 52.5922 94.003C53.7646 94.6279 55.0776 94.9417 56.4058 94.9147V86.5627C55.0778 86.5372 53.7651 86.8509 52.5922 87.4743Z" fill="black"/>
<path d="M52.5921 87.4743C50.4869 88.6909 50.4869 90.6616 52.5921 91.8782C54.6973 93.0948 58.1109 93.0915 60.2161 91.8782C62.3213 90.6649 62.3246 88.6909 60.2161 87.4743C58.1076 86.2577 54.6973 86.2577 52.5921 87.4743Z" fill="#FFC100"/>
<path d="M51.2508 83.5688C51.2508 82.772 50.7262 81.9751 49.6736 81.3685C47.5651 80.1519 44.1515 80.1519 42.0463 81.3685C40.9937 81.9751 40.469 82.772 40.469 83.5688V85.697C40.469 86.4938 40.9937 87.2906 42.0463 87.8973C44.1515 89.1138 47.5651 89.1138 49.6736 87.8973C50.7262 87.2906 51.2508 86.4938 51.2508 85.697V83.5688Z" fill="#FFC100"/>
<path opacity="0.3" d="M49.6735 81.3816C50.7261 81.9883 51.2508 82.7851 51.2508 83.5819V85.7101C51.2508 86.5069 50.7261 87.3038 49.6735 87.9104C48.4999 88.5315 47.1874 88.843 45.8599 88.8155V80.47C47.1879 80.445 48.5004 80.7587 49.6735 81.3816Z" fill="black"/>
<path opacity="0.4" d="M42.0333 81.3817C40.9807 81.9883 40.4561 82.7852 40.4561 83.582V85.7102C40.4561 86.507 40.9807 87.3038 42.0333 87.9105C43.2108 88.5337 44.5282 88.8453 45.8601 88.8155V80.4701C44.5276 80.4423 43.2102 80.7562 42.0333 81.3817Z" fill="black"/>
<path d="M42.0333 81.3816C39.928 82.5982 39.928 84.5689 42.0333 85.7822C44.1385 86.9955 47.5521 86.9988 49.6606 85.7822C51.7691 84.5657 51.7658 82.5982 49.6606 81.3816C47.5553 80.165 44.1516 80.165 42.0333 81.3816Z" fill="#FFC100"/>
<path d="M72.3424 83.5852C72.3424 82.7884 71.8145 81.9915 70.7619 81.3849C68.6566 80.1683 65.243 80.1683 63.1378 81.3849C62.0852 81.9915 61.5573 82.7884 61.5606 83.5852V85.7134C61.5606 86.5102 62.0852 87.307 63.1378 87.9137C65.243 89.1303 68.6566 89.1303 70.7619 87.9137C71.8145 87.307 72.3424 86.5102 72.3424 85.7134V83.5852Z" fill="#FFC100"/>
<path opacity="0.3" d="M70.7619 81.3849C71.8145 81.9915 72.3425 82.7883 72.3425 83.5852V85.7133C72.3425 86.5102 71.8145 87.307 70.7619 87.9137C69.5906 88.5341 68.28 88.8446 66.9548 88.8154V80.4733C68.2807 80.4487 69.591 80.7625 70.7619 81.3849Z" fill="black"/>
<path opacity="0.4" d="M63.1378 81.3849C62.0852 81.9915 61.5573 82.7884 61.5606 83.5852V85.7134C61.5606 86.5102 62.0852 87.3071 63.1378 87.9137C64.3121 88.5357 65.6263 88.8461 66.9548 88.8155V80.4733C65.6256 80.4473 64.3118 80.761 63.1378 81.3849Z" fill="black"/>
<path d="M63.1377 81.3849C61.0325 82.6015 61.0325 84.5722 63.1377 85.7888C65.243 87.0054 68.6566 87.0021 70.7618 85.7888C72.867 84.5755 72.867 82.6015 70.7618 81.3849C68.6566 80.1683 65.243 80.1683 63.1377 81.3849Z" fill="#FFC100"/>
<path d="M25.4897 77.8664C26.726 75.1709 28.9164 71.0031 29.9526 68.8848C31.4643 65.8352 32.7039 65.1728 34.7763 65.1105C35.5928 65.8188 35.9863 68.2781 34.6648 71.4327C33.5597 73.328 30.156 79.1485 30.156 79.1485C30.3199 79.6207 32.976 86.1757 34.0647 87.6743C34.2609 87.9374 34.5467 88.1194 34.8681 88.1859C35.7272 88.3695 36.8356 89.0483 37.5504 89.409C38.121 89.691 38.5112 89.6713 38.5047 89.8287C38.4802 90.0089 38.3885 90.1732 38.2481 90.2888C38.1076 90.4043 37.9287 90.4625 37.7472 90.4517C37.1771 90.3832 36.6127 90.2736 36.0584 90.1238C36.6801 90.7757 37.3451 91.3848 38.0489 91.947C39.3605 92.9537 39.531 94.0096 37.4717 94.4589C35.9141 94.7868 34.914 94.085 32.9891 91.6847C32.435 90.9928 31.766 89.9238 31.0872 89.0253C29.3788 86.766 28.4639 85.1756 27.4244 83.759C24.4502 79.765 25.0339 78.86 25.4897 77.8664Z" fill="#FFA8A7"/>
</svg>
