<svg width="34" height="34" viewBox="0 0 34 34" fill="none" xmlns="http://www.w3.org/2000/svg">
<path d="M26.9167 11.3334H7.08333C5.51853 11.3334 4.25 12.6019 4.25 14.1667V28.3334C4.25 29.8982 5.51853 31.1667 7.08333 31.1667H26.9167C28.4815 31.1667 29.75 29.8982 29.75 28.3334V14.1667C29.75 12.6019 28.4815 11.3334 26.9167 11.3334Z" stroke="#7F0BA4" stroke-width="2" stroke-linecap="round" stroke-linejoin="round"/>
<path d="M29.75 21.25H4.25M17 7.08338C17 6.24281 16.7507 5.42111 16.2837 4.7222C15.8167 4.02329 15.153 3.47856 14.3764 3.15689C13.5998 2.83522 12.7453 2.75105 11.9209 2.91504C11.0964 3.07903 10.3392 3.4838 9.7448 4.07817C9.15042 4.67255 8.74565 5.42982 8.58166 6.25424C8.41768 7.07866 8.50184 7.93319 8.82351 8.70978C9.14518 9.48637 9.68992 10.1501 10.3888 10.6171C11.0877 11.0841 11.9094 11.3334 12.75 11.3334L17 7.08338ZM21.25 11.3334C22.0906 11.3334 22.9123 11.0841 23.6112 10.6171C24.3101 10.1501 24.8548 9.48637 25.1765 8.70978C25.4982 7.93319 25.5823 7.07866 25.4183 6.25424C25.2544 5.42982 24.8496 4.67255 24.2552 4.07817C23.6608 3.4838 22.9036 3.07903 22.0791 2.91504C21.2547 2.75105 20.4002 2.83522 19.6236 3.15689C18.847 3.47856 18.1833 4.02329 17.7163 4.7222C17.2493 5.42111 17 6.24281 17 7.08338L21.25 11.3334ZM17 7.08338V31.1667V7.08338Z" stroke="#7F0BA4" stroke-width="2" stroke-linecap="round" stroke-linejoin="round"/>
</svg>
