<svg width="1348" height="390" viewBox="0 0 1348 390" fill="none" xmlns="http://www.w3.org/2000/svg">
<path d="M1137.25 389.62H67.9729C14.3829 389.62 -13.2471 346.18 6.25294 292.59L77.4329 97.03C96.9429 43.44 156.193 0 209.783 0H1279.06C1332.65 0 1360.28 43.44 1340.78 97.03L1269.6 292.59C1250.09 346.18 1190.84 389.62 1137.25 389.62Z" fill="#853A93"/>
<path d="M393.323 278.9H352.093L360.573 171.34L289.033 278.9H263.203L249.053 167.94L198.933 278.9H156.613L232.663 110.83H277.893L291.343 217.54L362.043 110.83H406.063L393.313 278.9H393.323Z" fill="white"/>
<path d="M565.393 278.9H520.643L520.723 241.67H469.433L447.883 278.9H403.983L509.743 110.83H555.213L565.373 278.9H565.393ZM520.723 218.03L520.613 153.76L483.493 218.03H520.723Z" fill="white"/>
<path d="M754.223 110.83L745.053 145.03H690.723L654.153 278.91H611.463L647.663 145.03H593.583L602.993 110.83H754.213H754.223Z" fill="white"/>
<path d="M908.753 114.47L896.953 152.3C891.983 150.6 887.183 149.25 882.533 148.24C877.883 147.23 873.413 146.48 869.103 146C864.793 145.51 860.703 145.27 856.823 145.27C848.743 145.27 840.833 146.59 833.113 149.21C825.393 151.84 818.313 155.68 811.873 160.73C805.433 165.78 800.193 171.77 796.143 178.68C792.103 185.59 789.583 193.09 788.593 201.17C787.603 209.25 788.483 216.51 791.253 222.94C794.023 229.37 798.353 234.38 804.263 237.98C810.163 241.58 816.953 243.38 824.643 243.38C844.363 243.38 865.653 235.94 888.503 221.07L875.163 267.51C871.003 269.13 866.303 270.87 861.063 272.72C855.823 274.58 851.403 276.02 847.803 277.02C844.203 278.03 839.703 278.96 834.303 279.81C828.903 280.66 823.413 281.08 817.833 281.08C806.593 281.08 796.173 279.5 786.583 276.35C776.983 273.2 768.593 268.31 761.403 261.68C754.213 255.05 749.023 246.95 745.833 237.37C742.643 227.79 741.803 216.9 743.293 204.69C744.513 194.75 747.463 184.38 752.143 173.59C756.823 162.8 763.753 152.45 772.933 142.55C782.113 132.65 794.203 124.5 809.223 118.12C824.233 111.73 842.003 108.54 862.543 108.54C870.873 108.54 878.173 109.01 884.443 109.93C890.713 110.86 898.813 112.38 908.743 114.48L908.753 114.47Z" fill="white"/>
<path d="M1108.19 110.83L1062.21 278.9H1019.53L1037.26 213.54H957.833L939.863 278.9H897.053L942.793 110.83H985.843L969.003 172.92H1048.19L1065.03 110.83H1108.2H1108.19Z" fill="white"/>
<path d="M1155.63 255.86C1155.07 260.39 1153.43 264.59 1150.69 268.47C1147.95 272.35 1144.5 275.42 1140.34 277.69C1136.18 279.95 1131.84 281.09 1127.31 281.09C1122.78 281.09 1118.6 279.96 1114.99 277.69C1111.38 275.42 1108.69 272.35 1106.91 268.47C1105.12 264.59 1104.51 260.39 1105.06 255.86C1105.61 251.33 1107.28 247.01 1110.02 243.13C1112.76 239.25 1116.21 236.18 1120.37 233.91C1124.53 231.65 1128.91 230.51 1133.52 230.51C1138.13 230.51 1142.11 231.64 1145.71 233.91C1149.31 236.17 1152.01 239.25 1153.79 243.13C1155.58 247.01 1156.19 251.25 1155.62 255.86H1155.63ZM1188.46 126.72C1187.95 130.84 1186.97 135.09 1185.5 139.45C1184.03 143.82 1182.02 149.15 1179.47 155.46L1152.08 222.52H1126.49L1138.25 144.55C1140.36 133.96 1142.34 126.68 1144.2 122.72C1145.93 119.16 1148.86 115.91 1152.98 112.96C1157.1 110.01 1162.56 108.53 1169.35 108.53C1176.95 108.53 1182.17 110.41 1185.03 114.17C1187.88 117.93 1189.03 122.11 1188.46 126.72Z" fill="#FFD110"/>
</svg>
