<svg width="310" height="310" viewBox="0 0 310 310" fill="none" xmlns="http://www.w3.org/2000/svg">
<path d="M310 237.088H0V237.243H310V237.088Z" fill="#E6E6E6"/>
<path d="M276.26 241.075H261.845V241.23H276.26V241.075Z" fill="#E6E6E6"/>
<path d="M223.82 244.441H155.353V244.596H223.82V244.441Z" fill="#E6E6E6"/>
<path d="M126.065 244.522H119.35V244.677H126.065V244.522Z" fill="#E6E6E6"/>
<path d="M71.6472 242.662H48.36V242.817H71.6472V242.662Z" fill="#E6E6E6"/>
<path d="M255.843 241.075H242.215V241.23H255.843V241.075Z" fill="#E6E6E6"/>
<path d="M43.3007 242.662H32.0229V242.817H43.3007V242.662Z" fill="#E6E6E6"/>
<path d="M146.94 209.436H27.2242C26.2863 209.434 25.3875 209.061 24.7249 208.397C24.0623 207.733 23.6902 206.834 23.6902 205.896V37.6092C23.6983 36.6767 24.0741 35.7852 24.7358 35.1281C25.3975 34.4711 26.2917 34.1016 27.2242 34.1H146.94C147.879 34.1 148.779 34.473 149.443 35.1369C150.107 35.8008 150.48 36.7013 150.48 37.6402V205.896C150.48 206.835 150.107 207.735 149.443 208.399C148.779 209.063 147.879 209.436 146.94 209.436ZM27.2242 34.224C26.3274 34.2256 25.468 34.583 24.8345 35.2177C24.201 35.8524 23.8452 36.7125 23.8452 37.6092V205.896C23.8452 206.793 24.201 207.653 24.8345 208.287C25.468 208.922 26.3274 209.279 27.2242 209.281H146.94C147.837 209.279 148.697 208.922 149.332 208.288C149.966 207.653 150.324 206.793 150.325 205.896V37.6092C150.324 36.7119 149.966 35.8518 149.332 35.2173C148.697 34.5828 147.837 34.2256 146.94 34.224H27.2242Z" fill="#E6E6E6"/>
<path d="M281.052 209.436H161.33C160.392 209.434 159.492 209.061 158.829 208.397C158.165 207.734 157.792 206.834 157.79 205.896V37.6092C157.8 36.6762 158.177 35.7846 158.84 35.1277C159.502 34.4708 160.397 34.1016 161.33 34.1H281.052C281.984 34.1032 282.876 34.4734 283.537 35.1303C284.197 35.7872 284.572 36.6778 284.58 37.6092V205.896C284.58 206.833 284.209 207.731 283.548 208.395C282.886 209.058 281.989 209.433 281.052 209.436ZM161.33 34.224C160.433 34.2256 159.573 34.5828 158.938 35.2173C158.304 35.8518 157.947 36.7119 157.945 37.6092V205.896C157.947 206.793 158.304 207.653 158.938 208.288C159.573 208.922 160.433 209.279 161.33 209.281H281.052C281.95 209.279 282.81 208.922 283.444 208.288C284.079 207.653 284.436 206.793 284.437 205.896V37.6092C284.436 36.7119 284.079 35.8518 283.444 35.2173C282.81 34.5828 281.95 34.2256 281.052 34.224H161.33Z" fill="#E6E6E6"/>
<path d="M200.613 127.174H247.467V45.601H200.613V127.174Z" fill="#E6E6E6"/>
<path d="M198.084 127.174H244.937V45.601H198.084V127.174Z" fill="#F5F5F5"/>
<path d="M240.386 123.349V49.4326H202.622V123.349H240.386Z" fill="#FAFAFA"/>
<path d="M204.538 123.349V49.4326H202.622V123.349H204.538Z" fill="#E6E6E6"/>
<path d="M199.962 105.505H243.059V100.366H199.962V105.505Z" fill="#F5F5F5"/>
<path d="M120.987 127.174H167.84V45.601H120.987V127.174Z" fill="#E6E6E6"/>
<path d="M118.457 127.174H165.311V45.601H118.457V127.174Z" fill="#F5F5F5"/>
<path d="M160.766 123.349V49.4326H123.002V123.349H160.766Z" fill="#FAFAFA"/>
<path d="M124.911 123.343V49.4264H122.996V123.343H124.911Z" fill="#E6E6E6"/>
<path d="M120.336 105.505H163.432V100.366H120.336V105.505Z" fill="#F5F5F5"/>
<path d="M41.3665 127.174H88.2198L88.2198 45.601H41.3665L41.3665 127.174Z" fill="#E6E6E6"/>
<path d="M38.8368 127.174H85.6902L85.6902 45.601H38.8368L38.8368 127.174Z" fill="#F5F5F5"/>
<path d="M81.1394 123.343V49.4264H43.3752L43.3752 123.343H81.1394Z" fill="#FAFAFA"/>
<path d="M45.291 123.349L45.291 49.4326H43.3752L43.3752 123.349H45.291Z" fill="#E6E6E6"/>
<path d="M40.7154 105.505H83.8116V100.366H40.7154V105.505Z" fill="#F5F5F5"/>
<path d="M86.8 177.642C78.3494 178.808 73.1228 160.444 91.76 144.894C90.7866 162.893 101.544 175.609 86.8 177.642Z" fill="#E6E6E6"/>
<path d="M80.6 201.692C68.3488 193.105 76.7312 163.103 114.644 165.28C98.2514 187.364 101.965 216.659 80.6 201.692Z" fill="#E0E0E0"/>
<path d="M84.9399 201.5C93.0805 192.733 81.4928 170.667 52.1978 178.727C68.727 193.235 70.7358 216.777 84.9399 201.5Z" fill="#E0E0E0"/>
<path d="M74.4868 188.703C71.672 185.275 68.3488 181.418 69.1548 177.339C69.9608 173.259 71.9758 170.227 70.3948 165.887C68.4728 160.679 68.8448 154.467 72.0936 154.988C75.3424 155.508 78.9818 159.328 78.9136 164.356C78.8578 169.241 82.0136 170.804 85.0516 173.402C88.0896 175.999 89.1622 179.8 89.7016 183.52C90.644 189.429 98.301 188.313 100.335 193.44C102.436 198.4 98.2452 205.003 91.543 206.522C84.8408 208.041 80.0668 209.002 75.4974 203.757C70.8536 198.233 78.6532 193.614 74.4868 188.703Z" fill="#F5F5F5"/>
<path d="M97.5446 237.088H72.3664L70.4692 202.79H99.4418L97.5446 237.088Z" fill="#EBEBEB"/>
<path d="M101.32 202.089H68.5906V205.784H101.32V202.089Z" fill="#EBEBEB"/>
<path d="M245.979 232.432H262.917V158.98H245.979V232.432Z" fill="#EBEBEB"/>
<path d="M113.243 237.088L259.662 237.088V232.432L113.243 232.432V237.088Z" fill="#EBEBEB"/>
<path d="M245.979 158.98H109.994V232.432H245.979V158.98Z" fill="#F5F5F5"/>
<path d="M239.32 168.02H116.653V192.113H239.32V168.02Z" fill="#EBEBEB"/>
<path d="M239.32 199.299H116.653V223.392H239.32V199.299Z" fill="#EBEBEB"/>
<path d="M139.829 181.716H216.144C216.581 181.714 217 181.54 217.309 181.231C217.618 180.922 217.792 180.503 217.794 180.067C217.794 179.629 217.62 179.209 217.311 178.898C217.002 178.588 216.582 178.413 216.144 178.411H139.829C139.391 178.413 138.971 178.588 138.662 178.898C138.353 179.209 138.179 179.629 138.179 180.067C138.181 180.503 138.355 180.922 138.664 181.231C138.973 181.54 139.392 181.714 139.829 181.716Z" fill="#F5F5F5"/>
<path d="M139.829 212.995H216.144C216.581 212.993 217 212.819 217.309 212.51C217.618 212.201 217.792 211.783 217.794 211.346C217.792 210.909 217.618 210.49 217.309 210.181C217 209.872 216.581 209.698 216.144 209.696H139.829C139.392 209.698 138.973 209.872 138.664 210.181C138.355 210.49 138.181 210.909 138.179 211.346C138.181 211.783 138.355 212.201 138.664 212.51C138.973 212.819 139.392 212.993 139.829 212.995Z" fill="#F5F5F5"/>
<path d="M208.438 148.261C208.438 148.261 227.844 166.65 239.363 148.186C239.363 148.186 236.301 142.253 233.07 141.744C229.84 141.236 229.71 146.878 226.87 145.136C224.031 143.394 220.714 137.435 218.903 140.616C217.093 143.797 214.607 139.264 211.897 139.004C209.188 138.744 208.438 148.261 208.438 148.261Z" fill="#F5F5F5"/>
<path d="M240.597 146.99C240.597 146.99 240.176 158.98 223.82 158.98C207.464 158.98 207.043 146.99 207.043 146.99H240.597Z" fill="#EBEBEB"/>
<path d="M157.858 140.74H167.276V158.98H139.624C139.624 154.144 141.545 149.505 144.964 146.085C148.384 142.664 153.022 140.742 157.858 140.74Z" fill="#F5F5F5"/>
<path d="M175.962 140.74H167.276V158.98H175.962V140.74Z" fill="#E6E6E6"/>
<path d="M155 265.087C221.391 265.087 275.212 261.945 275.212 258.069C275.212 254.193 221.391 251.05 155 251.05C88.6089 251.05 34.7882 254.193 34.7882 258.069C34.7882 261.945 88.6089 265.087 155 265.087Z" fill="#F5F5F5"/>
<path d="M135.16 122.611L134.751 123.231C134.627 123.411 134.497 123.572 134.373 123.74C134.118 124.074 133.852 124.36 133.585 124.701C133.046 125.321 132.5 125.941 131.917 126.486C130.752 127.606 129.509 128.642 128.197 129.586C126.888 130.53 125.509 131.376 124.074 132.116C123.349 132.469 122.63 132.835 121.88 133.133L120.757 133.579L120.441 133.697C120.268 133.753 120.106 133.815 119.914 133.858C119.539 133.952 119.154 133.995 118.767 133.988C118.031 133.983 117.306 133.803 116.653 133.461C116.128 133.187 115.646 132.838 115.221 132.426C114.548 131.762 113.966 131.011 113.491 130.194C112.679 128.778 112.016 127.282 111.513 125.73C110.538 122.803 109.84 119.791 109.43 116.734L112.022 116.163C112.493 117.521 112.976 118.922 113.51 120.274C114.043 121.625 114.576 122.971 115.196 124.248C115.76 125.481 116.433 126.661 117.205 127.776C117.512 128.238 117.881 128.655 118.302 129.016C118.423 129.115 118.559 129.195 118.705 129.251C118.792 129.251 118.786 129.251 118.742 129.251H118.699L118.904 129.152L119.827 128.706C120.447 128.408 121.036 128.086 121.632 127.726C122.806 127.023 123.94 126.255 125.029 125.426C126.104 124.581 127.125 123.67 128.086 122.698C128.569 122.227 129.028 121.725 129.468 121.216C129.685 120.962 129.902 120.708 130.088 120.454L130.386 120.075L130.628 119.753L135.16 122.611Z" fill="#B97964"/>
<path d="M127.652 122.345L130.795 129.884L128.52 131.304L124.986 124.465L127.652 122.345Z" fill="#263238"/>
<path d="M136.549 115.996C131.421 115.928 126.213 122.419 126.083 122.58L130.138 132.116C130.138 132.116 139.159 124.794 139.612 121.929C140.083 118.947 139.798 116.039 136.549 115.996Z" fill="#BA68C8"/>
<path opacity="0.3" d="M136.549 115.996C131.421 115.928 126.213 122.419 126.083 122.58L130.138 132.116C130.138 132.116 139.159 124.794 139.612 121.929C140.083 118.947 139.798 116.039 136.549 115.996Z" fill="black"/>
<path d="M111.6 115.177L108.054 112.418L107.334 117.85C107.334 117.85 110.782 119.201 112.617 118.029L112.567 117.037C112.549 116.676 112.453 116.323 112.286 116.002C112.119 115.681 111.885 115.4 111.6 115.177Z" fill="#B97964"/>
<path d="M103.329 112.146L103.552 116.269L107.353 117.85L108.072 112.418L103.329 112.146Z" fill="#B97964"/>
<path d="M181.04 114.737L186.521 113.367L182.689 109.455C182.689 109.455 179.137 110.906 180.005 114.006L181.04 114.737Z" fill="#B97964"/>
<path d="M189.243 112.394L188.79 108.091L182.658 109.455L186.49 113.367L189.243 112.394Z" fill="#B97964"/>
<path d="M163.165 252.631L158.063 253.121L153.803 241.081L158.906 240.585L163.165 252.631Z" fill="#B97964"/>
<path d="M217.787 227.317L214.03 230.962L204.371 223.423L208.134 219.778L217.787 227.317Z" fill="#B97964"/>
<path d="M212.945 230.256L215.834 225.128C215.883 225.04 215.962 224.973 216.057 224.938C216.151 224.904 216.255 224.906 216.349 224.942L220.739 226.641C220.847 226.688 220.945 226.758 221.025 226.845C221.104 226.932 221.165 227.035 221.203 227.148C221.24 227.26 221.253 227.379 221.242 227.497C221.23 227.614 221.194 227.729 221.135 227.831C220.1 229.605 219.511 230.404 218.24 232.661C217.459 234.05 215.934 237.231 214.855 239.146C213.776 241.062 211.823 240.095 212.102 239.202C213.342 235.191 213.131 232.953 212.796 231.179C212.735 230.864 212.788 230.536 212.945 230.256Z" fill="#263238"/>
<path d="M157.046 251.559H163.246C163.357 251.561 163.465 251.599 163.553 251.667C163.641 251.735 163.705 251.83 163.736 251.937L165.087 256.854C165.122 256.97 165.128 257.092 165.106 257.211C165.084 257.331 165.034 257.443 164.96 257.539C164.886 257.635 164.791 257.712 164.681 257.764C164.572 257.817 164.452 257.842 164.331 257.839C162.155 257.802 161.095 257.672 158.36 257.672C156.68 257.672 151.206 257.852 148.881 257.852C146.556 257.852 146.134 255.552 147.076 255.372C151.292 254.436 154.851 253.152 156.147 251.925C156.387 251.689 156.71 251.558 157.046 251.559Z" fill="#263238"/>
<path d="M153.81 241.081L155.998 247.293H161.281L158.912 240.585L153.81 241.081Z" fill="#A76755"/>
<path d="M208.14 219.778L204.377 223.429L209.355 227.311L213.119 223.665L208.14 219.778Z" fill="#A76755"/>
<path d="M131.558 117.651C131.558 117.651 129.45 119.257 143.654 146.977L163.903 140.436C160.902 132.308 159.253 127.23 157.703 109.046C154.7 109.378 151.724 109.927 148.8 110.689C145.673 111.475 142.602 112.468 139.605 113.658C135.737 115.32 131.558 117.651 131.558 117.651Z" fill="#BA68C8"/>
<path opacity="0.3" d="M131.558 117.651C131.558 117.651 129.45 119.257 143.654 146.977L163.903 140.436C160.902 132.308 159.253 127.23 157.703 109.046C154.7 109.378 151.724 109.927 148.8 110.689C145.673 111.475 142.602 112.468 139.605 113.658C135.737 115.32 131.558 117.651 131.558 117.651Z" fill="black"/>
<path d="M144.516 100.626C144.888 103.776 146.06 109.38 148.769 110.689C148.769 110.689 148.924 113.95 143.431 115.723C137.386 117.676 139.574 113.658 139.574 113.658C142.619 111.798 141.738 109.38 140.424 107.272L144.516 100.626Z" fill="#B97964"/>
<path d="M134.354 116.151C135.848 115.376 137.752 114.433 139.574 113.671C142.575 112.458 145.658 111.461 148.8 110.689C150.567 110.205 152.353 109.845 153.859 109.591C154.002 110.013 153.574 111.104 152.526 112.611C149.209 115.363 142.135 118.941 136.921 118.811C134.639 117.961 134.069 117.062 134.354 116.151Z" fill="#B97964"/>
<path d="M152.52 112.611C150.268 115.63 147.576 118.294 144.534 120.516C141.944 120.2 139.392 119.629 136.915 118.811C142.104 118.941 149.178 115.363 152.52 112.611Z" fill="#263238"/>
<path d="M142.848 103.335L140.424 107.26C140.74 107.749 141.012 108.266 141.236 108.804C142.439 108.215 143.97 106.473 143.679 105.084C143.506 104.457 143.225 103.865 142.848 103.335Z" fill="#A76755"/>
<path d="M145.743 94.8104C146.053 99.9998 146.301 102.188 144.02 105.152C140.591 109.604 134.149 108.872 132.289 103.862C130.622 99.3674 130.392 91.636 135.185 88.9824C136.238 88.3906 137.425 88.0776 138.633 88.073C139.84 88.0684 141.03 88.3724 142.087 88.9561C143.145 89.5398 144.036 90.384 144.675 91.4085C145.315 92.433 145.683 93.604 145.743 94.8104Z" fill="#B97964"/>
<path d="M155.993 85.51C157.165 80.3547 153.936 75.2252 148.781 74.053C143.626 72.8808 138.496 76.1097 137.324 81.2651C136.152 86.4204 139.381 91.5499 144.536 92.7221C149.691 93.8943 154.821 90.6653 155.993 85.51Z" fill="#263238"/>
<path d="M144.268 87.544C146.239 88.846 147.219 90.8424 146.456 92.0018C145.694 93.1612 143.474 93.0496 141.496 91.7476C139.519 90.4456 138.545 88.4492 139.308 87.2898C140.07 86.1304 142.29 86.242 144.268 87.544Z" fill="#BA68C8"/>
<path opacity="0.6" d="M144.268 87.544C146.239 88.846 147.219 90.8424 146.456 92.0018C145.694 93.1612 143.474 93.0496 141.496 91.7476C139.519 90.4456 138.545 88.4492 139.308 87.2898C140.07 86.1304 142.29 86.242 144.268 87.544Z" fill="#FAFAFA"/>
<path d="M143.22 98.3506C143.735 97.1602 141.943 93.6262 142.327 92.3056C141.298 91.3446 130.863 94.7422 131.707 92.2622C132.513 89.8814 135.055 86.7256 140.858 88.0462C147.058 89.4598 147.597 94.8228 146.903 96.534C146.208 98.2452 145.223 100.025 145.223 100.025L143.22 98.3506Z" fill="#263238"/>
<path d="M147.107 99.3612C147.12 100.365 146.737 101.334 146.041 102.058C145.105 103.007 143.976 102.325 143.685 101.097C143.418 99.9936 143.592 98.1646 144.795 97.681C145.06 97.5777 145.347 97.5427 145.629 97.5791C145.911 97.6156 146.18 97.7223 146.41 97.8896C146.64 98.0568 146.825 98.2792 146.946 98.5364C147.068 98.7935 147.124 99.0771 147.107 99.3612Z" fill="#B97964"/>
<path d="M143.654 146.977C143.654 146.977 134.267 192.758 139.5 207.855C144.944 223.56 153.803 245.483 153.803 245.483L162.08 245.012C162.08 245.012 155.26 217.31 153.58 204.798C151.28 187.55 161.132 141.36 161.132 141.36L143.654 146.977Z" fill="#BA68C8"/>
<path opacity="0.6" d="M143.654 146.977C143.654 146.977 134.267 192.758 139.5 207.855C144.944 223.56 153.803 245.483 153.803 245.483L162.08 245.012C162.08 245.012 155.26 217.31 153.58 204.798C151.28 187.55 161.132 141.36 161.132 141.36L143.654 146.977Z" fill="#FAFAFA"/>
<path d="M162.731 245.21L153.152 245.762L151.615 241.992L162.18 240.895L162.731 245.21Z" fill="#BA68C8"/>
<path opacity="0.2" d="M162.731 245.21L153.152 245.762L151.615 241.992L162.18 240.895L162.731 245.21Z" fill="black"/>
<path d="M153.58 150.499C152.142 155.818 153.345 163.792 156.06 169.384C156.724 165.044 157.43 160.84 158.1 157.077C156.705 154.38 155.167 151.987 153.58 150.499Z" fill="#BA68C8"/>
<path opacity="0.4" d="M153.58 150.499C152.142 155.818 153.345 163.792 156.06 169.384C156.724 165.044 157.43 160.84 158.1 157.077C156.705 154.38 155.167 151.987 153.58 150.499Z" fill="#FAFAFA"/>
<path d="M148.998 145.247C148.998 145.247 162.936 178.56 172.168 196.85C179.608 211.643 207.216 227.125 207.216 227.125L212.176 221.867C212.176 221.867 191.543 203.546 186.397 193.514C169.93 161.405 173.315 147.38 163.916 140.436L148.998 145.247Z" fill="#BA68C8"/>
<path opacity="0.6" d="M148.998 145.247C148.998 145.247 162.936 178.56 172.168 196.85C179.608 211.643 207.216 227.125 207.216 227.125L212.176 221.867C212.176 221.867 191.543 203.546 186.397 193.514C169.93 161.405 173.315 147.38 163.916 140.436L148.998 145.247Z" fill="#FAFAFA"/>
<path d="M213.1 221.117L206.28 228.365L201.965 226.095L209.82 218.085L213.1 221.117Z" fill="#BA68C8"/>
<path opacity="0.2" d="M213.1 221.117L206.28 228.365L201.965 226.095L209.82 218.085L213.1 221.117Z" fill="black"/>
<path d="M163.823 139.153L165.317 140.672C165.435 140.79 165.317 140.988 165.081 141.062L143.846 147.882C143.66 147.944 143.48 147.882 143.431 147.789L142.668 146.041C142.612 145.917 142.736 145.762 142.935 145.694L163.438 139.078C163.503 139.056 163.573 139.052 163.64 139.065C163.708 139.078 163.77 139.108 163.823 139.153Z" fill="#263238"/>
<path d="M161.82 142.333L162.366 142.16C162.477 142.123 162.539 142.036 162.514 141.974L161.498 139.698C161.498 139.636 161.349 139.612 161.243 139.643L160.692 139.822C160.586 139.822 160.518 139.94 160.549 140.008L161.566 142.278C161.584 142.346 161.696 142.371 161.82 142.333Z" fill="#BA68C8"/>
<path opacity="0.6" d="M161.82 142.333L162.366 142.16C162.477 142.123 162.539 142.036 162.514 141.974L161.498 139.698C161.498 139.636 161.349 139.612 161.243 139.643L160.692 139.822C160.586 139.822 160.518 139.94 160.549 140.008L161.566 142.278C161.584 142.346 161.696 142.371 161.82 142.333Z" fill="#FAFAFA"/>
<path d="M145.452 147.616L146.004 147.436C146.109 147.399 146.177 147.318 146.146 147.25L145.13 144.981C145.099 144.913 144.987 144.888 144.875 144.925L144.324 145.099C144.218 145.136 144.15 145.216 144.181 145.285L145.198 147.554C145.229 147.622 145.34 147.647 145.452 147.616Z" fill="#BA68C8"/>
<path opacity="0.6" d="M145.452 147.616L146.004 147.436C146.109 147.399 146.177 147.318 146.146 147.25L145.13 144.981C145.099 144.913 144.987 144.888 144.875 144.925L144.324 145.099C144.218 145.136 144.15 145.216 144.181 145.285L145.198 147.554C145.229 147.622 145.34 147.647 145.452 147.616Z" fill="#FAFAFA"/>
<path d="M153.63 144.975L154.175 144.795C154.287 144.795 154.355 144.677 154.324 144.609L153.307 142.34C153.276 142.271 153.159 142.247 153.053 142.284L152.501 142.464C152.396 142.495 152.328 142.581 152.359 142.643L153.376 144.919C153.406 144.954 153.448 144.979 153.493 144.989C153.539 144.999 153.587 144.994 153.63 144.975Z" fill="#BA68C8"/>
<path opacity="0.6" d="M153.63 144.975L154.175 144.795C154.287 144.795 154.355 144.677 154.324 144.609L153.307 142.34C153.276 142.271 153.159 142.247 153.053 142.284L152.501 142.464C152.396 142.495 152.328 142.581 152.359 142.643L153.376 144.919C153.406 144.954 153.448 144.979 153.493 144.989C153.539 144.999 153.587 144.994 153.63 144.975Z" fill="#FAFAFA"/>
<path d="M138.105 97.2036C138.155 97.619 137.975 97.991 137.702 98.022C137.429 98.053 137.163 97.743 137.113 97.3214C137.063 96.8998 137.243 96.534 137.516 96.503C137.789 96.472 138.055 96.782 138.105 97.2036Z" fill="#263238"/>
<path d="M133.362 97.7802C133.418 98.2018 133.232 98.5676 132.959 98.5986C132.686 98.6296 132.42 98.3196 132.37 97.9042C132.32 97.4888 132.5 97.1168 132.773 97.0796C133.046 97.0424 133.3 97.34 133.362 97.7802Z" fill="#263238"/>
<path d="M132.897 97.092L131.855 96.9246C131.855 96.9246 132.469 97.65 132.897 97.092Z" fill="#263238"/>
<path d="M134.707 98.3506C134.448 99.3521 134.054 100.314 133.536 101.209C133.769 101.333 134.027 101.407 134.291 101.424C134.555 101.441 134.819 101.401 135.067 101.308L134.707 98.3506Z" fill="#A24E3F"/>
<path d="M136.729 102.777C136.699 102.778 136.67 102.767 136.647 102.748C136.624 102.729 136.609 102.702 136.605 102.672C136.603 102.639 136.613 102.606 136.633 102.58C136.654 102.553 136.683 102.535 136.716 102.529C137.239 102.477 137.741 102.303 138.184 102.021C138.627 101.739 138.997 101.357 139.264 100.905C139.271 100.89 139.281 100.876 139.293 100.865C139.305 100.853 139.319 100.844 139.335 100.838C139.351 100.833 139.367 100.83 139.384 100.831C139.4 100.832 139.417 100.836 139.432 100.843C139.447 100.85 139.46 100.86 139.47 100.873C139.481 100.885 139.49 100.899 139.495 100.915C139.5 100.931 139.502 100.947 139.501 100.963C139.5 100.98 139.495 100.996 139.488 101.01C139.206 101.503 138.81 101.921 138.333 102.228C137.856 102.536 137.312 102.724 136.747 102.777H136.729Z" fill="#263238"/>
<path d="M138.694 95.7156C138.635 95.7149 138.577 95.6929 138.533 95.6536C138.304 95.4415 138.027 95.2875 137.726 95.2045C137.425 95.1214 137.108 95.1117 136.803 95.1762C136.771 95.1856 136.738 95.1886 136.705 95.1849C136.672 95.1812 136.64 95.171 136.611 95.1548C136.582 95.1386 136.557 95.1168 136.537 95.0907C136.516 95.0645 136.502 95.0346 136.493 95.0026C136.484 94.9713 136.481 94.9383 136.484 94.9058C136.488 94.8733 136.499 94.842 136.515 94.8136C136.531 94.7852 136.553 94.7603 136.579 94.7406C136.605 94.7209 136.635 94.7067 136.667 94.6988C137.051 94.6144 137.45 94.6226 137.831 94.7229C138.211 94.8231 138.562 95.0125 138.855 95.2754C138.879 95.2985 138.897 95.326 138.91 95.3563C138.923 95.3867 138.929 95.4192 138.929 95.4521C138.929 95.485 138.923 95.5175 138.91 95.5479C138.897 95.5782 138.879 95.6057 138.855 95.6288C138.814 95.6768 138.757 95.7077 138.694 95.7156Z" fill="#263238"/>
<path d="M130.913 95.8582C130.876 95.8669 130.838 95.8669 130.801 95.8582C130.744 95.8266 130.701 95.7743 130.682 95.7119C130.662 95.6496 130.667 95.5821 130.696 95.5234C130.866 95.1689 131.117 94.8597 131.43 94.6215C131.742 94.3833 132.107 94.2228 132.494 94.1532C132.559 94.1462 132.624 94.1651 132.675 94.2057C132.726 94.2463 132.759 94.3054 132.767 94.3702C132.771 94.4028 132.769 94.4359 132.76 94.4677C132.752 94.4994 132.737 94.5292 132.717 94.5551C132.697 94.5811 132.671 94.6028 132.643 94.6189C132.614 94.6351 132.582 94.6454 132.55 94.6492C132.244 94.7062 131.956 94.8356 131.71 95.0264C131.464 95.2173 131.267 95.4642 131.136 95.7466C131.112 95.7833 131.079 95.8129 131.04 95.8325C131 95.8521 130.957 95.861 130.913 95.8582Z" fill="#263238"/>
<path d="M161.82 113.888L162.056 114.185L162.347 114.539C162.545 114.774 162.75 115.016 162.967 115.252C163.395 115.729 163.841 116.2 164.319 116.647C165.253 117.563 166.241 118.425 167.276 119.226C168.327 120.022 169.418 120.765 170.543 121.452C171.108 121.793 171.684 122.115 172.267 122.431L173.154 122.884L173.581 123.101C173.687 123.151 173.792 123.2 173.891 123.237C174.208 123.369 174.547 123.439 174.89 123.442C175.205 123.424 175.507 123.312 175.758 123.12C176.588 122.431 177.245 121.556 177.673 120.565C178.249 119.371 178.712 118.125 179.056 116.845C179.439 115.539 179.756 114.215 180.005 112.877L182.652 113.045C182.735 116.097 182.299 119.141 181.362 122.047C181.097 122.839 180.754 123.603 180.339 124.329C179.879 125.155 179.284 125.899 178.579 126.53C177.739 127.275 176.712 127.779 175.609 127.987C174.536 128.174 173.434 128.097 172.397 127.763C172.155 127.695 171.932 127.608 171.703 127.522L171.163 127.298L170.109 126.858C169.409 126.542 168.721 126.238 168.045 125.854C166.688 125.138 165.381 124.332 164.133 123.442C162.882 122.54 161.691 121.559 160.568 120.503C160.01 119.97 159.47 119.406 158.943 118.823C158.683 118.525 158.422 118.203 158.174 117.918L157.796 117.428C157.666 117.254 157.567 117.118 157.393 116.87L161.82 113.888Z" fill="#B97964"/>
<path d="M166.216 117.155L162.335 123.671L160.444 121.886L164.027 115.357L166.216 117.155Z" fill="#263238"/>
<path d="M157.728 109.046C159.96 109.008 165.379 115.407 165.379 115.407L160.667 123.609C160.667 123.609 154.665 118.321 154.671 115.425C154.678 112.406 155.186 109.12 157.728 109.046Z" fill="#BA68C8"/>
<path opacity="0.3" d="M157.728 109.046C159.96 109.008 165.379 115.407 165.379 115.407L160.667 123.609C160.667 123.609 154.665 118.321 154.671 115.425C154.678 112.406 155.186 109.12 157.728 109.046Z" fill="black"/>
<path d="M211.928 233.039C211.756 233.033 211.59 232.97 211.457 232.86C211.395 232.818 211.345 232.76 211.314 232.693C211.282 232.625 211.269 232.55 211.277 232.475C211.333 231.806 213.013 230.925 213.199 230.826C213.22 230.813 213.243 230.806 213.268 230.806C213.292 230.806 213.316 230.813 213.336 230.826C213.354 230.841 213.368 230.862 213.376 230.885C213.384 230.908 213.385 230.933 213.379 230.956C213.187 231.626 212.759 232.779 212.139 232.984C212.073 233.014 212.001 233.033 211.928 233.039ZM213.051 231.179C212.393 231.551 211.556 232.134 211.525 232.481C211.52 232.515 211.526 232.549 211.542 232.579C211.557 232.609 211.582 232.634 211.612 232.649C211.67 232.705 211.742 232.745 211.821 232.763C211.899 232.782 211.982 232.779 212.059 232.754C212.4 232.655 212.759 232.072 213.051 231.192V231.179Z" fill="#BA68C8"/>
<path d="M211.699 231.415C211.427 231.438 211.154 231.371 210.924 231.223C210.849 231.158 210.799 231.071 210.781 230.974C210.763 230.877 210.778 230.777 210.825 230.69C210.858 230.6 210.912 230.519 210.982 230.453C211.052 230.387 211.136 230.339 211.228 230.311C211.947 230.07 213.261 230.795 213.317 230.826C213.337 230.837 213.354 230.853 213.366 230.873C213.378 230.892 213.385 230.915 213.385 230.938C213.385 230.959 213.378 230.98 213.368 230.998C213.357 231.016 213.342 231.032 213.323 231.043C212.817 231.288 212.262 231.415 211.699 231.415ZM211.569 230.51C211.481 230.509 211.393 230.521 211.308 230.547C211.251 230.565 211.199 230.595 211.155 230.636C211.111 230.677 211.076 230.727 211.054 230.783C210.992 230.931 211.054 230.993 211.054 231.037C211.333 231.272 212.362 231.173 212.951 230.931C212.522 230.703 212.053 230.56 211.569 230.51Z" fill="#BA68C8"/>
<path d="M154.293 252.588C153.859 252.624 153.425 252.522 153.053 252.297C152.956 252.225 152.876 252.132 152.822 252.024C152.767 251.916 152.738 251.797 152.737 251.677C152.73 251.611 152.74 251.545 152.768 251.485C152.795 251.425 152.838 251.373 152.892 251.336C153.456 250.951 155.577 251.918 155.992 252.111C156.016 252.122 156.035 252.141 156.047 252.165C156.06 252.188 156.064 252.215 156.06 252.241C156.058 252.266 156.048 252.29 156.031 252.309C156.014 252.328 155.992 252.341 155.967 252.346C155.419 252.483 154.858 252.564 154.293 252.588ZM153.301 251.515C153.217 251.508 153.133 251.525 153.059 251.565C153.041 251.578 153.026 251.596 153.017 251.617C153.008 251.637 153.006 251.66 153.01 251.683C153.012 251.764 153.033 251.844 153.07 251.916C153.108 251.988 153.161 252.05 153.227 252.098C153.717 252.47 154.882 252.328 155.564 252.204C154.849 251.862 154.086 251.63 153.301 251.515Z" fill="#BA68C8"/>
<path d="M155.967 252.371H155.918C155.217 252.086 153.803 250.951 153.884 250.362C153.884 250.232 153.983 250.071 154.306 250.034C155.546 249.872 156.066 252.135 156.085 252.228C156.09 252.251 156.089 252.274 156.083 252.295C156.076 252.317 156.064 252.337 156.048 252.352C156.024 252.367 155.995 252.373 155.967 252.371ZM154.417 250.269H154.337C154.206 250.269 154.132 250.325 154.126 250.387C154.082 250.722 155.056 251.627 155.775 252.011C155.62 251.478 155.161 250.269 154.417 250.269Z" fill="#BA68C8"/>
<path d="M137.64 96.5092L136.598 96.3418C136.598 96.3418 137.212 97.0672 137.64 96.5092Z" fill="#263238"/>
<path d="M98.8528 53.1836C97.7554 54.56 91.7104 56.1782 86.9054 55.7318C85.25 66.5942 91.0346 79.0996 91.0346 79.0996C91.0346 79.0996 103.59 77.6054 103.9 72.4346C104.21 67.2638 98.8528 53.1836 98.8528 53.1836Z" fill="#BA68C8"/>
<path opacity="0.4" d="M98.8528 53.1836C97.7554 54.56 91.7104 56.1782 86.9054 55.7318C85.25 66.5942 91.0346 79.0996 91.0346 79.0996C91.0346 79.0996 103.59 77.6054 103.9 72.4346C104.21 67.2638 98.8528 53.1836 98.8528 53.1836Z" fill="#FAFAFA"/>
<path d="M193.893 44.919C195.015 46.5 200.713 48.0686 205.121 47.2502C207.483 60.109 203.106 75.3858 203.106 75.3858C203.106 75.3858 191.406 74.3442 190.706 68.2C190.005 62.0558 193.893 44.919 193.893 44.919Z" fill="#BA68C8"/>
<path opacity="0.4" d="M193.893 44.919C195.015 46.5 200.713 48.0686 205.121 47.2502C207.483 60.109 203.106 75.3858 203.106 75.3858C203.106 75.3858 191.406 74.3442 190.706 68.2C190.005 62.0558 193.893 44.919 193.893 44.919Z" fill="#FAFAFA"/>
<path d="M111.6 156.283C111.511 156.297 111.42 156.292 111.332 156.27C111.245 156.247 111.163 156.208 111.091 156.154C111.019 156.1 110.958 156.032 110.913 155.954C110.867 155.876 110.837 155.79 110.825 155.701L96.1 51.2492C96.0879 51.157 96.0945 51.0632 96.1193 50.9736C96.1442 50.8839 96.1868 50.8002 96.2446 50.7273C96.3024 50.6545 96.3743 50.594 96.456 50.5494C96.5376 50.5049 96.6274 50.4772 96.72 50.468C96.8096 50.4558 96.9007 50.4613 96.9881 50.4843C97.0755 50.5073 97.1575 50.5473 97.2295 50.602C97.3015 50.6566 97.362 50.725 97.4075 50.8031C97.4531 50.8811 97.4828 50.9674 97.495 51.057L112.22 155.502C112.232 155.594 112.226 155.688 112.201 155.778C112.176 155.867 112.133 155.951 112.075 156.024C112.018 156.097 111.946 156.157 111.864 156.202C111.782 156.247 111.693 156.274 111.6 156.283Z" fill="#BA68C8"/>
<path opacity="0.2" d="M111.6 156.283C111.511 156.297 111.42 156.292 111.332 156.27C111.245 156.247 111.163 156.208 111.091 156.154C111.019 156.1 110.958 156.032 110.913 155.954C110.867 155.876 110.837 155.79 110.825 155.701L96.1 51.2492C96.0879 51.157 96.0945 51.0632 96.1193 50.9736C96.1442 50.8839 96.1868 50.8002 96.2446 50.7273C96.3024 50.6545 96.3743 50.594 96.456 50.5494C96.5376 50.5049 96.6274 50.4772 96.72 50.468C96.8096 50.4558 96.9007 50.4613 96.9881 50.4843C97.0755 50.5073 97.1575 50.5473 97.2295 50.602C97.3015 50.6566 97.362 50.725 97.4075 50.8031C97.4531 50.8811 97.4828 50.9674 97.495 51.057L112.22 155.502C112.232 155.594 112.226 155.688 112.201 155.778C112.176 155.867 112.133 155.951 112.075 156.024C112.018 156.097 111.946 156.157 111.864 156.202C111.782 156.247 111.693 156.274 111.6 156.283Z" fill="black"/>
<path d="M181.765 148.521C181.858 148.533 181.951 148.527 182.041 148.502C182.131 148.477 182.214 148.434 182.287 148.376C182.36 148.319 182.421 148.247 182.465 148.165C182.51 148.083 182.537 147.994 182.547 147.901L197.303 43.4558C197.316 43.3662 197.311 43.2749 197.289 43.1871C197.267 43.0994 197.228 43.0168 197.173 42.9443C197.119 42.8717 197.051 42.8105 196.973 42.7642C196.896 42.718 196.809 42.6875 196.72 42.6746C196.628 42.6625 196.534 42.6691 196.444 42.6939C196.355 42.7188 196.271 42.7614 196.198 42.8192C196.125 42.877 196.065 42.9489 196.02 43.0306C195.976 43.1122 195.948 43.202 195.939 43.2946L181.183 147.74C181.158 147.92 181.205 148.104 181.314 148.25C181.423 148.396 181.585 148.493 181.765 148.521Z" fill="#BA68C8"/>
<path opacity="0.2" d="M181.765 148.521C181.858 148.533 181.951 148.527 182.041 148.502C182.131 148.477 182.214 148.434 182.287 148.376C182.36 148.319 182.421 148.247 182.465 148.165C182.51 148.083 182.537 147.994 182.547 147.901L197.303 43.4558C197.316 43.3662 197.311 43.2749 197.289 43.1871C197.267 43.0994 197.228 43.0168 197.173 42.9443C197.119 42.8717 197.051 42.8105 196.973 42.7642C196.896 42.718 196.809 42.6875 196.72 42.6746C196.628 42.6625 196.534 42.6691 196.444 42.6939C196.355 42.7188 196.271 42.7614 196.198 42.8192C196.125 42.877 196.065 42.9489 196.02 43.0306C195.976 43.1122 195.948 43.202 195.939 43.2946L181.183 147.74C181.158 147.92 181.205 148.104 181.314 148.25C181.423 148.396 181.585 148.493 181.765 148.521Z" fill="black"/>
<path d="M95.511 53.4564L98.301 73.966C98.318 74.0956 98.363 74.22 98.4327 74.3306C98.5024 74.4412 98.5952 74.5354 98.7048 74.6066C98.8144 74.6779 98.9381 74.7246 99.0675 74.7436C99.1968 74.7625 99.3288 74.7531 99.4542 74.7162C105.691 72.9306 140.374 64.0274 193.651 69.6942C193.877 69.7203 194.105 69.6601 194.289 69.5256C194.473 69.3912 194.599 69.1923 194.643 68.9688C195.647 63.7732 197.377 48.9738 197.817 45.1856C197.844 44.9468 197.775 44.7072 197.627 44.5182C197.478 44.3292 197.262 44.206 197.024 44.175C189.869 43.2698 141.031 37.8572 96.1372 52.4644C95.9341 52.5317 95.7606 52.6673 95.6464 52.8482C95.5322 53.0292 95.4843 53.2441 95.511 53.4564Z" fill="#BA68C8"/>
<path opacity="0.6" d="M95.511 53.4564L98.301 73.966C98.318 74.0956 98.363 74.22 98.4327 74.3306C98.5024 74.4412 98.5952 74.5354 98.7048 74.6066C98.8144 74.6779 98.9381 74.7246 99.0675 74.7436C99.1968 74.7625 99.3288 74.7531 99.4542 74.7162C105.691 72.9306 140.374 64.0274 193.651 69.6942C193.877 69.7203 194.105 69.6601 194.289 69.5256C194.473 69.3912 194.599 69.1923 194.643 68.9688C195.647 63.7732 197.377 48.9738 197.817 45.1856C197.844 44.9468 197.775 44.7072 197.627 44.5182C197.478 44.3292 197.262 44.206 197.024 44.175C189.869 43.2698 141.031 37.8572 96.1372 52.4644C95.9341 52.5317 95.7606 52.6673 95.6464 52.8482C95.5322 53.0292 95.4843 53.2441 95.511 53.4564Z" fill="#FAFAFA"/>
<path d="M99.65 59.4412L102.08 58.8279C102.745 58.66 103.203 58.5877 103.679 58.6409C104.643 58.744 105.507 59.3057 105.795 60.446C105.993 61.2333 105.822 62.0418 104.876 62.757C106.299 62.6723 107.39 63.3931 107.689 64.5741C108.069 66.0808 106.981 67.034 106.472 67.3645C105.977 67.6916 105.543 67.8012 104.552 68.0513L101.987 68.6988L99.65 59.4412ZM102.147 60.0671L101.265 60.2898L101.967 63.0725L102.849 62.8498C103.189 62.7642 103.766 62.5897 104.043 62.3175C104.267 62.1166 104.636 61.6336 104.451 60.9006C104.321 60.3848 103.964 59.9985 103.508 59.9112C103.084 59.8307 102.541 59.9677 102.147 60.0671ZM103.517 63.9519L102.269 64.2671L103.005 67.1856L104.322 66.8532C104.702 66.7573 105.354 66.5928 105.659 66.3715C106.272 65.9422 106.41 65.2866 106.287 64.7979C106.187 64.4043 105.85 63.8685 105.086 63.7582C104.695 63.698 104.237 63.7703 103.517 63.9519Z" fill="white"/>
<path d="M115.36 61.5874L115.671 62.765C115.323 63.1466 114.751 63.7756 113.478 64.1119C112.842 64.28 112.086 64.3784 111.155 63.8136C110.138 63.199 109.783 62.2936 109.629 61.7116C109.128 59.8167 109.994 58.2702 111.645 57.8338C113.067 57.4582 114.296 58.2194 114.853 59.5058C115.028 59.8939 115.1 60.1646 115.16 60.3947L110.883 61.525C111.163 62.4212 112.024 63.2654 113.35 62.9149C114.135 62.7074 114.835 62.2328 115.36 61.5874ZM110.721 60.8005L113.78 59.9921C113.702 59.7521 113.274 58.5183 111.907 58.8796C111.528 58.9797 111.107 59.2502 110.879 59.7016C110.647 60.1393 110.69 60.5191 110.721 60.8005Z" fill="white"/>
<path d="M117.948 56.2621L119.149 55.9867L119.334 56.7918C119.881 55.9194 120.322 55.5884 120.949 55.4444C121.686 55.2754 122.446 55.5178 123.004 56.1366C123.614 55.1636 124.047 54.734 124.77 54.5681C126.094 54.2645 127.017 54.9719 127.374 56.5275L128.251 60.3483L127.05 60.6237L126.192 56.8848C125.97 55.916 125.377 55.5206 124.585 55.7022C124.121 55.8086 123.647 56.2476 123.382 56.7824L124.403 61.2309L123.202 61.5064L122.36 57.8357C122.172 57.0169 121.812 56.3239 120.789 56.5586C120.215 56.6901 119.834 57.0936 119.534 57.6651L120.554 62.1136L119.354 62.389L117.948 56.2621Z" fill="white"/>
<path d="M132.496 55.6196L132.668 56.9383L129.295 57.3798L129.122 56.061L132.496 55.6196Z" fill="white"/>
<path d="M142.442 52.2466L140.066 58.8158L139.647 58.8414L136.419 52.6146L137.774 52.5318L139.701 56.2853L141.1 52.3286L142.442 52.2466Z" fill="white"/>
<path d="M146.533 49.0706C146.953 49.0693 147.276 49.4043 147.277 49.7963C147.278 50.1882 146.943 50.5393 146.537 50.5406C146.061 50.5421 145.808 50.1089 145.807 49.8009C145.806 49.4509 146.113 49.072 146.533 49.0706ZM147.171 51.7146L147.191 58.0006L145.945 58.0045L145.925 51.7186L147.171 51.7146Z" fill="white"/>
<path d="M150.886 51.7357L152.16 51.7272L152.165 52.5252C152.721 51.8914 153.461 51.5925 154.049 51.5885C154.441 51.5859 155.31 51.7201 155.833 52.5846C156.031 52.8913 156.188 53.2542 156.196 54.4022L156.22 57.9861L154.96 57.9946L154.936 54.4106C154.931 53.7387 154.929 53.3887 154.59 53.0129C154.35 52.7485 154.07 52.6244 153.65 52.6272C153.076 52.6311 152.546 52.9706 152.172 53.5191L152.202 58.013L150.928 58.0216L150.886 51.7357Z" fill="white"/>
<path d="M164.594 48.6509L164.293 58.1941L161.634 58.1102C159.171 58.0325 158.648 55.985 158.686 54.7676C158.751 52.7246 160.297 51.6528 161.878 51.7027C162.508 51.7226 162.979 51.8915 163.228 51.9974L163.335 48.6111L164.594 48.6509ZM163.067 57.1049L163.193 53.1029C162.959 52.9694 162.628 52.7909 162.041 52.7724C160.991 52.7393 159.991 53.38 159.941 54.9612C159.907 56.0247 160.338 56.5846 160.806 56.8375C161.136 57.016 161.457 57.0541 162.115 57.0749L163.067 57.1049Z" fill="white"/>
<path d="M169.816 52.2243C171.66 52.5686 172.852 54.1156 172.488 56.0699C172.077 58.2718 170.103 58.9287 168.575 58.6436C166.593 58.2736 165.558 56.5707 165.887 54.8092C166.211 53.0751 167.752 51.8389 169.816 52.2243ZM169.542 53.3124C168.441 53.1069 167.391 53.6943 167.137 55.0567C166.846 56.6119 167.9 57.3782 168.808 57.5477C170.019 57.7738 171.007 57.0609 171.24 55.8086C171.531 54.2534 170.422 53.4769 169.542 53.3124Z" fill="white"/>
<path d="M177.062 62.8665L176.32 62.6605C175.651 61.0944 175.357 60.3735 175.208 59.0246C175.062 57.7199 175.206 56.6265 175.453 55.7362C176.273 52.7819 178.295 51.309 179.769 50.2364L180.511 50.4424C179.327 51.4648 177.767 52.7899 176.831 56.1624C176.217 58.3747 176.217 60.7286 177.062 62.8665Z" fill="white"/>
<path d="M184.881 60.2723L184.622 60.9826C183.953 61.1412 183.691 61.1649 183.323 61.0306C182.81 60.8436 182.601 60.5588 182.649 60.0995C181.988 60.3203 181.376 60.321 180.837 60.1244C179.969 59.808 179.64 58.913 179.918 58.1501C180.344 56.9795 181.539 57.0127 182.611 57.0159L183.784 57.0264L183.899 56.7108C184.168 55.9742 183.923 55.5422 183.213 55.2833C182.568 55.0483 181.8 55.1111 180.99 55.5758L181.455 54.2999C182.112 53.9284 182.853 53.9003 183.708 54.2119C184.905 54.6483 185.631 55.5985 185.142 56.9402L184.034 59.9786C183.953 60.2022 184.003 60.3099 184.148 60.3626C184.266 60.4058 184.546 60.3737 184.881 60.2723ZM182.921 59.394L183.549 57.6709C182.425 57.6485 181.432 57.6741 181.178 58.3712C181.001 58.8579 181.231 59.3293 181.718 59.5067C182.086 59.641 182.495 59.5815 182.921 59.394Z" fill="white"/>
<path d="M188.748 53.276L189.449 53.5958C189.859 55.2603 190.042 56.0056 189.977 57.3611C189.917 58.6726 189.603 59.73 189.219 60.5705C187.946 63.3595 185.718 64.4971 184.094 65.3251L183.393 65.0053C184.724 64.1814 186.471 63.1172 187.919 59.9461C188.879 57.8448 189.248 55.52 188.748 53.276Z" fill="white"/>
<path d="M191.271 66.3312C191.069 66.6999 190.591 66.9333 190.124 66.6784C189.743 66.4705 189.516 65.98 189.765 65.5253C189.979 65.132 190.463 64.9176 190.93 65.1725C191.409 65.434 191.465 65.9748 191.271 66.3312ZM194.819 58.076C195.482 58.4382 194.817 59.6861 194.562 60.1531C193.744 61.6524 192.676 62.9672 192.092 63.6855C192.02 63.7894 191.628 64.2139 191.518 64.1536C191.211 63.9859 192.393 60.8834 193.171 59.4578C193.359 59.1137 194.13 57.7005 194.819 58.076Z" fill="white"/>
</svg>
