<svg id="svg" xmlns="http://www.w3.org/2000/svg" xmlns:xlink="http://www.w3.org/1999/xlink" width="400" height="35.4" viewBox="0, 0, 400,35.4"><g id="svgg"><path id="path0" d="M61.527 0.238 C 52.376 1.093,45.977 10.325,48.363 19.229 C 49.801 24.595,54.344 28.854,59.312 29.491 C 59.856 29.561,60.595 29.663,60.955 29.719 L 61.610 29.820 60.929 30.660 C 60.142 31.631,59.533 32.781,59.239 33.850 L 59.032 34.600 60.916 34.600 C 62.788 34.600,62.800 34.597,62.800 34.104 C 62.800 31.468,64.457 30.975,67.806 32.612 C 73.126 35.214,76.354 34.631,77.692 30.825 C 78.309 29.071,78.252 29.000,76.226 29.000 L 74.451 29.000 74.330 29.750 C 74.027 31.638,73.589 31.717,70.250 30.480 C 67.997 29.646,67.846 29.511,68.939 29.306 C 72.676 28.605,77.336 23.326,78.301 18.700 C 80.470 8.304,72.233 -0.762,61.527 0.238 M186.800 0.228 C 176.304 1.125,169.828 12.522,174.485 21.900 C 179.061 31.114,191.192 33.428,198.732 26.526 C 209.593 16.583,201.599 -1.036,186.800 0.228 M310.500 0.233 C 299.703 1.159,293.328 13.525,298.832 22.865 C 303.784 31.270,315.489 33.109,322.480 26.580 C 333.491 16.297,325.597 -1.062,310.500 0.233 M382.845 0.237 C 370.885 1.229,364.856 15.589,372.506 24.863 C 381.703 36.012,399.836 29.616,399.815 15.230 C 399.802 6.164,392.214 -0.539,382.845 0.237 M355.100 0.478 C 350.359 1.970,348.737 7.691,352.032 11.297 C 353.199 12.574,354.680 13.520,356.876 14.391 C 360.992 16.024,362.894 18.239,362.894 21.400 C 362.894 28.077,353.644 29.709,351.924 23.337 C 351.770 22.767,351.566 22.022,351.472 21.683 L 351.300 21.065 349.630 21.667 L 347.960 22.269 348.088 23.085 C 349.184 30.085,358.595 32.909,363.812 27.804 C 368.763 22.959,366.827 15.456,359.800 12.260 C 354.958 10.058,353.978 9.161,353.957 6.913 C 353.923 3.064,358.648 1.924,360.221 5.403 C 360.754 6.584,360.540 6.547,362.433 5.785 L 363.966 5.169 363.661 4.434 C 362.323 1.211,358.453 -0.576,355.100 0.478 M10.822 1.042 C 10.151 2.810,0.200 30.045,0.200 30.114 C 0.200 30.161,1.041 30.200,2.070 30.200 L 3.940 30.200 6.218 23.996 L 8.495 17.792 12.588 17.846 L 16.680 17.900 18.890 24.047 L 21.100 30.195 22.950 30.197 C 23.968 30.199,24.799 30.133,24.797 30.050 C 24.795 29.968,22.419 23.330,19.517 15.300 L 14.240 0.700 12.618 0.642 C 11.086 0.587,10.987 0.609,10.822 1.042 M27.400 15.400 L 27.400 30.200 29.200 30.200 L 31.000 30.200 31.000 25.300 L 31.000 20.400 32.785 20.400 L 34.569 20.400 37.718 25.300 L 40.867 30.200 42.945 30.200 C 44.554 30.200,44.990 30.143,44.875 29.950 C 44.794 29.813,43.348 27.564,41.663 24.953 C 38.128 19.475,38.341 20.035,39.550 19.400 C 44.708 16.687,46.502 9.415,43.138 4.856 C 40.559 1.361,38.563 0.600,31.979 0.600 L 27.400 0.600 27.400 15.400 M82.400 11.090 C 82.400 22.393,82.437 22.878,83.450 24.893 C 87.081 32.120,97.761 32.231,101.545 25.081 C 102.758 22.790,102.794 22.382,102.797 10.950 L 102.800 0.600 100.905 0.600 L 99.010 0.600 98.955 11.550 L 98.900 22.500 98.410 23.495 C 95.961 28.473,89.115 28.440,86.659 23.438 L 86.100 22.300 86.043 11.450 L 85.987 0.600 84.193 0.600 L 82.400 0.600 82.400 11.090 M107.600 15.400 L 107.600 30.200 109.400 30.200 L 111.200 30.200 111.200 15.400 L 111.200 0.600 109.400 0.600 L 107.600 0.600 107.600 15.400 M114.600 2.100 L 114.600 3.600 118.100 3.600 L 121.600 3.600 121.600 16.900 L 121.600 30.200 123.399 30.200 L 125.197 30.200 125.249 16.950 L 125.300 3.700 128.850 3.645 L 132.400 3.591 132.400 2.095 L 132.400 0.600 123.500 0.600 L 114.600 0.600 114.600 2.100 M135.400 15.400 L 135.400 30.200 143.508 30.200 L 151.617 30.200 151.558 28.650 L 151.500 27.100 145.250 27.047 L 139.000 26.994 139.000 22.000 L 139.000 17.006 145.250 16.953 L 151.500 16.900 151.558 15.353 L 151.617 13.806 145.358 13.753 L 139.100 13.700 139.100 8.700 L 139.100 3.700 145.350 3.647 L 151.600 3.594 151.600 2.097 L 151.600 0.600 143.500 0.600 L 135.400 0.600 135.400 15.400 M154.600 2.095 L 154.600 3.591 158.150 3.645 L 161.700 3.700 161.751 16.950 L 161.803 30.200 163.601 30.200 L 165.400 30.200 165.400 16.900 L 165.400 3.600 168.900 3.600 L 172.400 3.600 172.400 2.100 L 172.400 0.600 163.500 0.600 L 154.600 0.600 154.600 2.095 M218.000 15.423 L 218.000 30.246 222.750 30.149 C 226.751 30.068,227.752 29.986,229.100 29.628 C 244.426 25.554,243.369 3.583,227.713 0.810 C 227.061 0.695,224.608 0.600,222.263 0.600 L 218.000 0.600 218.000 15.423 M243.800 15.400 L 243.800 30.200 251.800 30.200 L 259.800 30.200 259.800 28.600 L 259.800 27.000 253.600 27.000 L 247.400 27.000 247.400 22.000 L 247.400 17.000 253.600 17.000 L 259.800 17.000 259.800 15.400 L 259.800 13.800 253.597 13.800 L 247.393 13.800 247.447 8.750 L 247.500 3.700 253.650 3.647 L 259.800 3.594 259.800 2.097 L 259.800 0.600 251.800 0.600 L 243.800 0.600 243.800 15.400 M275.000 15.389 L 275.000 30.200 280.258 30.200 C 284.334 30.200,285.780 30.131,286.692 29.894 C 292.875 28.283,296.068 21.527,293.309 15.893 C 292.659 14.565,290.391 12.025,289.634 11.776 C 289.443 11.714,289.569 11.389,290.080 10.630 C 292.297 7.336,291.081 2.956,287.454 1.170 C 286.530 0.715,286.318 0.698,280.750 0.639 L 275.000 0.577 275.000 15.389 M331.400 15.400 L 331.400 30.200 338.500 30.200 L 345.600 30.200 345.600 28.600 L 345.600 27.000 340.300 27.000 L 335.000 27.000 335.000 13.800 L 335.000 0.600 333.200 0.600 L 331.400 0.600 331.400 15.400 M66.658 3.804 C 75.002 6.395,77.793 17.164,71.766 23.509 C 64.241 31.430,51.600 26.284,51.600 15.300 C 51.600 7.182,59.100 1.456,66.658 3.804 M190.400 3.484 C 199.812 5.181,203.346 17.102,196.463 23.935 C 191.696 28.667,184.574 28.503,179.878 23.552 C 172.032 15.281,179.269 1.478,190.400 3.484 M315.400 3.727 C 324.141 6.180,326.876 17.775,320.199 24.073 C 315.454 28.548,308.614 28.438,303.988 23.812 C 295.369 15.193,303.743 0.455,315.400 3.727 M387.638 3.730 C 396.315 6.306,399.109 17.462,392.686 23.886 C 385.246 31.325,372.821 25.997,372.803 15.360 C 372.789 7.331,380.200 1.522,387.638 3.730 M37.236 4.245 C 42.426 6.621,42.632 13.958,37.584 16.624 C 36.803 17.036,36.367 17.100,33.850 17.164 L 31.000 17.238 31.000 10.552 C 31.000 6.875,31.068 3.797,31.150 3.711 C 31.525 3.322,36.095 3.723,37.236 4.245 M285.808 4.061 C 287.979 5.208,288.208 8.418,286.214 9.751 C 285.556 10.190,285.386 10.207,282.114 10.155 L 278.700 10.100 278.644 7.109 C 278.614 5.464,278.634 4.001,278.688 3.859 C 278.887 3.342,284.763 3.508,285.808 4.061 M227.657 4.095 C 236.314 5.929,239.378 17.281,232.948 23.693 C 230.578 26.056,227.941 27.000,223.708 27.000 L 221.600 27.000 221.600 15.400 L 221.600 3.800 223.950 3.803 C 225.243 3.805,226.911 3.936,227.657 4.095 M14.093 10.779 C 14.817 12.803,15.367 14.500,15.316 14.551 C 15.202 14.664,9.946 14.612,9.830 14.497 C 9.784 14.451,10.362 12.701,11.113 10.607 C 11.865 8.513,12.547 6.867,12.629 6.950 C 12.711 7.032,13.370 8.756,14.093 10.779 M286.841 14.060 C 291.855 16.522,291.863 23.964,286.854 26.430 C 285.960 26.871,285.674 26.900,282.300 26.900 L 278.700 26.900 278.647 20.402 C 278.618 16.828,278.641 13.783,278.697 13.635 C 278.919 13.057,285.496 13.400,286.841 14.060 " stroke="none" fill="#000000" fill-rule="evenodd"></path></g></svg>