<svg width="596" height="596" viewBox="0 0 596 596" fill="none" xmlns="http://www.w3.org/2000/svg">
<path d="M298 569.693C453.094 569.693 578.823 497.102 578.823 407.557C578.823 318.012 453.094 245.421 298 245.421C142.906 245.421 17.1768 318.012 17.1768 407.557C17.1768 497.102 142.906 569.693 298 569.693Z" fill="#F0F0F0"/>
<path d="M239.89 530.416C293.372 530.416 336.728 505.387 336.728 474.511C336.728 443.636 293.372 418.606 239.89 418.606C186.408 418.606 143.052 443.636 143.052 474.511C143.052 505.387 186.408 530.416 239.89 530.416Z" fill="#E0E0E0"/>
<path d="M515.278 404.565L503.918 398.009C503.918 398.009 501.141 373.692 502.988 354.858C505.587 328.396 522.68 296.546 543.063 304.031C563.446 311.517 533.718 338.456 527.102 360.902C520.487 383.347 515.278 404.565 515.278 404.565Z" fill="#BA68C8"/>
<path opacity="0.15" d="M515.278 404.565L503.918 398.009C503.918 398.009 501.141 373.692 502.988 354.858C505.587 328.396 522.68 296.546 543.063 304.031C563.446 311.517 533.718 338.456 527.102 360.902C520.487 383.347 515.278 404.565 515.278 404.565Z" fill="black"/>
<path d="M509.306 401.811C509.487 401.802 509.658 401.722 509.78 401.588C509.903 401.454 509.968 401.277 509.961 401.096C507.971 342.294 537.246 312.709 537.532 312.423C537.662 312.293 537.735 312.118 537.735 311.934C537.735 311.751 537.662 311.575 537.532 311.445C537.469 311.382 537.394 311.331 537.311 311.296C537.228 311.262 537.139 311.244 537.05 311.244C536.96 311.244 536.871 311.262 536.788 311.296C536.705 311.331 536.63 311.382 536.567 311.445C536.257 311.732 506.564 341.746 508.579 401.143C508.582 401.235 508.603 401.326 508.641 401.409C508.68 401.493 508.734 401.568 508.802 401.63C508.87 401.692 508.949 401.74 509.036 401.771C509.122 401.802 509.214 401.816 509.306 401.811Z" fill="white"/>
<path d="M522.418 408.653L514.336 403.992C514.336 403.992 512.953 387.304 521.142 367.04C528.294 349.399 545.936 334.749 554.828 337.824C563.72 340.9 563.494 347.205 559.155 353.821C554.816 360.437 528.461 376.183 522.418 408.653Z" fill="#BA68C8"/>
<path d="M518.15 406.889C518.333 406.886 518.507 406.812 518.636 406.683C518.765 406.554 518.839 406.38 518.842 406.198C518.675 369.008 553.589 343.88 553.946 343.63C554.021 343.579 554.084 343.513 554.132 343.437C554.181 343.361 554.213 343.275 554.228 343.186C554.242 343.097 554.238 343.006 554.217 342.918C554.195 342.831 554.156 342.748 554.101 342.676C553.996 342.529 553.837 342.429 553.658 342.398C553.48 342.367 553.297 342.407 553.147 342.509C552.79 342.76 517.304 368.316 517.459 406.198C517.459 406.381 517.532 406.557 517.662 406.687C517.791 406.816 517.967 406.889 518.15 406.889Z" fill="white"/>
<path d="M94.9547 389.963L105.444 382.882C105.444 382.882 110.057 355.467 105.766 331.281C99.7346 297.357 76.288 286.08 67.944 289.656C59.6 293.232 57.812 303.328 73.3914 322.687C82.6294 334.07 94.6329 358.375 94.9547 389.963Z" fill="#BA68C8"/>
<g opacity="0.15">
<path d="M94.9547 389.963L105.444 382.882C105.444 382.882 110.057 355.467 105.766 331.281C99.7346 297.357 76.288 286.08 67.944 289.656C59.6 293.232 57.812 303.328 73.3914 322.687C82.6294 334.07 94.6329 358.375 94.9547 389.963Z" fill="black"/>
</g>
<path d="M98.5546 376.375H98.4474C98.3402 376.368 98.2357 376.339 98.1406 376.289C98.0456 376.239 97.9621 376.169 97.8958 376.085C97.8294 376.001 97.7815 375.903 97.7554 375.799C97.7293 375.695 97.7254 375.586 97.7441 375.481C101.535 343.547 88.0531 308.884 73.3796 295.092C73.2384 294.949 73.1592 294.757 73.1592 294.556C73.1592 294.355 73.2384 294.162 73.3796 294.019C73.4495 293.948 73.533 293.891 73.6251 293.853C73.7172 293.814 73.8161 293.794 73.916 293.794C74.0159 293.794 74.1148 293.814 74.2069 293.853C74.299 293.891 74.3825 293.948 74.4524 294.019C89.4001 308.061 103.132 343.297 99.2937 375.695C99.2712 375.878 99.1845 376.046 99.0491 376.171C98.9137 376.295 98.7384 376.368 98.5546 376.375Z" fill="white"/>
<path d="M67.4911 408.486C65.8223 409.488 60.9589 405.876 59.6119 405.006C57.3035 403.499 55.4231 401.421 54.1526 398.974C52.7273 396.2 52.1983 393.051 52.6387 389.963C52.8829 388.351 53.2373 386.758 53.6996 385.195C54.1168 383.633 54.534 382.072 54.8916 380.498C55.4203 378.968 55.6233 377.344 55.4876 375.73C55.0227 372.548 52.15 370.366 49.5276 368.495C46.643 366.409 43.5676 363.655 43.5676 359.817C43.7147 356.801 44.8689 353.922 46.8456 351.64C48.6336 349.256 50.7792 347.182 52.3884 344.691C53.6468 342.964 54.289 340.865 54.2122 338.731C54.005 337.415 53.5347 336.154 52.8295 335.023C51.4229 332.544 49.5991 330.255 48.6098 327.621C47.6204 324.987 47.6919 321.602 49.8018 319.635C51.4825 318.026 54.0453 317.763 56.3697 317.871C58.56 318.089 60.6758 318.785 62.5681 319.909C68.7307 323.187 72.3544 330.339 78.8747 332.83C81.3898 333.784 84.1314 333.951 86.7419 334.594C89.3523 335.238 92.0463 336.513 93.2979 338.886C95.7653 343.594 91.4622 349.53 93.2263 354.525C94.7998 358.959 99.1863 360.58 101.666 364.549C102.672 366.312 103.09 368.35 102.858 370.366C102.718 373.77 101.954 377.12 100.605 380.248C99.0528 383.492 97.3012 386.637 95.36 389.665C95.36 389.665 67.7414 408.331 67.4911 408.486Z" fill="#BA68C8"/>
<path d="M83.6068 398.605C83.5067 398.604 83.4077 398.582 83.3158 398.543C83.2238 398.503 83.1406 398.445 83.0709 398.373C83.0011 398.302 82.9463 398.217 82.9094 398.123C82.8725 398.03 82.8543 397.931 82.8559 397.83C83.5234 367.649 68.6711 334.654 58.1576 325.118C58.0082 324.984 57.9181 324.795 57.9069 324.594C57.8958 324.393 57.9645 324.196 58.098 324.046C58.168 323.974 58.2514 323.918 58.3435 323.879C58.4356 323.84 58.5345 323.82 58.6344 323.82C58.7343 323.82 58.8332 323.84 58.9254 323.879C59.0175 323.918 59.1009 323.974 59.1708 324.046C69.8988 333.701 85.0492 367.268 84.3697 397.866C84.3682 397.965 84.3472 398.062 84.308 398.153C84.2688 398.243 84.2122 398.325 84.1414 398.394C84.0705 398.462 83.9869 398.516 83.8951 398.553C83.8034 398.589 83.7055 398.607 83.6068 398.605Z" fill="white"/>
<path d="M78.0403 361.832C77.9698 361.849 77.8961 361.849 77.8257 361.832C68.0751 359.018 55.9883 358.732 55.8691 358.72C55.7694 358.719 55.6711 358.698 55.5798 358.658C55.4884 358.618 55.406 358.56 55.3372 358.488C55.2684 358.416 55.2147 358.331 55.1791 358.238C55.1435 358.145 55.1268 358.045 55.13 357.946C55.1282 357.845 55.1472 357.745 55.1859 357.652C55.2247 357.559 55.2823 357.476 55.3551 357.406C55.428 357.337 55.5144 357.283 55.6091 357.249C55.7037 357.214 55.8044 357.2 55.9048 357.207C56.024 357.207 68.3016 357.505 78.2429 360.365C78.435 360.423 78.5965 360.555 78.6925 360.731C78.7884 360.907 78.8111 361.114 78.7555 361.307C78.709 361.46 78.6142 361.594 78.4853 361.689C78.3563 361.783 78.2002 361.833 78.0403 361.832Z" fill="white"/>
<path d="M358.983 369.21L354.465 366.6C353.712 366.111 353.086 365.452 352.636 364.675C352.187 363.898 351.927 363.026 351.878 362.13V174.366C351.928 173.472 352.186 172.601 352.633 171.825C353.081 171.048 353.704 170.388 354.453 169.896L480.03 97.3987C480.83 96.9934 481.714 96.7822 482.611 96.7822C483.508 96.7822 484.392 96.9934 485.192 97.3987L489.709 100.009C490.462 100.498 491.089 101.158 491.538 101.934C491.988 102.711 492.247 103.583 492.296 104.479V292.243C492.247 293.138 491.988 294.008 491.541 294.785C491.094 295.561 490.47 296.222 489.721 296.713L364.144 369.222C363.344 369.629 362.459 369.839 361.562 369.837C360.665 369.835 359.781 369.62 358.983 369.21Z" fill="#455A64"/>
<path d="M492.296 104.062C492.117 102.727 491.032 102.238 489.733 102.989L364.144 175.499C363.385 175.975 362.757 176.635 362.32 177.418L352.629 171.827C353.063 171.039 353.69 170.374 354.453 169.896L480.03 97.3987C480.83 96.9934 481.714 96.7822 482.611 96.7822C483.508 96.7822 484.392 96.9934 485.191 97.3987L489.709 100.009C490.407 100.458 490.999 101.053 491.446 101.753C491.892 102.452 492.182 103.24 492.296 104.062Z" fill="#455A64"/>
<path d="M363.703 369.425C362.94 369.734 362.119 369.876 361.297 369.841C360.474 369.806 359.669 369.595 358.935 369.222L354.405 366.6C353.656 366.109 353.033 365.448 352.586 364.672C352.138 363.895 351.88 363.025 351.831 362.13V174.366C351.861 173.47 352.12 172.596 352.582 171.827L362.272 177.418C361.802 178.187 361.539 179.066 361.51 179.969V367.732C361.557 369.21 362.487 369.89 363.703 369.425Z" fill="#263238"/>
<path d="M361.557 179.992V367.732C361.557 369.377 362.749 370.045 364.144 369.222L489.721 296.713C490.47 296.221 491.094 295.561 491.541 294.784C491.988 294.008 492.247 293.137 492.296 292.243V104.479C492.296 102.834 491.104 102.166 489.721 102.989L364.144 175.498C363.388 175.989 362.76 176.653 362.31 177.434C361.86 178.215 361.602 179.092 361.557 179.992Z" fill="#37474F"/>
<path d="M332.234 251.513C330.613 250.547 323.091 246.268 322.698 246.041C322.392 245.858 322.13 245.609 321.933 245.312C321.736 245.014 321.608 244.676 321.558 244.323C321.509 243.969 321.54 243.609 321.649 243.269C321.757 242.929 321.941 242.618 322.186 242.358L351.878 210.508L361.557 216.063L331.877 247.937C331.643 248.185 331.466 248.48 331.357 248.803C331.247 249.125 331.208 249.467 331.242 249.806C331.276 250.145 331.382 250.472 331.553 250.767C331.724 251.061 331.956 251.315 332.234 251.513Z" fill="#455A64"/>
<path d="M361.557 216.098L331.877 247.936C331.547 248.288 331.332 248.732 331.259 249.208C331.187 249.685 331.261 250.172 331.471 250.606C331.682 251.04 332.019 251.4 332.438 251.638C332.857 251.877 333.339 251.982 333.819 251.941L361.557 249.652V216.098Z" fill="#37474F"/>
<path d="M426.927 158.775C441.564 150.323 453.425 157.177 453.425 174.08C453.425 190.982 441.564 211.521 426.927 219.972C412.289 228.423 400.428 221.569 400.428 204.679C400.428 187.788 412.289 167.226 426.927 158.775Z" fill="#BA68C8"/>
<path d="M426.736 172.078C431.504 169.336 435.33 171.553 435.33 177.036C435.168 180.017 434.305 182.917 432.812 185.502C431.318 188.087 429.237 190.283 426.736 191.913C421.968 194.654 418.13 192.437 418.13 186.954C418.293 183.972 419.158 181.071 420.653 178.486C422.149 175.902 424.233 173.706 426.736 172.078Z" fill="white"/>
<path d="M443.686 201.306C443.686 192.306 437.357 188.647 429.561 193.152L424.686 195.966C416.89 200.471 410.561 211.462 410.561 220.437V222.905C412.032 223.375 413.569 223.613 415.114 223.608C419.296 223.466 423.368 222.233 426.927 220.032C433.703 215.858 439.435 210.191 443.686 203.463V201.306Z" fill="white"/>
<path d="M410.143 303.638L443.71 284.256C445.14 283.434 446.297 284.101 446.297 285.746V296.558C446.248 297.454 445.988 298.326 445.539 299.103C445.089 299.88 444.463 300.539 443.71 301.028L410.143 320.41C408.713 321.232 407.557 320.565 407.557 318.92V308.108C407.605 307.212 407.865 306.34 408.314 305.563C408.764 304.787 409.391 304.127 410.143 303.638Z" fill="#BA68C8"/>
<path d="M393.706 279.489L460.112 241.131C461.816 240.141 463.211 240.94 463.211 242.919V246.936C463.153 248.01 462.842 249.056 462.303 249.988C461.765 250.92 461.014 251.712 460.112 252.3L393.67 290.658C391.965 291.647 390.583 290.849 390.583 288.87V284.889C390.637 283.805 390.948 282.751 391.492 281.812C392.035 280.873 392.794 280.076 393.706 279.489Z" fill="#FAFAFA"/>
<path d="M401.477 251.727C402.383 251.203 403.087 251.119 403.587 251.489C404.088 251.858 404.338 252.681 404.338 253.944C404.363 255.097 404.106 256.239 403.587 257.27C403.119 258.201 402.384 258.973 401.477 259.487L399.689 260.524V264.374C399.686 264.507 399.653 264.637 399.594 264.756C399.552 264.863 399.477 264.955 399.379 265.018L398.473 265.542C398.443 265.566 398.405 265.578 398.366 265.578C398.328 265.578 398.29 265.566 398.259 265.542C398.195 265.462 398.165 265.359 398.175 265.256V254.111C398.174 253.979 398.203 253.849 398.259 253.73C398.304 253.624 398.379 253.533 398.473 253.467L401.477 251.727ZM399.689 258.366L401.418 257.365C401.835 257.13 402.188 256.794 402.443 256.388C402.714 255.909 402.846 255.364 402.824 254.814C402.824 254.171 402.693 253.801 402.443 253.694C402.266 253.651 402.082 253.649 401.904 253.688C401.726 253.727 401.56 253.807 401.418 253.92L399.689 254.922V258.366Z" fill="#FAFAFA"/>
<path d="M409.333 247.185C409.452 247.114 409.547 247.114 409.607 247.185C409.683 247.292 409.736 247.414 409.762 247.543L412.515 256.865C412.515 256.865 412.515 256.936 412.515 256.972C412.513 257.105 412.481 257.235 412.42 257.353C412.378 257.461 412.303 257.553 412.205 257.615L411.395 258.08C411.252 258.164 411.144 258.176 411.085 258.08C411.027 258.02 410.986 257.946 410.966 257.866L410.477 256.233L406.901 258.283L406.424 260.476C406.39 260.595 406.346 260.711 406.293 260.822C406.234 260.967 406.124 261.086 405.983 261.156L405.173 261.621C405.142 261.646 405.104 261.66 405.065 261.66C405.026 261.66 404.988 261.646 404.958 261.621C404.896 261.544 404.866 261.445 404.875 261.346C404.868 261.303 404.868 261.259 404.875 261.215L407.616 248.723C407.649 248.54 407.701 248.36 407.771 248.187C407.829 248.061 407.925 247.957 408.045 247.889L409.333 247.185ZM409.952 254.409L408.76 250.201L407.568 255.827L409.952 254.409Z" fill="#FAFAFA"/>
<path d="M416.687 242.763C417.086 242.511 417.54 242.36 418.01 242.322C418.343 242.292 418.676 242.367 418.964 242.536C419.225 242.706 419.429 242.951 419.548 243.24C419.678 243.533 419.751 243.849 419.763 244.169C419.771 244.302 419.742 244.434 419.679 244.551C419.637 244.659 419.562 244.751 419.465 244.813L418.678 245.266C418.547 245.338 418.451 245.35 418.392 245.266C418.318 245.218 418.257 245.152 418.213 245.075C418.165 244.968 418.096 244.872 418.01 244.792C417.924 244.712 417.823 244.65 417.712 244.611C417.349 244.559 416.981 244.653 416.687 244.873C416.494 244.997 416.311 245.137 416.139 245.29C415.962 245.453 415.806 245.637 415.674 245.838C415.547 246.032 415.443 246.24 415.364 246.458C415.294 246.665 415.258 246.883 415.257 247.102C415.243 247.302 415.28 247.503 415.364 247.686C415.401 247.75 415.452 247.804 415.515 247.843C415.577 247.883 415.648 247.907 415.722 247.912C415.943 247.951 416.168 247.951 416.389 247.912L417.426 247.686C417.813 247.571 418.216 247.523 418.618 247.543C418.906 247.542 419.186 247.634 419.417 247.805C419.635 247.989 419.793 248.234 419.87 248.508C419.987 248.894 420.039 249.297 420.025 249.7C420.024 250.233 419.948 250.763 419.798 251.274C419.653 251.799 419.441 252.304 419.167 252.776C418.878 253.259 418.534 253.707 418.141 254.111C417.741 254.527 417.283 254.884 416.783 255.172C416.416 255.395 416.012 255.553 415.591 255.637C415.248 255.702 414.893 255.674 414.565 255.553C414.267 255.415 414.021 255.185 413.862 254.897C413.667 254.53 413.561 254.122 413.552 253.705C413.551 253.57 413.58 253.436 413.636 253.312C413.689 253.211 413.767 253.124 413.862 253.062L414.649 252.609C414.768 252.537 414.863 252.513 414.935 252.549C415.007 252.585 415.054 252.645 415.102 252.752C415.151 252.874 415.215 252.991 415.293 253.098C415.367 253.201 415.471 253.28 415.591 253.324C415.747 253.36 415.911 253.36 416.067 253.324C416.32 253.264 416.562 253.164 416.783 253.026C417.014 252.894 417.233 252.743 417.438 252.573C417.839 252.256 418.158 251.847 418.368 251.381C418.463 251.142 418.512 250.887 418.511 250.63C418.522 250.537 418.514 250.442 418.488 250.352C418.461 250.262 418.416 250.178 418.356 250.106C418.292 250.049 418.216 250.007 418.133 249.982C418.051 249.957 417.964 249.951 417.879 249.963C417.609 249.974 417.341 250.018 417.081 250.094C416.771 250.165 416.413 250.249 415.996 250.32C415.677 250.4 415.346 250.424 415.018 250.392C414.761 250.375 414.516 250.27 414.327 250.094C414.121 249.892 413.976 249.635 413.91 249.355C413.814 248.941 413.77 248.516 413.779 248.091C413.778 247.566 413.854 247.044 414.005 246.542C414.148 246.024 414.356 245.527 414.625 245.063C414.883 244.603 415.195 244.174 415.555 243.788C415.882 243.394 416.263 243.049 416.687 242.763Z" fill="#FAFAFA"/>
<path d="M424.519 238.258C424.915 237.998 425.37 237.842 425.842 237.805C426.174 237.776 426.507 237.851 426.796 238.019C427.05 238.193 427.249 238.438 427.368 238.723C427.498 239.016 427.571 239.332 427.582 239.652C427.596 239.785 427.567 239.919 427.499 240.034C427.457 240.142 427.382 240.233 427.284 240.296L426.498 240.749C426.378 240.82 426.283 240.844 426.211 240.749C426.135 240.701 426.077 240.63 426.045 240.546C425.936 240.337 425.753 240.176 425.532 240.093C425.354 240.067 425.173 240.077 424.999 240.122C424.825 240.167 424.662 240.246 424.519 240.356C424.32 240.477 424.132 240.617 423.959 240.773C423.785 240.936 423.633 241.12 423.506 241.321C423.374 241.512 423.27 241.721 423.196 241.941C423.122 242.148 423.081 242.365 423.076 242.585C423.062 242.785 423.099 242.986 423.184 243.169C423.22 243.233 423.272 243.287 423.334 243.326C423.397 243.366 423.468 243.389 423.541 243.395C423.762 243.434 423.988 243.434 424.209 243.395L425.246 243.169C425.634 243.061 426.036 243.012 426.438 243.026C426.726 243.023 427.006 243.115 427.237 243.288C427.455 243.474 427.616 243.718 427.701 243.991C427.807 244.379 427.855 244.781 427.844 245.183C427.844 245.716 427.767 246.245 427.618 246.757C427.472 247.282 427.26 247.787 426.986 248.259C426.699 248.746 426.355 249.199 425.961 249.605C425.559 250.011 425.106 250.364 424.614 250.654C424.247 250.877 423.843 251.034 423.422 251.119C423.083 251.184 422.733 251.155 422.409 251.036C422.105 250.902 421.854 250.671 421.694 250.38C421.498 250.014 421.396 249.604 421.396 249.188C421.382 249.055 421.411 248.922 421.479 248.807C421.521 248.699 421.596 248.607 421.694 248.545L422.48 248.092C422.6 248.02 422.707 247.996 422.767 248.032C422.808 248.051 422.845 248.079 422.874 248.114C422.902 248.149 422.923 248.19 422.933 248.235C422.987 248.355 423.051 248.471 423.124 248.58C423.203 248.685 423.311 248.764 423.434 248.807C423.591 248.843 423.754 248.843 423.911 248.807C424.164 248.747 424.406 248.646 424.626 248.509C424.852 248.374 425.067 248.223 425.27 248.056C425.479 247.892 425.664 247.7 425.818 247.484C425.972 247.278 426.1 247.054 426.2 246.816C426.295 246.577 426.344 246.322 426.343 246.065C426.354 245.972 426.346 245.877 426.319 245.787C426.293 245.697 426.248 245.613 426.188 245.541C426.123 245.484 426.047 245.442 425.965 245.417C425.883 245.392 425.796 245.386 425.711 245.398C425.445 245.414 425.181 245.458 424.924 245.529C424.614 245.6 424.245 245.684 423.839 245.755C423.516 245.835 423.181 245.859 422.85 245.827C422.591 245.813 422.346 245.708 422.159 245.529C421.956 245.326 421.816 245.07 421.753 244.79C421.647 244.381 421.599 243.96 421.61 243.538C421.615 243.01 421.691 242.484 421.837 241.977C421.984 241.461 422.192 240.965 422.457 240.499C422.715 240.035 423.031 239.606 423.398 239.223C423.719 238.845 424.097 238.519 424.519 238.258Z" fill="#FAFAFA"/>
<path d="M433.208 239.747L432.243 245.457C432.214 245.629 432.166 245.797 432.1 245.958C432.054 246.086 431.965 246.195 431.85 246.267L430.944 246.792C430.824 246.863 430.741 246.863 430.681 246.792C430.601 246.694 430.555 246.573 430.55 246.446L429.12 236.374C429.12 236.374 429.12 236.279 429.12 236.243C429.123 236.11 429.156 235.98 429.215 235.861C429.26 235.755 429.335 235.664 429.43 235.599L430.252 235.122C430.321 235.094 430.398 235.094 430.467 235.122C430.538 235.122 430.586 235.218 430.61 235.408L431.552 242.191L432.374 237.101C432.395 236.974 432.431 236.85 432.481 236.731C432.529 236.581 432.631 236.453 432.767 236.374L433.685 235.837C433.816 235.766 433.912 235.778 433.971 235.837C434.023 235.913 434.059 235.998 434.079 236.088L434.913 240.224L435.855 232.357C435.866 232.202 435.911 232.052 435.986 231.916C436.041 231.827 436.114 231.75 436.2 231.689L437.023 231.213C437.054 231.189 437.091 231.177 437.13 231.177C437.169 231.177 437.206 231.189 437.237 231.213C437.271 231.252 437.297 231.297 437.314 231.346C437.33 231.395 437.336 231.447 437.333 231.499C437.337 231.546 437.337 231.594 437.333 231.642L435.902 243.359C435.878 243.53 435.834 243.698 435.771 243.86C435.717 243.987 435.625 244.095 435.509 244.17L434.591 244.694C434.484 244.754 434.4 244.754 434.341 244.694C434.28 244.584 434.232 244.469 434.198 244.348L433.208 239.747Z" fill="#FAFAFA"/>
<path d="M438.787 234.693C438.813 234.032 438.893 233.374 439.025 232.726C439.162 232.093 439.37 231.477 439.645 230.891C439.908 230.321 440.245 229.788 440.647 229.305C441.054 228.827 441.542 228.423 442.089 228.113C442.509 227.828 443 227.667 443.507 227.648C443.886 227.653 444.249 227.802 444.521 228.066C444.809 228.39 445.018 228.778 445.128 229.198C445.282 229.746 445.366 230.31 445.379 230.879C445.379 231.093 445.379 231.332 445.379 231.594C445.379 231.856 445.379 232.13 445.379 232.416C445.379 232.703 445.379 232.977 445.379 233.239C445.379 233.501 445.379 233.751 445.379 233.978C445.353 234.635 445.273 235.289 445.14 235.933C445.003 236.564 444.799 237.18 444.532 237.769C444.262 238.337 443.921 238.869 443.519 239.354C443.112 239.828 442.628 240.231 442.089 240.546C441.659 240.829 441.161 240.989 440.647 241.011C440.461 241.015 440.276 240.981 440.104 240.911C439.932 240.841 439.776 240.737 439.645 240.605C439.334 240.272 439.12 239.86 439.025 239.413C438.884 238.864 438.804 238.3 438.787 237.733C438.787 237.518 438.787 237.28 438.787 237.018C438.787 236.755 438.787 236.481 438.787 236.195C438.787 235.909 438.787 235.647 438.787 235.373C438.787 235.098 438.775 234.908 438.787 234.693ZM443.865 231.844C443.891 231.553 443.859 231.259 443.769 230.98C443.678 230.701 443.533 230.444 443.34 230.223C443.031 229.949 442.601 229.961 442.089 230.223C441.533 230.55 441.091 231.042 440.825 231.63C440.487 232.325 440.308 233.086 440.301 233.859C440.301 234.3 440.301 234.789 440.301 235.325C440.301 235.861 440.301 236.338 440.301 236.767C440.274 237.059 440.307 237.353 440.397 237.631C440.487 237.91 440.633 238.168 440.825 238.388C441.135 238.651 441.564 238.627 442.089 238.329C442.636 237.999 443.072 237.514 443.34 236.934C443.679 236.244 443.858 235.486 443.865 234.717C443.865 234.264 443.865 233.775 443.865 233.239C443.865 232.703 443.877 232.273 443.865 231.844Z" fill="#FAFAFA"/>
<path d="M450.576 223.357C451.518 222.821 452.221 222.737 452.71 223.131C452.999 223.45 453.214 223.829 453.34 224.241C453.466 224.654 453.499 225.088 453.437 225.515C453.446 226.324 453.322 227.13 453.067 227.899C452.825 228.615 452.449 229.278 451.959 229.854L453.508 233.227C453.513 233.283 453.513 233.338 453.508 233.394C453.509 233.501 453.484 233.608 453.437 233.704C453.404 233.79 453.346 233.865 453.27 233.918L452.316 234.467C452.161 234.55 452.054 234.562 451.982 234.467C451.919 234.404 451.867 234.332 451.827 234.252L450.361 231.07L448.871 231.928V235.957C448.872 236.089 448.844 236.219 448.788 236.338C448.739 236.442 448.665 236.532 448.573 236.6L447.667 237.125C447.637 237.15 447.599 237.164 447.56 237.164C447.521 237.164 447.483 237.15 447.453 237.125C447.419 237.088 447.392 237.045 447.376 236.998C447.36 236.951 447.353 236.901 447.357 236.851V225.706C447.361 225.573 447.393 225.443 447.453 225.324C447.495 225.216 447.57 225.124 447.667 225.062L450.576 223.357ZM448.895 229.77L450.576 228.864C450.987 228.635 451.338 228.313 451.601 227.923C451.877 227.463 452.01 226.932 451.982 226.397C451.982 225.753 451.851 225.396 451.601 225.324C451.238 225.275 450.87 225.369 450.576 225.586L448.955 226.516L448.895 229.77Z" fill="#FAFAFA"/>
<path d="M458.562 218.768C458.995 218.486 459.49 218.314 460.005 218.268C460.378 218.254 460.741 218.386 461.018 218.637C461.334 218.969 461.552 219.381 461.65 219.829C461.81 220.42 461.898 221.029 461.912 221.641C461.912 222.475 461.912 223.334 461.912 224.204C461.888 224.913 461.8 225.62 461.65 226.314C461.513 226.959 461.306 227.586 461.03 228.185C460.764 228.735 460.427 229.248 460.029 229.711C459.63 230.185 459.155 230.588 458.622 230.903L455.797 232.44C455.767 232.466 455.729 232.48 455.69 232.48C455.65 232.48 455.612 232.466 455.582 232.44C455.548 232.404 455.521 232.361 455.505 232.314C455.488 232.267 455.482 232.216 455.487 232.166V221.021C455.491 220.888 455.523 220.758 455.582 220.64C455.624 220.532 455.7 220.44 455.797 220.377L458.562 218.768ZM460.398 222.475C460.393 222.153 460.345 221.832 460.255 221.522C460.2 221.287 460.08 221.072 459.909 220.902C459.834 220.827 459.745 220.768 459.647 220.729C459.548 220.69 459.443 220.672 459.337 220.675C459.039 220.695 458.751 220.794 458.503 220.961L457.001 221.82V229.592L458.562 228.698C458.864 228.522 459.134 228.296 459.361 228.03C459.583 227.769 459.771 227.48 459.921 227.172C460.07 226.843 460.182 226.5 460.255 226.147C460.338 225.779 460.386 225.403 460.398 225.026C460.434 224.156 460.434 223.31 460.398 222.475Z" fill="#FAFAFA"/>
<path d="M294.877 45.7606C296.934 46.2184 298.917 46.9648 300.765 47.9777C302.536 48.9293 304.122 50.1886 305.45 51.6967C306.721 53.1475 307.664 54.855 308.215 56.7031C308.778 58.6814 308.819 60.7716 308.335 62.7704C308.015 64.3552 307.387 65.8618 306.487 67.2047C305.665 68.353 304.686 69.3802 303.579 70.2562C302.491 71.1007 301.33 71.8467 300.11 72.4852L296.677 74.309C295.643 74.8483 294.661 75.4828 293.745 76.2043C292.915 76.8403 292.28 77.6947 291.909 78.6717C291.727 79.1181 291.426 79.5057 291.039 79.7922C290.855 79.9346 290.642 80.0333 290.415 80.0809C290.188 80.1284 289.953 80.1234 289.728 80.0663L284.673 78.9459C284.43 78.8948 284.199 78.7958 283.995 78.6546C283.79 78.5134 283.616 78.3328 283.481 78.1234C283.339 77.9287 283.244 77.7032 283.205 77.465C283.165 77.2269 283.182 76.9828 283.255 76.7526C283.662 75.1874 284.379 73.7199 285.365 72.4375C286.264 71.3032 287.306 70.2896 288.464 69.4218C289.593 68.5956 290.789 67.8659 292.04 67.2404C293.232 66.6325 294.424 66.0484 295.461 65.4643C296.426 64.9458 297.333 64.3265 298.167 63.6167C298.899 63.004 299.406 62.1654 299.609 61.2327C299.799 60.4229 299.789 59.5792 299.582 58.7737C299.374 57.9683 298.975 57.2251 298.417 56.6078C297.023 55.086 295.16 54.0746 293.125 53.7351C289.358 52.9007 286.179 54.1682 283.589 57.5375C283.339 57.9053 283.024 58.2244 282.659 58.4792C282.247 58.6832 281.772 58.7174 281.336 58.5746L275.96 57.3826C275.576 57.3085 275.238 57.0857 275.018 56.7627C274.901 56.5902 274.822 56.3945 274.787 56.1888C274.752 55.9831 274.762 55.7723 274.816 55.5707C275.273 53.9144 276.123 52.3931 277.295 51.1365C278.617 49.6792 280.187 48.4684 281.932 47.5605C283.84 46.5621 285.897 45.8778 288.023 45.5341C290.301 45.1636 292.629 45.2405 294.877 45.7606ZM289.167 84.1191C289.64 84.2302 290.051 84.5218 290.311 84.9317C290.572 85.3415 290.662 85.8371 290.562 86.3124L289.275 92.1532C289.231 92.3978 289.136 92.6304 288.997 92.8358C288.857 93.0412 288.675 93.2148 288.464 93.3452C288.264 93.4828 288.038 93.5772 287.8 93.6224C287.562 93.6675 287.317 93.6624 287.081 93.6075L281.312 92.2843C281.067 92.243 280.833 92.1492 280.627 92.0093C280.422 91.8694 280.249 91.6867 280.12 91.4738C279.986 91.2725 279.895 91.046 279.852 90.8082C279.809 90.5705 279.815 90.3265 279.87 90.0911L281.169 84.2503C281.28 83.7768 281.571 83.3652 281.981 83.1026C282.39 82.84 282.886 82.7472 283.362 82.8437L289.167 84.1191Z" fill="#BA68C8"/>
<path d="M301.242 101.677C302.678 101.447 304.138 101.419 305.581 101.594C306.96 101.757 308.299 102.161 309.539 102.786C310.719 103.398 311.759 104.251 312.59 105.289C313.338 106.305 313.864 107.466 314.135 108.698C314.406 109.93 314.416 111.205 314.164 112.441C313.936 113.391 313.571 114.303 313.079 115.147C312.605 115.967 312.054 116.742 311.434 117.459C310.826 118.174 310.242 118.854 309.706 119.509C309.18 120.12 308.714 120.779 308.311 121.476C307.933 122.088 307.743 122.796 307.763 123.514C307.752 123.85 307.658 124.178 307.488 124.468C307.402 124.602 307.289 124.715 307.155 124.802C307.021 124.888 306.871 124.945 306.714 124.969L303.138 125.541C302.971 125.571 302.799 125.568 302.633 125.531C302.467 125.494 302.311 125.425 302.172 125.326C302.031 125.238 301.913 125.117 301.829 124.974C301.744 124.831 301.694 124.67 301.683 124.504C301.534 123.395 301.615 122.266 301.922 121.19C302.202 120.237 302.603 119.324 303.114 118.472C303.615 117.655 304.19 116.885 304.83 116.172C305.462 115.457 306.022 114.789 306.571 114.145C307.06 113.57 307.484 112.943 307.834 112.274C308.144 111.698 308.257 111.037 308.156 110.391C308.066 109.822 307.841 109.283 307.498 108.82C307.156 108.358 306.707 107.984 306.189 107.732C304.908 107.113 303.457 106.937 302.065 107.232C300.804 107.416 299.631 107.986 298.707 108.863C297.783 109.74 297.153 110.882 296.903 112.131C296.834 112.431 296.713 112.718 296.546 112.977C296.333 113.203 296.045 113.343 295.735 113.371L291.969 113.978C291.704 114.029 291.43 113.973 291.206 113.823C291.091 113.745 290.994 113.642 290.922 113.523C290.85 113.404 290.805 113.27 290.788 113.132C290.676 111.949 290.861 110.757 291.325 109.663C291.796 108.391 292.491 107.212 293.375 106.183C294.345 105.056 295.487 104.09 296.76 103.322C298.134 102.489 299.656 101.93 301.242 101.677ZM307.393 127.722C307.557 127.696 307.725 127.703 307.886 127.742C308.048 127.78 308.2 127.851 308.335 127.949C308.475 128.041 308.595 128.162 308.685 128.304C308.775 128.446 308.835 128.605 308.859 128.771L309.527 132.86C309.578 133.191 309.497 133.53 309.301 133.802C309.105 134.075 308.809 134.258 308.478 134.314L304.485 134.97C304.153 135.021 303.815 134.939 303.543 134.743C303.405 134.65 303.288 134.528 303.199 134.386C303.111 134.245 303.053 134.086 303.03 133.921L302.363 129.832C302.333 129.668 302.337 129.499 302.376 129.337C302.415 129.175 302.488 129.023 302.589 128.89C302.683 128.752 302.804 128.635 302.946 128.547C303.088 128.458 303.246 128.401 303.412 128.378L307.393 127.722Z" fill="#BA68C8"/>
<g opacity="0.2">
<path d="M301.242 101.677C302.678 101.447 304.138 101.419 305.581 101.594C306.96 101.757 308.299 102.161 309.539 102.786C310.719 103.398 311.759 104.251 312.59 105.289C313.338 106.305 313.864 107.466 314.135 108.698C314.406 109.93 314.416 111.205 314.164 112.441C313.936 113.391 313.571 114.303 313.079 115.147C312.605 115.967 312.054 116.742 311.434 117.459C310.826 118.174 310.242 118.854 309.706 119.509C309.18 120.12 308.714 120.779 308.311 121.476C307.933 122.088 307.743 122.796 307.763 123.514C307.752 123.85 307.658 124.178 307.488 124.468C307.402 124.602 307.289 124.715 307.155 124.802C307.021 124.888 306.871 124.945 306.714 124.969L303.138 125.541C302.971 125.571 302.799 125.568 302.633 125.531C302.467 125.494 302.311 125.425 302.172 125.326C302.031 125.238 301.913 125.117 301.829 124.974C301.744 124.831 301.694 124.67 301.683 124.504C301.534 123.395 301.615 122.266 301.922 121.19C302.202 120.237 302.603 119.324 303.114 118.472C303.615 117.655 304.19 116.885 304.83 116.172C305.462 115.457 306.022 114.789 306.571 114.145C307.06 113.57 307.484 112.943 307.834 112.274C308.144 111.698 308.257 111.037 308.156 110.391C308.066 109.822 307.841 109.283 307.498 108.82C307.156 108.358 306.707 107.984 306.189 107.732C304.908 107.113 303.457 106.937 302.065 107.232C300.804 107.416 299.631 107.986 298.707 108.863C297.783 109.74 297.153 110.882 296.903 112.131C296.834 112.431 296.713 112.718 296.546 112.977C296.333 113.203 296.045 113.343 295.735 113.371L291.969 113.978C291.704 114.029 291.43 113.973 291.206 113.823C291.091 113.745 290.994 113.642 290.922 113.523C290.85 113.404 290.805 113.27 290.788 113.132C290.676 111.949 290.861 110.757 291.325 109.663C291.796 108.391 292.491 107.212 293.375 106.183C294.345 105.056 295.487 104.09 296.76 103.322C298.134 102.489 299.656 101.93 301.242 101.677ZM307.393 127.722C307.557 127.696 307.725 127.703 307.886 127.742C308.048 127.78 308.2 127.851 308.335 127.949C308.475 128.041 308.595 128.162 308.685 128.304C308.775 128.446 308.835 128.605 308.859 128.771L309.527 132.86C309.578 133.191 309.497 133.53 309.301 133.802C309.105 134.075 308.809 134.258 308.478 134.314L304.485 134.97C304.153 135.021 303.815 134.939 303.543 134.743C303.405 134.65 303.288 134.528 303.199 134.386C303.111 134.245 303.053 134.086 303.03 133.921L302.363 129.832C302.333 129.668 302.337 129.499 302.376 129.337C302.415 129.175 302.488 129.023 302.589 128.89C302.683 128.752 302.804 128.635 302.946 128.547C303.088 128.458 303.246 128.401 303.412 128.378L307.393 127.722Z" fill="black"/>
</g>
<path d="M334.952 108.102C335.114 108.215 335.252 108.36 335.357 108.528C335.461 108.696 335.53 108.884 335.56 109.08C335.598 109.274 335.595 109.473 335.552 109.666C335.509 109.859 335.426 110.041 335.31 110.2L332.473 114.193C332.36 114.356 332.215 114.494 332.047 114.598C331.878 114.703 331.691 114.772 331.495 114.801C331.301 114.839 331.102 114.837 330.909 114.794C330.716 114.75 330.534 114.668 330.375 114.551L326.465 111.774C326.302 111.662 326.165 111.517 326.062 111.349C325.959 111.18 325.893 110.992 325.869 110.796C325.831 110.602 325.834 110.403 325.877 110.21C325.92 110.017 326.002 109.835 326.119 109.676L328.992 105.683C329.224 105.359 329.575 105.14 329.967 105.073C330.36 105.006 330.763 105.097 331.09 105.325L334.952 108.102ZM351.449 81.0558C352.875 82.0549 354.144 83.2601 355.216 84.6318C356.261 85.9079 357.069 87.3614 357.6 88.923C358.095 90.4196 358.261 92.0051 358.089 93.5718C357.887 95.2426 357.254 96.8322 356.253 98.1849C355.509 99.2786 354.552 100.211 353.44 100.926C352.461 101.54 351.396 102.006 350.281 102.309C349.195 102.593 348.086 102.785 346.967 102.881L343.797 103.167C342.846 103.243 341.904 103.407 340.983 103.656C340.134 103.849 339.357 104.279 338.742 104.896C338.465 105.178 338.114 105.376 337.729 105.468C337.546 105.52 337.353 105.528 337.167 105.491C336.98 105.454 336.805 105.372 336.656 105.253L333.2 102.798C332.869 102.562 332.643 102.207 332.568 101.809C332.523 101.615 332.525 101.414 332.573 101.222C332.62 101.029 332.713 100.85 332.842 100.7C333.65 99.6522 334.659 98.7767 335.81 98.1253C336.847 97.5592 337.953 97.1305 339.1 96.8498C340.207 96.5812 341.336 96.4097 342.473 96.3373C343.594 96.2658 344.643 96.1823 345.62 96.087C346.515 96.008 347.398 95.8321 348.255 95.5625C349.004 95.313 349.649 94.8226 350.09 94.1678C350.489 93.6149 350.748 92.974 350.845 92.2995C350.943 91.625 350.876 90.937 350.651 90.2938C350.087 88.7051 349.009 87.3501 347.587 86.4437C345.012 84.608 342.203 84.5484 339.16 86.2649C338.853 86.4598 338.514 86.5972 338.158 86.6702C337.973 86.6831 337.787 86.6591 337.611 86.5998C337.435 86.5405 337.273 86.4469 337.133 86.3245L333.462 83.714C333.329 83.6257 333.215 83.5117 333.127 83.3786C333.039 83.2455 332.979 83.0961 332.949 82.9392C332.921 82.777 332.926 82.6106 332.965 82.4506C333.004 82.2906 333.076 82.1404 333.176 82.0094C334.042 80.8996 335.168 80.0195 336.454 79.4466C337.915 78.7847 339.48 78.3814 341.079 78.2546C342.838 78.1076 344.61 78.2485 346.324 78.6718C348.174 79.1176 349.916 79.9281 351.449 81.0558Z" fill="#BA68C8"/>
<g opacity="0.6">
<path d="M334.952 108.102C335.114 108.215 335.252 108.36 335.357 108.528C335.461 108.696 335.53 108.884 335.56 109.08C335.598 109.274 335.595 109.473 335.552 109.666C335.509 109.859 335.426 110.041 335.31 110.2L332.473 114.193C332.36 114.356 332.215 114.494 332.047 114.598C331.878 114.703 331.691 114.772 331.495 114.801C331.301 114.839 331.102 114.837 330.909 114.794C330.716 114.75 330.534 114.668 330.375 114.551L326.465 111.774C326.302 111.662 326.165 111.517 326.062 111.349C325.959 111.18 325.893 110.992 325.869 110.796C325.831 110.602 325.834 110.403 325.877 110.21C325.92 110.017 326.002 109.835 326.119 109.676L328.992 105.683C329.224 105.359 329.575 105.14 329.967 105.073C330.36 105.006 330.763 105.097 331.09 105.325L334.952 108.102ZM351.449 81.0558C352.875 82.0549 354.144 83.2601 355.216 84.6318C356.261 85.9079 357.069 87.3614 357.6 88.923C358.095 90.4196 358.261 92.0051 358.089 93.5718C357.887 95.2426 357.254 96.8322 356.253 98.1849C355.509 99.2786 354.552 100.211 353.44 100.926C352.461 101.54 351.396 102.006 350.281 102.309C349.195 102.593 348.086 102.785 346.967 102.881L343.797 103.167C342.846 103.243 341.904 103.407 340.983 103.656C340.134 103.849 339.357 104.279 338.742 104.896C338.465 105.178 338.114 105.376 337.729 105.468C337.546 105.52 337.353 105.528 337.167 105.491C336.98 105.454 336.805 105.372 336.656 105.253L333.2 102.798C332.869 102.562 332.643 102.207 332.568 101.809C332.523 101.615 332.525 101.414 332.573 101.222C332.62 101.029 332.713 100.85 332.842 100.7C333.65 99.6522 334.659 98.7767 335.81 98.1253C336.847 97.5592 337.953 97.1305 339.1 96.8498C340.207 96.5812 341.336 96.4097 342.473 96.3373C343.594 96.2658 344.643 96.1823 345.62 96.087C346.515 96.008 347.398 95.8321 348.255 95.5625C349.004 95.313 349.649 94.8226 350.09 94.1678C350.489 93.6149 350.748 92.974 350.845 92.2995C350.943 91.625 350.876 90.937 350.651 90.2938C350.087 88.7051 349.009 87.3501 347.587 86.4437C345.012 84.608 342.203 84.5484 339.16 86.2649C338.853 86.4598 338.514 86.5972 338.158 86.6702C337.973 86.6831 337.787 86.6591 337.611 86.5998C337.435 86.5405 337.273 86.4469 337.133 86.3245L333.462 83.714C333.329 83.6257 333.215 83.5117 333.127 83.3786C333.039 83.2455 332.979 83.0961 332.949 82.9392C332.921 82.777 332.926 82.6106 332.965 82.4506C333.004 82.2906 333.076 82.1404 333.176 82.0094C334.042 80.8996 335.168 80.0195 336.454 79.4466C337.915 78.7847 339.48 78.3814 341.079 78.2546C342.838 78.1076 344.61 78.2485 346.324 78.6718C348.174 79.1176 349.916 79.9281 351.449 81.0558Z" fill="white"/>
</g>
<path d="M246.184 213.619H203.832V111.012C203.832 102.1 207.372 93.5528 213.674 87.2511C219.976 80.9494 228.523 77.4092 237.435 77.4092H241.344C250.256 77.4092 258.803 80.9494 265.105 87.2511C271.406 93.5528 274.947 102.1 274.947 111.012V184.916C274.931 192.534 271.894 199.834 266.501 205.216C261.109 210.597 253.802 213.619 246.184 213.619Z" fill="#263238"/>
<path d="M199.708 460.637C198.959 464.888 198.56 469.194 198.516 473.51C198.361 481.33 196.93 484.107 196.74 490.52C196.513 497.851 197.789 500.593 200.757 504.717C203.725 508.841 211.485 512.572 214.846 505.611C218.208 498.65 217.719 494.084 216.658 486.896C215.573 479.458 215.466 475.346 214.798 469.684C214.25 464.69 213.606 460.887 213.606 460.887L199.708 460.637Z" fill="#263238"/>
<path d="M221.903 408.701L196.156 408.236C196.537 425.425 199.267 444.509 199.732 460.684C199.827 463.724 199.66 484.274 200.804 490.484C202.533 499.877 213.666 498.602 214.262 492.988C214.858 487.373 213.547 463.378 213.583 460.899C213.475 450.552 218.351 433.09 220.866 414.518C220.973 413.624 221.784 409.595 221.903 408.701Z" fill="#FFA8A7"/>
<path d="M254.981 447.263C254.981 447.263 253.968 446.714 253.789 447.799C253.538 449.086 253.157 451.745 252.597 453.866C251.858 456.811 251.238 461.662 251.679 464.07C252.12 466.478 257.722 469.553 261.358 470.673C265.839 472.056 269.925 474.488 273.278 477.766C276.854 481.151 284.638 484.346 289.966 484.31C296.224 484.31 300.587 482.224 302.649 478.874C304.711 475.525 300.765 475.12 293.613 470.53L288.071 466.954C276.735 459.552 272.575 455.595 269.392 448.192L254.981 447.263Z" fill="#263238"/>
<path d="M269.487 442.673C269.297 437.357 272.968 392.168 272.968 392.168L248.52 403.313C253.753 434.567 254.873 441.946 254.957 447.06C254.85 447.488 254.805 447.93 254.826 448.371C254.826 454.438 261.704 457.716 267.044 461.769C271.583 465.325 276.421 468.484 281.503 471.209C285.389 473.152 293.28 473.331 294.257 470.84C287.749 465.869 278.284 458.431 273.111 452.757C270.584 450.087 269.678 448.001 269.487 442.673Z" fill="#FFA8A7"/>
<path d="M206.705 240.976C197.312 261.585 197.312 277.534 198.873 303.842C200.256 327.98 202.557 349.257 202.557 349.257C202.199 353.536 196.251 361.892 195.476 380.821C194.761 398.51 196.668 421.003 196.668 421.003C196.668 421.003 210.03 428.406 219.912 420.932C219.912 420.932 229.448 375.409 232.237 353.262C234.621 333.94 238.913 309.253 238.913 309.253L247.936 353.131C245.988 359.356 244.577 365.737 243.716 372.203C242.453 385.231 249.748 410.812 249.748 410.812C249.748 410.812 263.551 414.924 271.979 407.45C271.979 407.45 275.126 365.861 276.306 350.175C277.879 329.16 274.565 272.277 271.979 242.156L206.705 240.976Z" fill="#455A64"/>
<path d="M238.936 309.217L242.643 276.151C242.643 276.151 259.26 273.934 266.793 266.854C264.637 270.227 261.765 273.084 258.38 275.223C254.995 277.361 251.181 278.728 247.209 279.226L241.845 309.992L247.936 353.13L238.936 309.217Z" fill="#263238"/>
<path d="M306.225 232.846C306.911 226.811 307.214 220.74 307.131 214.668C306.761 209.423 305.82 208.564 298.489 199.279C288.595 186.727 280.144 175.439 271.204 164.222C264.815 156.212 258.092 154.984 251.56 155.342C246.982 155.592 255.922 177.608 260.416 190.637L286.08 218.267C286.875 219.358 287.24 220.703 287.105 222.046L285.556 245.552L293.244 255.851C293.244 255.851 304.89 245.814 306.225 232.846Z" fill="#FFA8A7"/>
<path d="M226.814 156.057C221.843 156.402 212.808 157.249 212.808 157.249C207.599 160.157 206.276 162.553 205.31 169.467C204.893 172.423 207.301 180.278 209.363 191.447L213.273 212.152L212.843 222.427C210.817 228.697 206.228 236.481 202.175 247.96C222.081 259.069 238.769 259.487 253.908 257.496C265.446 256.006 271.561 253.217 273.6 250.451C273.171 239.115 272.408 232.106 272.169 220.258C272.086 215.287 272.384 210.257 272.586 204.535C280.323 198.17 280.418 187.585 276.162 180.695C266.352 164.806 256.804 154.805 250.487 155.318L226.814 156.057Z" fill="#BA68C8"/>
<path opacity="0.6" d="M226.814 156.057C221.843 156.402 212.808 157.249 212.808 157.249C207.599 160.157 206.276 162.553 205.31 169.467C204.893 172.423 207.301 180.278 209.363 191.447L213.273 212.152L212.843 222.427C210.817 228.697 206.228 236.481 202.175 247.96C222.081 259.069 238.769 259.487 253.908 257.496C265.446 256.006 271.561 253.217 273.6 250.451C273.171 239.115 272.408 232.106 272.169 220.258C272.086 215.287 272.384 210.257 272.586 204.535C280.323 198.17 280.418 187.585 276.162 180.695C266.352 164.806 256.804 154.805 250.487 155.318L226.814 156.057Z" fill="white"/>
<path opacity="0.1" d="M257.174 204.69C257.174 204.69 248.091 211.747 237.709 208.064C234.793 207.145 232.164 205.49 230.076 203.257C227.988 201.025 226.511 198.291 225.789 195.321C225.789 195.321 224.692 207.182 237.768 211.223C250.439 215.12 257.174 204.69 257.174 204.69Z" fill="black"/>
<path d="M269.499 123.504C269.106 140.716 263.539 144.96 260.726 146.152C257.913 147.344 252.525 146.629 247.28 145.758V156.153C247.28 156.153 253.336 162.494 252.883 167.226C252.43 171.959 243.347 172.495 236.576 167.858C232.84 165.292 229.461 162.242 226.528 158.787C225.964 158.12 225.656 157.276 225.658 156.403V132.086C225.658 132.086 222.785 135.126 217.707 131.645C216.611 130.946 215.673 130.026 214.952 128.945C214.231 127.863 213.743 126.644 213.519 125.364C213.294 124.083 213.339 122.77 213.65 121.508C213.96 120.246 214.53 119.062 215.323 118.032C217.54 115.422 223.166 115.243 225.86 119.224C227.386 122.193 227.589 125.184 229.293 123.992C233.823 120.726 231.391 113.264 236.862 109.688C238.658 108.751 240.523 107.954 242.441 107.304C252.203 103.931 260.667 101.094 262.705 94.4189C266.543 96.6122 269.976 103.204 269.499 123.504Z" fill="#FFA8A7"/>
<path d="M250.248 138.88C251.499 138.88 252.513 137.866 252.513 136.615C252.513 135.365 251.499 134.351 250.248 134.351C248.998 134.351 247.984 135.365 247.984 136.615C247.984 137.866 248.998 138.88 250.248 138.88Z" fill="#B16668"/>
<path d="M248.747 120.893C248.746 121.359 248.609 121.815 248.352 122.204C248.094 122.593 247.729 122.898 247.3 123.082C246.872 123.265 246.398 123.319 245.94 123.236C245.481 123.153 245.056 122.938 244.718 122.616C244.381 122.295 244.145 121.881 244.04 121.427C243.935 120.972 243.965 120.497 244.128 120.06C244.29 119.623 244.577 119.243 244.953 118.967C245.329 118.692 245.778 118.532 246.243 118.509C246.566 118.493 246.889 118.542 247.192 118.655C247.495 118.767 247.772 118.941 248.007 119.164C248.241 119.387 248.427 119.655 248.554 119.952C248.682 120.249 248.747 120.569 248.747 120.893Z" fill="#263238"/>
<path d="M266.805 121.132C266.83 121.423 266.796 121.717 266.706 121.995C266.615 122.274 266.471 122.531 266.28 122.753C266.089 122.975 265.856 123.157 265.594 123.288C265.332 123.419 265.047 123.496 264.755 123.516C264.46 123.543 264.163 123.507 263.884 123.411C263.604 123.314 263.348 123.159 263.133 122.957C262.917 122.754 262.748 122.507 262.635 122.234C262.522 121.96 262.469 121.666 262.478 121.37C262.448 121.076 262.477 120.779 262.565 120.497C262.653 120.215 262.798 119.954 262.991 119.73C263.183 119.506 263.419 119.324 263.685 119.194C263.95 119.065 264.239 118.991 264.534 118.977C264.83 118.963 265.124 119.01 265.401 119.114C265.677 119.218 265.929 119.378 266.142 119.583C266.355 119.788 266.523 120.034 266.637 120.307C266.751 120.579 266.808 120.872 266.805 121.167V121.132Z" fill="#263238"/>
<path d="M245.683 127.02C243.627 127.02 241.655 126.204 240.2 124.751C238.745 123.298 237.926 121.328 237.923 119.272C237.923 114.003 243.359 114.003 245.683 114.003C248.007 114.003 253.431 114.003 253.431 119.272C253.428 121.325 252.611 123.294 251.158 124.747C249.706 126.199 247.737 127.016 245.683 127.02ZM245.683 115.219C240.915 115.219 239.151 116.411 239.151 119.272C239.151 121.01 239.842 122.678 241.071 123.907C242.301 125.137 243.968 125.828 245.707 125.828C247.446 125.828 249.113 125.137 250.343 123.907C251.572 122.678 252.263 121.01 252.263 119.272C252.215 116.351 250.379 115.219 245.683 115.219Z" fill="#455A64"/>
<path d="M265.363 127.02C263.307 127.02 261.335 126.204 259.88 124.751C258.425 123.298 257.606 121.328 257.603 119.272C257.603 114.003 263.039 114.003 265.363 114.003C267.687 114.003 273.111 114.003 273.111 119.272C273.108 121.325 272.29 123.294 270.838 124.747C269.386 126.199 267.417 127.016 265.363 127.02ZM265.363 115.219C260.666 115.219 258.831 116.411 258.831 119.272C258.831 121.01 259.522 122.678 260.751 123.907C261.98 125.137 263.648 125.828 265.387 125.828C267.126 125.828 268.793 125.137 270.023 123.907C271.252 122.678 271.943 121.01 271.943 119.272C271.895 116.351 270.059 115.219 265.363 115.219Z" fill="#455A64"/>
<path d="M254.635 116.769L255.016 131.251L262.633 128.891L254.635 116.769Z" fill="#F28F8F"/>
<path d="M247.268 145.794C241.738 145.067 230.354 141.801 228.578 137.295C229.293 139.572 230.686 141.577 232.571 143.04C235.968 145.961 247.268 149.239 247.268 149.239V145.794Z" fill="#F28F8F"/>
<path d="M247.543 109.736L242.488 112.823C242.09 112.129 241.974 111.309 242.165 110.532C242.356 109.755 242.839 109.081 243.514 108.651C243.847 108.449 244.218 108.316 244.604 108.261C244.99 108.206 245.383 108.23 245.76 108.332C246.137 108.433 246.489 108.61 246.795 108.851C247.102 109.092 247.356 109.393 247.543 109.736Z" fill="#263238"/>
<path d="M268.105 113.169L262.479 111.203C262.587 110.83 262.771 110.483 263.019 110.184C263.267 109.885 263.573 109.639 263.919 109.463C264.266 109.287 264.644 109.183 265.032 109.158C265.419 109.133 265.808 109.188 266.174 109.319C266.928 109.59 267.55 110.141 267.909 110.858C268.269 111.575 268.339 112.402 268.105 113.169Z" fill="#263238"/>
<path d="M252.823 119.892C252.742 119.892 252.662 119.875 252.588 119.844C252.513 119.813 252.446 119.767 252.389 119.709C252.332 119.652 252.288 119.583 252.258 119.508C252.228 119.433 252.214 119.353 252.215 119.272C252.215 118.282 254.17 117.639 255.934 117.639C257.698 117.639 258.831 118.282 258.831 119.272C258.794 119.401 258.716 119.515 258.608 119.596C258.501 119.677 258.37 119.721 258.235 119.721C258.1 119.721 257.969 119.677 257.862 119.596C257.754 119.515 257.676 119.401 257.639 119.272C257.639 119.153 257.031 118.855 255.97 118.855C255.116 118.836 254.266 118.982 253.467 119.284C253.467 119.367 253.45 119.449 253.417 119.525C253.385 119.601 253.337 119.67 253.276 119.727C253.216 119.784 253.145 119.828 253.067 119.856C252.989 119.884 252.906 119.896 252.823 119.892Z" fill="#455A64"/>
<path d="M238.555 119.367H238.483L224.859 118.175C224.222 117.544 223.464 117.049 222.63 116.721L238.627 118.199C238.787 118.22 238.933 118.302 239.033 118.429C239.133 118.556 239.18 118.717 239.163 118.878C239.135 119.018 239.059 119.144 238.948 119.233C238.837 119.322 238.698 119.37 238.555 119.367Z" fill="#455A64"/>
<path d="M182.614 133.576C187.072 127.616 190.112 123.122 194.177 118.08C196.489 115.183 197.967 113.109 200.137 110.141C201.663 108.091 202.521 106.363 204.261 105.731C206.141 104.96 207.836 103.798 209.232 102.322C210.09 101.372 210.886 100.369 211.616 99.3179C214.171 95.879 217.205 92.8243 220.627 90.2468C224.203 87.5529 228.196 85.4788 231.88 82.916C234.073 81.3783 236.421 78.8274 233.751 76.4434C232.932 75.7537 231.952 75.2822 230.902 75.0726C224.406 73.6661 218.756 75.8951 212.402 77.5162C209.643 78.205 206.944 79.1179 204.333 80.2459C203.048 80.7538 201.844 81.4444 200.757 82.2961C199.237 83.8287 197.991 85.6108 197.073 87.5648C194.296 92.5235 188.336 96.9577 184.164 100.879C179.289 105.469 174.926 109.676 169.359 114.73C164.353 119.296 159.454 123.492 154.865 128.474C151.062 132.587 152.481 135.805 152.981 136.925C156.08 143.291 159.549 145.579 163.709 149.525C170.861 156.355 195.595 176.011 203.784 182.508C205.544 183.89 206.926 185.694 207.801 187.752L209.375 191.388C218.72 193.104 224.954 179.075 217.218 162.184C215.937 159.453 213.98 157.094 211.532 155.33C201.758 148.214 182.614 133.576 182.614 133.576Z" fill="#FFA8A7"/>
<path d="M182.614 133.576C179.64 137.235 175.676 139.962 171.195 141.431C171.195 141.431 177.155 142.957 185.32 135.626L182.614 133.576Z" fill="#F28F8F"/>
<path d="M303.793 220.414L302.267 219.102C302.039 218.952 301.779 218.858 301.508 218.827C301.237 218.796 300.962 218.829 300.706 218.924L284.149 223.429C283.315 223.707 282.551 224.162 281.909 224.763C281.267 225.364 280.763 226.096 280.43 226.91L268.51 261.275C268.366 261.555 268.31 261.872 268.348 262.184C268.387 262.497 268.518 262.791 268.725 263.028L270.298 264.387C270.527 264.544 270.791 264.644 271.067 264.677C271.343 264.711 271.623 264.676 271.883 264.577L288.464 260.071C289.298 259.793 290.062 259.338 290.704 258.738C291.346 258.137 291.85 257.405 292.183 256.591C294.567 249.832 301.719 228.984 304.103 222.225C304.389 221.379 304.246 220.735 303.793 220.414Z" fill="#455A64"/>
<path d="M270.071 262.598L281.991 228.232C282.323 227.419 282.827 226.688 283.469 226.089C284.111 225.49 284.876 225.037 285.71 224.764L302.255 220.258C303.793 219.841 304.639 220.723 304.091 222.225C301.707 228.983 294.555 249.831 292.171 256.59C291.838 257.404 291.334 258.136 290.692 258.737C290.05 259.338 289.286 259.793 288.452 260.071L271.907 264.624C270.381 264.982 269.559 264.1 270.071 262.598Z" fill="#BA68C8"/>
<path d="M283.911 225.718C283.05 226.37 282.382 227.243 281.98 228.245L270.06 262.598C269.923 262.871 269.866 263.177 269.896 263.481C269.925 263.784 270.04 264.074 270.226 264.315L268.748 263.051C268.537 262.817 268.401 262.524 268.361 262.211C268.32 261.898 268.377 261.58 268.522 261.299L280.442 226.934C280.819 226 281.431 225.178 282.218 224.55L283.911 225.718Z" fill="#37474F"/>
<path d="M299.252 236.076C298.06 239.569 293.923 241.905 287.081 243.526C280.239 245.147 276.461 252.407 277.545 254.612C278.63 256.817 289.692 258.879 294.114 258.247C298.536 257.616 302.971 251.226 304.318 249.248C305.665 247.269 307.214 233.466 305.796 231.57C304.377 229.675 301.385 229.973 301.385 229.973L299.252 236.076Z" fill="#F28F8F"/>
</svg>
